<?xml version="1.0" encoding="utf-8"?>
<!-- Generator: Adobe Illustrator 25.2.0, SVG Export Plug-In . SVG Version: 6.00 Build 0)  -->
<svg version="1.1" id="Layer_1" xmlns="http://www.w3.org/2000/svg" xmlns:xlink="http://www.w3.org/1999/xlink" x="0px" y="0px"
	 viewBox="0 0 138 145" style="enable-background:new 0 0 138 145;" xml:space="preserve">
<style type="text/css">
	.st0{opacity:0.2;}
	.st1{fill:#003C3A;}
	.st2{fill:#FFFFFF;}
</style>
<g>
	<g id="Layer_1_1_">
		<g class="st0">
			<path d="M73.5,61c-0.9,0.4-1.7,0.8-2.7,1.1l-2.9,1c-1.7,0.5-3.3,1.1-4.9,1.8V54.7c2.5-1.1,4.9-2.3,7.3-3.6
				c2.2-1.1,4.3-2.5,6.1-4.3h10.7v71.7H73.5L73.5,61z"/>
			<path d="M73.1,60.6c-0.9,0.4-1.7,0.8-2.7,1.1l-2.8,1c-1.7,0.5-3.3,1.1-4.9,1.8V54.3c2.5-1.1,4.9-2.3,7.3-3.6
				c2.2-1.1,4.3-2.5,6.1-4.3h10.7v71.7H73.1V60.6z"/>
			<path d="M72.7,60.2c-0.9,0.4-1.8,0.8-2.7,1.1l-2.8,1c-1.7,0.5-3.3,1-4.8,1.7V53.9c2.5-1.1,4.9-2.2,7.3-3.6
				c2.2-1.1,4.3-2.6,6.1-4.3h10.7v71.7H72.7L72.7,60.2z"/>
			<path d="M72.3,59.8c-0.9,0.4-1.7,0.8-2.7,1.1l-2.8,1c-1.7,0.5-3.3,1.1-4.9,1.8V53.5c2.5-1.1,4.9-2.3,7.3-3.6
				c2.2-1.1,4.3-2.5,6.1-4.3H86v71.7H72.3L72.3,59.8z"/>
			<path d="M71.9,59.3c-0.9,0.4-1.7,0.8-2.7,1.1l-2.8,1c-1.7,0.5-3.3,1.1-4.9,1.8V53c2.5-1.1,4.9-2.2,7.3-3.6
				c2.2-1.1,4.3-2.5,6.1-4.3h10.7v71.7H71.9L71.9,59.3z"/>
			<path d="M71.5,59c-0.9,0.4-1.8,0.7-2.7,1L66,61c-1.7,0.5-3.3,1.1-4.9,1.8V52.6c2.5-1.1,4.9-2.2,7.3-3.6c2.2-1.1,4.3-2.5,6.1-4.3
				h10.7v71.7H71.5L71.5,59z"/>
			<path d="M71.1,58.5c-0.9,0.4-1.7,0.8-2.7,1.1l-2.8,1c-1.7,0.5-3.3,1.1-4.9,1.8V52.2c2.5-1.1,4.9-2.2,7.3-3.6
				c2.2-1.1,4.3-2.5,6.1-4.3h10.7v71.7H71.1V58.5z"/>
			<path d="M70.7,58.1c-0.9,0.4-1.7,0.8-2.7,1.1c-1.2,0.4-2.2,0.8-2.8,1c-1.7,0.5-3.3,1.1-4.9,1.8V51.8c2.5-1.1,4.9-2.2,7.3-3.6
				c2.2-1.1,4.3-2.5,6.1-4.2h10.7v71.7H70.7V58.1z"/>
			<path d="M70.2,57.7c-0.9,0.4-1.7,0.8-2.7,1.1l-2.8,1c-1.7,0.5-3.3,1.1-4.9,1.8V51.4c2.5-1.1,4.9-2.2,7.3-3.6
				c2.2-1.1,4.3-2.5,6.1-4.3l10.8,0v71.7H70.3L70.2,57.7z"/>
			<path d="M69.8,57.3c-0.9,0.4-1.7,0.8-2.7,1.1l-2.8,1c-1.7,0.5-3.3,1.1-4.9,1.8V51c2.5-1.1,4.9-2.2,7.3-3.6
				c2.2-1.1,4.3-2.5,6.1-4.3h10.7v71.7H69.8L69.8,57.3z"/>
			<path d="M69.4,56.9c-0.9,0.4-1.7,0.8-2.7,1.1l-2.8,1c-1.7,0.5-3.3,1.1-4.9,1.8V50.6c2.5-1.1,4.9-2.3,7.3-3.6
				c2.2-1.1,4.3-2.5,6.1-4.3h10.7v71.7H69.4V56.9z"/>
			<path d="M69,56.5c-0.9,0.4-1.7,0.8-2.7,1.1l-2.8,1c-1.7,0.5-3.3,1.1-4.9,1.8V50.2c2.5-1.1,5-2.2,7.4-3.6c2.2-1.1,4.2-2.5,6-4.3
				h10.7V114L69,114V56.5z"/>
			<path d="M68.6,56.1c-0.8,0.4-1.7,0.8-2.6,1.1l-2.8,1c-1.7,0.5-3.3,1.1-4.9,1.8V49.8c2.5-1.1,4.9-2.3,7.3-3.6
				c2.2-1.1,4.3-2.5,6.1-4.3h10.7v71.7H68.6V56.1z"/>
			<path d="M68.2,55.7c-0.9,0.4-1.7,0.8-2.7,1.1l-2.8,1c-1.7,0.5-3.3,1.1-4.9,1.8V49.4c2.5-1.1,4.9-2.3,7.3-3.6
				c2.2-1.1,4.3-2.5,6.1-4.3h10.7v71.7H68.2L68.2,55.7z"/>
			<path d="M67.8,55.3c-0.9,0.4-1.7,0.8-2.7,1.1l-2.8,1c-1.7,0.5-3.3,1.1-4.9,1.8V49c2.5-1.1,4.9-2.3,7.3-3.6
				c2.2-1.1,4.3-2.5,6.1-4.3h10.7v71.7H67.8L67.8,55.3z"/>
			<path d="M67.4,54.9c-0.9,0.4-1.7,0.8-2.7,1.1l-2.8,1c-1.7,0.5-3.3,1-4.9,1.7V48.5c2.5-1,4.9-2.2,7.3-3.5c2.2-1.1,4.3-2.5,6.1-4.3
				h10.7v71.7H67.4L67.4,54.9z"/>
			<path d="M67,54.5c-0.9,0.4-1.7,0.8-2.7,1.1l-2.8,1c-1.7,0.5-3.3,1.1-4.9,1.8V48.1c2.5-1.1,4.9-2.2,7.3-3.6
				c2.2-1.1,4.3-2.5,6.1-4.3h10.7V112H67V54.5z"/>
			<path d="M66.6,54c-0.9,0.4-1.7,0.8-2.7,1.1c-1.2,0.4-2.2,0.8-2.8,1c-1.7,0.5-3.3,1.1-4.9,1.8V47.7c2.5-1.1,4.9-2.2,7.3-3.6
				c2.2-1.1,4.3-2.5,6.1-4.3h10.7v71.7H66.6V54z"/>
			<path d="M66.2,53.6c-0.9,0.4-1.7,0.8-2.7,1.1l-2.8,1c-1.7,0.5-3.3,1.1-4.9,1.8V47.3c2.5-1.1,4.9-2.2,7.3-3.6
				c2.2-1.1,4.3-2.5,6.1-4.3h10.7v71.7H66.2V53.6z"/>
			<path d="M65.7,53.2c-0.9,0.4-1.7,0.8-2.7,1.1l-2.8,1c-1.7,0.5-3.3,1.1-4.9,1.8V46.9c2.5-1.1,4.9-2.2,7.3-3.6
				c2.2-1.1,4.3-2.5,6.1-4.3h10.7v71.7H65.7V53.2z"/>
			<path d="M65.3,52.8c-0.9,0.4-1.7,0.8-2.7,1.1l-2.8,1c-1.7,0.5-3.3,1.1-4.8,1.8V46.5c2.5-1.1,4.9-2.3,7.3-3.6
				c2.2-1.1,4.3-2.5,6.1-4.3h10.7v71.7H65.4L65.3,52.8z"/>
			<path d="M64.9,52.4c-0.9,0.4-1.7,0.8-2.7,1.1l-2.8,1c-1.7,0.5-3.3,1.1-4.9,1.8V46.1c2.5-1.1,4.9-2.3,7.3-3.6
				c2.2-1.1,4.3-2.5,6.1-4.3h10.7V110H64.9V52.4z"/>
			<path d="M64.5,52c-0.9,0.4-1.7,0.8-2.7,1.1l-2.9,1c-1.7,0.5-3.3,1.1-4.9,1.8V45.7c2.5-1.1,4.9-2.3,7.3-3.6
				c2.2-1.1,4.3-2.5,6.1-4.3h10.7v71.7H64.5L64.5,52z"/>
			<path d="M64.1,51.6c-0.9,0.4-1.7,0.8-2.7,1.1l-2.8,1c-1.7,0.5-3.3,1.1-4.9,1.8V45.3c2.5-1.1,4.9-2.2,7.3-3.6
				c2.2-1.1,4.3-2.5,6.1-4.3h10.7v71.7H64.1L64.1,51.6z"/>
			<path d="M63.7,51.2c-0.9,0.4-1.8,0.8-2.7,1.1l-2.8,1c-1.6,0.5-3.3,1-4.8,1.7V44.9c2.5-1.1,4.9-2.3,7.3-3.6
				c2.2-1.1,4.3-2.6,6.1-4.3h10.7v71.7H63.7L63.7,51.2z"/>
			<path d="M63.3,50.8c-0.9,0.4-1.7,0.8-2.7,1.1l-2.8,1c-1.7,0.5-3.3,1.1-4.9,1.8V44.5c2.5-1.1,4.9-2.2,7.3-3.6
				c2.2-1.1,4.3-2.5,6.1-4.3H77v71.7H63.3L63.3,50.8z"/>
			<path d="M62.9,50.4c-0.9,0.4-1.7,0.8-2.7,1.1l-2.8,1c-1.7,0.5-3.3,1.1-4.9,1.8V44c2.5-1.1,4.9-2.2,7.3-3.6
				c2.2-1.1,4.3-2.5,6.1-4.3h10.7v71.7H62.9L62.9,50.4z"/>
			<path d="M62.5,50c-0.9,0.4-1.7,0.8-2.7,1.1l-2.8,1c-1.7,0.5-3.3,1.1-4.9,1.8V43.6c2.5-1.1,4.9-2.2,7.3-3.6
				c2.2-1.1,4.3-2.5,6.1-4.3h10.7v71.7H62.5V50z"/>
			<path d="M62.1,49.5c-0.9,0.4-1.7,0.8-2.7,1.1c-1.2,0.4-2.2,0.8-2.8,1c-1.7,0.5-3.3,1.1-4.9,1.8V43.2c2.5-1.1,4.9-2.2,7.3-3.6
				c2.2-1.1,4.3-2.5,6.1-4.3h10.7v71.7H62.1L62.1,49.5z"/>
			<path d="M61.7,49.1c-0.9,0.4-1.7,0.8-2.7,1.1l-2.8,1c-1.7,0.5-3.3,1.1-4.9,1.8V42.8c2.5-1.1,4.9-2.2,7.3-3.6
				c2.2-1.1,4.3-2.5,6.1-4.2h10.7v71.7H61.7V49.1z"/>
			<path d="M61.2,48.7c-0.9,0.4-1.7,0.8-2.7,1.1l-2.8,1c-1.7,0.5-3.3,1.1-4.9,1.8V42.4c2.5-1.1,4.9-2.2,7.3-3.6
				c2.2-1.1,4.3-2.5,6.1-4.3l10.8,0v71.7H61.3L61.2,48.7z"/>
		</g>
		<path class="st1" d="M77.2,106.4H61.1v-57L60,49.9l-2.8,1c-1.6,0.5-3.2,1-4.7,1.7l-1.7,0.9V40.5l0.7-0.3c2.5-1,4.9-2.2,7.2-3.5
			c2.1-1,4-2.4,5.8-4l0.3-0.4h12.4V106.4z M63.5,104h11.4V34.7h-9c-1.8,1.6-3.8,3-6,4.1c-2.6,1.4-4.8,2.5-6.7,3.3v7.6
			c0.8-0.3,1.8-0.6,3.3-1.1l2.8-1c0.8-0.3,1.7-0.6,2.5-1l1.8-1L63.5,104z"/>
		<path class="st1" d="M77.8,105.8H61.7v-57l-1.1,0.4l-2.8,1c-1.6,0.5-3.2,1-4.7,1.7l-1.7,0.9V40l0.7-0.3c2.5-1,4.9-2.2,7.2-3.5
			c2.1-1,4-2.4,5.8-4l0.3-0.4h12.4L77.8,105.8z M64.1,103.4h11.4V34.1h-9c-1.8,1.6-3.8,3-6,4.1c-2.6,1.4-4.8,2.5-6.7,3.3v7.6
			c0.8-0.3,1.8-0.6,3.3-1.1l2.8-1c0.8-0.3,1.7-0.6,2.5-1l1.7-1L64.1,103.4z"/>
		<path class="st1" d="M78.4,105.2H62.3v-57l-1.1,0.4l-2.8,1c-1.6,0.4-3.2,1-4.7,1.7L52,52.3V39.4l0.7-0.3c2.5-1,4.9-2.2,7.2-3.5
			c2.1-1,4-2.4,5.8-4l0.3-0.4h12.4L78.4,105.2z M64.7,102.8H76V33.5h-9c-1.8,1.6-3.8,3-6,4.1c-2.6,1.3-4.8,2.5-6.7,3.3v7.6
			c0.8-0.3,1.8-0.6,3.3-1.1l2.8-1c0.8-0.3,1.7-0.6,2.5-1l1.8-1L64.7,102.8z"/>
		<path class="st1" d="M79,104.6H62.9v-57l-1.1,0.4l-2.8,1c-1.6,0.4-3.2,1-4.7,1.7l-1.7,0.9V38.8l0.7-0.3c2.4-1,4.8-2.2,7.2-3.5
			c2.1-1,4.1-2.4,5.8-4l0.3-0.4H79L79,104.6z M65.3,102.2h11.4V32.9h-9c-1.8,1.6-3.8,3-6,4.1c-2.6,1.4-4.8,2.5-6.7,3.3V48
			c0.8-0.3,1.8-0.6,3.3-1.1l2.8-1c0.9-0.3,1.7-0.6,2.5-1l1.7-1L65.3,102.2z"/>
		<path class="st1" d="M79.6,104.1H63.5V47.1l-1.1,0.4l-2.8,1c-1.6,0.4-3.2,1-4.7,1.7l-1.7,0.9V38.2l0.7-0.3c2.4-1,4.8-2.2,7.1-3.5
			c2.1-1,4.1-2.4,5.8-4l0.3-0.4h12.4L79.6,104.1z M65.8,101.7h11.4V32.3h-9c-1.8,1.6-3.8,3-6,4.1c-2.5,1.4-4.8,2.5-6.7,3.3v7.6
			c0.8-0.3,1.8-0.6,3.3-1.1l2.8-1c0.9-0.3,1.7-0.6,2.5-1l1.7-1L65.8,101.7z"/>
		<path class="st1" d="M80.1,103.5H64.1V46.5L63,46.9l-2.8,1c-1.6,0.4-3.2,1-4.7,1.7l-1.7,0.9V37.6l0.7-0.3c2.5-1,4.8-2.2,7.2-3.5
			c2.1-1,4.1-2.4,5.8-4l0.3-0.4h12.4V103.5z M66.4,101.1h11.4V31.8h-9c-1.8,1.6-3.8,3-6,4.1c-2.5,1.4-4.8,2.5-6.7,3.3v7.6
			c0.8-0.3,1.8-0.6,3.3-1.1l2.8-1c0.9-0.3,1.7-0.6,2.5-1l1.7-1L66.4,101.1z"/>
		<path class="st1" d="M80.7,102.9H64.7V45.9l-1.1,0.4l-2.8,1c-1.6,0.4-3.2,1-4.8,1.7l-1.7,1V37l0.7-0.3c2.5-1,4.9-2.2,7.2-3.5
			c2.1-1,4.1-2.4,5.8-4l0.3-0.4h12.4V102.9z M67,100.5h11.4V31.2h-9c-1.8,1.6-3.8,3-6,4.1c-2.5,1.4-4.8,2.5-6.7,3.3v7.6
			c0.8-0.3,1.8-0.6,3.3-1.1l2.8-1c0.9-0.3,1.7-0.6,2.5-1l1.7-1L67,100.5z"/>
		<path class="st1" d="M81.3,102.3l-16.1-0.1V45.3l-1.1,0.4l-2.8,1c-1.6,0.4-3.2,1-4.7,1.7l-1.7,0.9V36.4l0.7-0.3
			c2.5-1,4.9-2.2,7.2-3.5c2.1-1,4.1-2.4,5.8-4l0.3-0.4h12.4V102.3z M67.6,99.9H79V30.6h-9c-1.8,1.6-3.8,3-6,4.1
			c-2.5,1.4-4.8,2.5-6.7,3.3v7.6c0.8-0.3,1.8-0.6,3.3-1.1l2.8-1c0.8-0.3,1.7-0.6,2.5-1l1.7-1L67.6,99.9z"/>
		<path class="st1" d="M81.9,101.7H65.8V44.8l-1.1,0.4l-2.8,1c-1.6,0.4-3.2,1-4.7,1.7l-1.7,0.9V35.8l0.7-0.3c2.5-1,4.9-2.2,7.2-3.5
			c2.1-1,4.1-2.4,5.8-4l0.4-0.4h12.4V101.7z M68.2,99.3h11.4V30h-9c-1.8,1.6-3.8,3-6,4.1c-2.6,1.4-4.8,2.5-6.7,3.3v7.6
			c0.8-0.3,1.8-0.6,3.3-1.1l2.8-1c0.8-0.3,1.7-0.6,2.5-1l1.8-1L68.2,99.3z"/>
		<path class="st1" d="M82.5,101.1H66.4v-57l-1.1,0.4l-2.8,1c-1.6,0.4-3.2,1-4.7,1.7l-1.7,0.9V35.2l0.7-0.3c2.5-1,4.9-2.2,7.2-3.5
			c2.1-1,4.1-2.4,5.8-4l0.3-0.4h12.4L82.5,101.1z M68.8,98.7h11.4V29.4h-9c-1.8,1.6-3.8,3-6,4.1c-2.6,1.4-4.8,2.5-6.7,3.3v7.6
			c0.8-0.3,1.8-0.6,3.3-1.1l2.8-1c0.8-0.3,1.7-0.6,2.5-1l1.8-1L68.8,98.7z"/>
		<path class="st1" d="M83.1,100.5H67V43.6L65.9,44l-2.8,1c-1.6,0.4-3.2,1-4.7,1.7l-1.7,0.9V34.7l0.7-0.3c2.5-1,4.9-2.2,7.2-3.5
			c2.1-1,4.1-2.4,5.8-4l0.3-0.4h12.4V100.5z M69.4,98.1h11.4V28.8h-9c-1.8,1.6-3.8,3-6,4.1c-2.6,1.4-4.8,2.5-6.7,3.3v7.6
			c0.8-0.3,1.8-0.6,3.3-1.1l2.8-1c0.8-0.3,1.7-0.6,2.5-1l1.8-1L69.4,98.1z"/>
		<path class="st2" d="M68.2,41.8c-0.9,0.4-1.7,0.8-2.7,1.1l-2.8,1c-1.7,0.5-3.3,1.1-4.9,1.8V35.5c2.5-1.1,4.9-2.2,7.3-3.6
			c2.2-1.1,4.3-2.5,6.1-4.3h10.7v71.7H68.2L68.2,41.8z"/>
	</g>
</g>
</svg>
