<?xml version="1.0" encoding="utf-8"?>
<!-- Generator: Adobe Illustrator 25.2.0, SVG Export Plug-In . SVG Version: 6.00 Build 0)  -->
<svg version="1.1" id="Layer_1" xmlns="http://www.w3.org/2000/svg" xmlns:xlink="http://www.w3.org/1999/xlink" x="0px" y="0px"
	 viewBox="0 0 138 145" style="enable-background:new 0 0 138 145;" xml:space="preserve">
<style type="text/css">
	.st0{opacity:0.2;}
	.st1{fill:#003C3A;}
	.st2{fill:#FFFFFF;}
</style>
<g>
	<g id="Layer_1_1_">
		<g class="st0">
			<path d="M55.9,109.3l17.4-26.8l1.3-2c1.8-2.6,3.3-5.4,4.7-8.3C80.5,70,81,67.5,81,65c0.1-1.9-0.3-3.7-1.3-5.3
				c-0.9-1.2-2.4-1.9-3.9-1.8c-2.1-0.2-4.1,0.9-5,2.8c-1.1,2.5-1.5,5.1-1.4,7.8v3.3H56v-3.6c0-6.7,1.6-12.1,4.7-16
				c3.2-3.9,8.1-5.9,14.8-5.8c6.2,0,10.9,1.7,14.2,5c3.2,3.3,4.9,8,4.9,14c0.1,3.4-0.6,6.8-2,9.9c-1.9,3.7-4.1,7.4-6.5,10.8l-1,1.5
				l-13.8,20.7l21.2,0.1V119l-36.6-0.1V109.3z"/>
			<path d="M55.5,108.8l17.4-26.8l1.3-2c1.8-2.7,3.3-5.4,4.8-8.3c1-2.3,1.6-4.7,1.6-7.2c0.1-1.9-0.3-3.7-1.3-5.3
				c-0.9-1.2-2.4-1.9-3.9-1.8c-2.1-0.2-4.1,1-5,2.8c-1.1,2.5-1.5,5.1-1.4,7.8v3.3H55.5v-3.6c0-6.7,1.6-12.1,4.7-16
				c3.2-3.9,8.1-5.9,14.8-5.8c6.2,0,10.9,1.7,14.2,5c3.3,3.3,4.9,8,4.9,13.9c0.1,3.4-0.6,6.8-2,9.9c-1.9,3.8-4,7.4-6.4,10.8l-1,1.5
				l-13.8,20.6l21.2,0.1v10.8l-36.6-0.1L55.5,108.8z"/>
			<path d="M55.1,108.4l17.4-26.8l1.3-2c1.8-2.6,3.3-5.4,4.7-8.3c1-2.3,1.6-4.7,1.6-7.2c0.1-1.9-0.3-3.7-1.3-5.3
				c-0.9-1.2-2.4-1.9-3.9-1.8c-2.1-0.2-4.1,1-5,2.8c-1.1,2.5-1.5,5.1-1.4,7.8V71H55.1v-3.6c0-6.7,1.6-12.1,4.7-16
				c3.2-3.9,8.1-5.9,14.8-5.8c6.2,0,10.9,1.7,14.2,5c3.2,3.3,4.9,8,4.9,14c0.1,3.4-0.6,6.8-2,9.9c-1.8,3.8-4,7.4-6.4,10.8l-1,1.5
				l-13.9,20.6l21.2,0.1v10.8l-36.6-0.1V108.4z"/>
			<path d="M54.7,108l17.4-26.7l1.3-2c1.8-2.7,3.3-5.4,4.7-8.3c1-2.3,1.6-4.7,1.6-7.2c0.1-1.9-0.3-3.7-1.3-5.3
				c-0.9-1.2-2.4-1.9-3.9-1.8c-2.1-0.2-4.1,1-5,2.8c-1.1,2.4-1.6,5.1-1.5,7.8v3.3H54.6V67c0-6.7,1.6-12.1,4.7-16
				c3.2-3.9,8.1-5.9,14.8-5.8c6.2,0,10.9,1.7,14.2,5c3.2,3.3,4.9,8,4.9,14c0.1,3.4-0.6,6.8-2,9.9c-1.8,3.8-4,7.4-6.4,10.8l-1,1.5
				l-13.8,20.6l21.2,0.1v10.8l-36.6-0.1V108z"/>
			<path d="M54.3,107.6l17.4-26.8l1.3-2c1.8-2.6,3.3-5.4,4.7-8.3c1-2.3,1.6-4.7,1.6-7.2c0.1-1.9-0.3-3.7-1.3-5.3
				c-0.9-1.2-2.4-1.9-3.9-1.8c-2.1-0.2-4.1,0.9-5,2.8c-1.1,2.5-1.5,5.1-1.4,7.8v3.3H54.3v-3.6c0-6.7,1.6-12.1,4.7-16
				s8.1-5.9,14.8-5.8c6.2,0,10.9,1.7,14.2,5c3.2,3.3,4.9,8,4.9,14c0.1,3.4-0.6,6.8-2,9.9c-1.9,3.8-4,7.4-6.4,10.8l-1,1.5l-13.9,20.6
				l21.2,0.1v10.8l-36.7-0.1L54.3,107.6z"/>
			<path d="M53.8,107.2l17.4-26.8l1.3-2c1.8-2.7,3.3-5.4,4.7-8.3c1-2.3,1.6-4.7,1.6-7.2c0.1-1.9-0.3-3.7-1.3-5.3
				c-0.9-1.2-2.4-1.9-3.9-1.8c-2.1-0.2-4.1,0.9-5.1,2.8c-1.1,2.5-1.5,5.1-1.4,7.8v3.3H53.9v-3.6c0-6.7,1.6-12.1,4.7-16
				c3.2-3.9,8.1-5.9,14.8-5.8c6.2,0,10.9,1.7,14.2,5s4.9,8,4.9,14c0.1,3.4-0.6,6.8-2,9.9c-1.9,3.8-4,7.4-6.4,10.8l-1,1.5l-13.8,20.7
				l21.2,0.1V117l-36.7-0.1V107.2z"/>
			<path d="M53.4,106.8L70.9,80l1.3-2c1.8-2.7,3.3-5.4,4.7-8.3c1-2.3,1.6-4.7,1.6-7.2c0.1-1.9-0.3-3.7-1.3-5.3
				c-0.9-1.2-2.4-1.9-3.9-1.8c-2.1-0.2-4.1,0.9-5,2.8c-1.1,2.4-1.6,5.1-1.5,7.8v3.3H53.4v-3.5c0-6.7,1.6-12.1,4.7-16
				s8.1-5.9,14.8-5.8c6.2,0,10.9,1.7,14.2,5c3.2,3.3,4.9,8,4.9,14c0.1,3.4-0.6,6.8-2,9.9c-1.8,3.8-4,7.4-6.4,10.8l-1,1.5l-13.8,20.6
				l21.2,0.1v10.8l-36.7-0.1L53.4,106.8z"/>
			<path d="M53,106.4l17.5-26.8l1.3-2c1.8-2.6,3.3-5.4,4.7-8.3c1-2.3,1.6-4.7,1.6-7.2c0.1-1.9-0.3-3.7-1.3-5.3
				c-0.9-1.3-2.4-2-3.9-1.9c-2.1-0.2-4.1,0.9-5,2.8c-1.1,2.5-1.5,5.1-1.4,7.8v3.3l-13.4,0v-3.5c0-6.7,1.6-12.1,4.7-16
				c3.2-3.9,8.1-5.9,14.8-5.8c6.2,0,10.9,1.7,14.2,5c3.2,3.3,4.9,8,4.9,14c0.1,3.4-0.6,6.8-2,9.9c-1.8,3.8-4,7.4-6.4,10.8l-1,1.5
				l-13.8,20.7l21.2,0.1v10.8L53,116.1V106.4z"/>
			<path d="M52.6,106l17.4-26.8l1.3-2c1.8-2.6,3.3-5.4,4.7-8.3c1-2.3,1.6-4.7,1.6-7.2c0.1-1.9-0.3-3.7-1.3-5.3
				c-0.9-1.2-2.4-1.9-3.9-1.8c-2.1-0.2-4.1,0.9-5,2.8c-1.1,2.4-1.6,5.1-1.5,7.8v3.3H52.6v-3.6c0-6.7,1.6-12.1,4.7-16
				s8.1-5.9,14.8-5.8c6.2,0,10.9,1.7,14.2,5c3.2,3.3,4.9,8,4.9,14c0.1,3.4-0.6,6.8-2,9.9c-1.8,3.8-4,7.4-6.4,10.8l-1,1.5L68,104.9
				l21.2,0.1v10.8l-36.7-0.1L52.6,106z"/>
			<path d="M52.2,105.6l17.4-26.8l1.3-2c1.8-2.6,3.3-5.4,4.7-8.3c1-2.3,1.6-4.7,1.6-7.2c0.1-1.9-0.3-3.7-1.3-5.3
				c-0.9-1.2-2.4-1.9-3.9-1.8c-2.1-0.2-4.1,0.9-5,2.8c-1.1,2.5-1.5,5.1-1.4,7.8v3.3H52.2v-3.5c0-6.7,1.6-12.1,4.7-16
				c3.2-3.9,8.1-5.9,14.8-5.8c6.2,0,10.9,1.7,14.2,5c3.2,3.3,4.9,8,4.9,14c0.1,3.4-0.6,6.8-2,9.9c-1.9,3.7-4,7.3-6.4,10.7l-1,1.5
				l-13.8,20.7l21.2,0.1v10.8l-36.7-0.1V105.6z"/>
			<path d="M51.8,105.2l17.4-26.8l1.3-2c1.8-2.6,3.3-5.4,4.7-8.3c1-2.3,1.6-4.7,1.6-7.2c0.1-1.9-0.3-3.7-1.3-5.3
				c-0.9-1.2-2.4-1.9-3.9-1.8c-2.1-0.2-4.1,0.9-5,2.8c-1.1,2.5-1.5,5.1-1.4,7.8v3.3H51.8v-3.6c0-6.7,1.6-12.1,4.7-16
				s8.1-5.9,14.8-5.8c6.2,0,10.9,1.7,14.2,5s4.9,8,4.9,14c0.1,3.4-0.6,6.8-2,9.9c-1.9,3.7-4,7.3-6.4,10.8l-1,1.5l-13.8,20.7
				l21.2,0.1v10.8l-36.7-0.1L51.8,105.2z"/>
			<path d="M51.4,104.8L68.8,78l1.3-2c1.8-2.7,3.3-5.4,4.7-8.3c1-2.3,1.6-4.7,1.6-7.2c0.1-1.9-0.3-3.7-1.3-5.3
				c-0.9-1.2-2.4-1.9-3.9-1.8c-2.1-0.2-4.1,0.9-5,2.8c-1.1,2.5-1.6,5.1-1.5,7.8v3.3H51.4v-3.6c0-6.7,1.6-12.1,4.7-16
				c3.2-3.9,8.1-5.9,14.9-5.8c6.2,0,10.9,1.7,14.2,5c3.2,3.3,4.9,8,4.8,13.9c0.1,3.4-0.6,6.8-2,9.9c-1.9,3.8-4,7.4-6.4,10.8l-1,1.5
				l-13.8,20.7l21.2,0.1v10.8l-36.6-0.1V104.8z"/>
			<path d="M51,104.4l17.4-26.8l1.3-2c1.8-2.6,3.3-5.4,4.7-8.3c1-2.3,1.5-4.7,1.5-7.2c0.1-1.9-0.3-3.7-1.3-5.3
				c-0.9-1.2-2.4-1.9-3.9-1.8c-2.1-0.2-4.1,1-5,2.8c-1.1,2.5-1.5,5.1-1.4,7.8v3.3L51,66.8v-3.5c0-6.7,1.6-12.1,4.7-16
				c3.2-3.9,8.1-5.9,14.8-5.8c6.2,0,10.9,1.7,14.2,5c3.3,3.3,4.9,8,4.9,14c0.1,3.4-0.6,6.8-2,9.9c-1.8,3.8-4,7.4-6.4,10.8l-1,1.5
				l-13.8,20.6l21.2,0.1v10.8L51,114V104.4z"/>
			<path d="M50.6,104L68,77.2l1.3-2c1.8-2.6,3.3-5.4,4.7-8.3c1-2.3,1.6-4.7,1.6-7.2c0.1-1.9-0.3-3.7-1.3-5.3
				c-0.9-1.2-2.4-1.9-3.9-1.8c-2.1-0.2-4.1,1-5,2.8c-1.1,2.5-1.5,5.1-1.4,7.8v3.3H50.6v-3.6c0-6.7,1.6-12.1,4.7-16
				c3.2-3.9,8.1-5.9,14.8-5.8c6.2,0,10.9,1.7,14.2,5s4.9,8,4.9,14c0.1,3.4-0.6,6.8-2,9.9c-1.8,3.8-4,7.4-6.4,10.8l-1,1.5L66,102.8
				l21.2,0.1v10.8l-36.6-0.1L50.6,104z"/>
			<path d="M50.2,103.5l17.4-26.8l1.3-2c1.8-2.6,3.3-5.4,4.7-8.3c1-2.3,1.6-4.7,1.6-7.2c0.1-1.9-0.3-3.7-1.3-5.3
				c-0.9-1.2-2.4-1.9-3.9-1.8c-2.1-0.2-4.1,1-5,2.8c-1.1,2.5-1.5,5.1-1.4,7.8V66H50.2v-3.5c0-6.7,1.6-12.1,4.7-16
				c3.2-3.9,8.1-5.9,14.8-5.8c6.2,0,10.9,1.7,14.2,5c3.2,3.3,4.9,8,4.9,14c0.1,3.4-0.6,6.8-2,9.9c-1.9,3.8-4,7.4-6.4,10.8l-1,1.5
				l-13.8,20.6l21.2,0.1v10.8l-36.6-0.1V103.5z"/>
			<path d="M49.8,103.1l17.4-26.8l1.3-2c1.8-2.7,3.3-5.4,4.7-8.3c1-2.3,1.6-4.7,1.6-7.2c0.1-1.9-0.3-3.7-1.3-5.3
				c-0.9-1.2-2.4-1.9-3.9-1.8c-2.1-0.2-4.1,0.9-5,2.8c-1.1,2.5-1.5,5.1-1.4,7.8v3.3H49.8v-3.6c0-6.7,1.6-12.1,4.7-16
				c3.2-3.9,8.1-5.9,14.8-5.8c6.2,0,10.9,1.7,14.2,5s4.9,8,4.9,14c0.1,3.4-0.6,6.8-2,9.9c-1.9,3.8-4,7.4-6.4,10.8l-1,1.5L65.2,102
				l21.2,0.1v10.8l-36.7-0.1L49.8,103.1z"/>
			<path d="M49.3,102.7L66.8,76l1.3-2c1.8-2.7,3.3-5.4,4.7-8.3c1-2.3,1.6-4.7,1.6-7.2c0.1-1.9-0.3-3.7-1.3-5.3
				c-0.9-1.2-2.4-1.9-3.9-1.8c-2.1-0.2-4.1,0.9-5.1,2.8c-1,2.4-1.5,5.1-1.4,7.8v3.3H49.4v-3.6c0-6.7,1.6-12.1,4.7-16
				s8.1-5.9,14.8-5.8c6.2,0,10.9,1.7,14.2,5c3.2,3.3,4.9,8,4.9,14c0.1,3.4-0.6,6.8-2,9.9c-1.8,3.8-4,7.4-6.4,10.8l-1,1.5l-13.8,20.7
				l21.2,0.1v10.8l-36.7-0.1V102.7z"/>
			<path d="M48.9,102.3l17.4-26.8l1.3-2c1.8-2.7,3.3-5.4,4.7-8.3C73.5,63,74,60.5,74,58c0.1-1.9-0.3-3.7-1.3-5.3
				c-0.9-1.2-2.4-1.9-3.9-1.8c-2.1-0.2-4.1,0.9-5,2.8c-1.1,2.5-1.5,5.1-1.4,7.8v3.3H49v-3.5c0-6.7,1.6-12.1,4.7-16
				c3.2-3.9,8.1-5.9,14.8-5.8c6.2,0,10.9,1.7,14.2,5c3.2,3.3,4.9,8,4.9,14c0.1,3.4-0.6,6.8-2,9.9c-1.9,3.7-4,7.3-6.4,10.7l-1,1.5
				l-13.8,20.7l21.2,0.1v10.8L48.9,112V102.3z"/>
			<path d="M48.5,101.9L66,75.1l1.3-2c1.7-2.7,3.3-5.4,4.7-8.3c1-2.3,1.6-4.7,1.6-7.2c0.1-1.9-0.3-3.7-1.3-5.3
				c-0.9-1.2-2.4-1.9-3.9-1.8c-2.1-0.2-4.1,0.9-5,2.8c-1.1,2.5-1.5,5.1-1.4,7.8v3.3H48.6v-3.6c0-6.7,1.6-12.1,4.7-16
				c3.2-3.9,8.1-5.9,14.8-5.8c6.2,0,10.9,1.6,14.2,5c3.2,3.3,4.9,8,4.9,14c0.1,3.4-0.6,6.8-2,9.9c-1.8,3.8-4,7.4-6.4,10.8l-1,1.5
				l-13.8,20.7l21.2,0.1v10.8l-36.7-0.1V101.9z"/>
			<path d="M48.1,101.5l17.4-26.8l1.3-2c1.8-2.6,3.3-5.4,4.7-8.3c1-2.3,1.6-4.7,1.6-7.2c0.1-1.8-0.3-3.7-1.3-5.2
				c-0.9-1.2-2.3-1.9-3.8-1.9c-2.1-0.2-4.1,0.9-5,2.8c-1.1,2.5-1.5,5.1-1.4,7.8V64H48.1v-3.6c0-6.7,1.6-12.1,4.7-16
				s8.1-5.9,14.8-5.8c6.2,0,10.9,1.7,14.2,5c3.2,3.3,4.9,8,4.9,14c0.1,3.4-0.6,6.8-2,9.9c-1.9,3.8-4,7.4-6.4,10.8l-1,1.5l-13.8,20.6
				l21.3,0.1v10.8l-36.7-0.1L48.1,101.5z"/>
			<path d="M47.7,101.1l17.4-26.8l1.3-2c1.8-2.7,3.3-5.4,4.7-8.3c1-2.3,1.6-4.7,1.6-7.2c0.1-1.9-0.3-3.7-1.3-5.3
				c-0.9-1.2-2.4-1.9-3.9-1.8c-2.1-0.2-4.1,0.9-5,2.8c-1.1,2.5-1.5,5.1-1.4,7.8v3.3H47.8V60c0-6.7,1.6-12.1,4.7-16s8.1-5.9,14.8-5.8
				c6.2,0,10.9,1.7,14.2,5c3.3,3.3,4.9,8,4.9,14c0.1,3.4-0.6,6.8-2,9.9c-1.9,3.7-4,7.3-6.4,10.7l-1,1.5L63.1,100l21.2,0.1v10.8
				l-36.7-0.1V101.1z"/>
			<path d="M47.3,100.7l17.4-26.8l1.3-2c1.8-2.6,3.3-5.4,4.7-8.3c1.1-2.3,1.6-4.7,1.6-7.2c0.1-1.9-0.4-3.7-1.4-5.3
				c-0.9-1.2-2.4-1.9-3.9-1.8c-2.1-0.2-4.1,0.9-5,2.8c-1.1,2.5-1.5,5.1-1.4,7.8v3.3H47.3v-3.6c0-6.7,1.6-12.1,4.7-16
				c3.2-3.9,8.1-5.9,14.8-5.8c6.2,0,10.9,1.7,14.2,5c3.3,3.3,4.9,8,4.9,14c0.1,3.4-0.6,6.8-2,9.9c-1.9,3.8-4,7.4-6.4,10.8l-1,1.5
				L62.7,99.6L84,99.6v10.8l-36.6-0.1L47.3,100.7z"/>
			<path d="M46.9,100.3l17.4-26.8l1.3-2c1.8-2.7,3.3-5.4,4.7-8.3c1.1-2.3,1.6-4.7,1.6-7.2c0.1-1.9-0.3-3.7-1.3-5.3
				c-0.9-1.2-2.4-1.9-3.9-1.8c-2.1-0.2-4.1,1-5,2.8c-1.1,2.5-1.5,5.1-1.4,7.8v3.3H47v-3.6c0-6.7,1.6-12.1,4.7-16
				c3.2-3.9,8.1-5.9,14.8-5.8c6.2,0,10.9,1.7,14.2,5s4.9,8,4.9,14c0.1,3.4-0.6,6.8-2,9.9c-1.9,3.8-4.1,7.4-6.5,10.8l-1,1.5
				L62.3,99.2l21.2,0.1V110l-36.6-0.1V100.3z"/>
			<path d="M46.5,99.9l17.4-26.8l1.3-2c1.8-2.7,3.3-5.4,4.8-8.3c1-2.3,1.6-4.7,1.6-7.2c0.1-1.9-0.3-3.7-1.3-5.3
				c-0.9-1.2-2.4-1.9-3.9-1.8c-2.1-0.2-4.1,1-5,2.8c-1.1,2.5-1.5,5.1-1.4,7.8v3.3H46.5v-3.6c0-6.7,1.6-12.1,4.7-16
				c3.2-3.9,8.1-5.9,14.8-5.8c6.2,0,10.9,1.7,14.2,5s4.9,8,4.9,14c0.1,3.4-0.6,6.8-2,9.9c-1.8,3.8-4,7.4-6.4,10.8l-1,1.5L61.9,98.8
				l21.2,0.1v10.8l-36.6-0.1L46.5,99.9z"/>
			<path d="M46.1,99.4l17.4-26.8l1.3-2c1.8-2.6,3.3-5.4,4.7-8.3c1-2.3,1.6-4.7,1.6-7.2c0.1-1.9-0.3-3.7-1.3-5.3
				c-0.9-1.2-2.4-1.9-3.9-1.8c-2.1-0.2-4.1,1-5,2.8c-1.1,2.5-1.5,5.1-1.4,7.8V62H46.1v-3.6c0-6.7,1.6-12.1,4.7-16
				c3.2-3.9,8.1-5.9,14.8-5.8c6.2,0,10.9,1.7,14.2,5s4.9,8,4.9,14c0.1,3.4-0.6,6.8-2,9.9c-1.9,3.8-4,7.4-6.4,10.8l-1,1.5L61.5,98.3
				l21.2,0.1v10.8l-36.6-0.1V99.4z"/>
			<path d="M45.7,99l17.4-26.7l1.3-2c1.8-2.6,3.3-5.4,4.7-8.3c1-2.3,1.6-4.7,1.6-7.2c0.1-1.9-0.3-3.7-1.3-5.3
				c-0.9-1.2-2.4-1.9-3.9-1.8c-2.1-0.2-4.1,0.9-5,2.8c-1.1,2.4-1.6,5.1-1.5,7.8v3.3H45.6V58c0-6.7,1.6-12.1,4.7-16s8.1-5.9,14.8-5.8
				c6.2,0,10.9,1.7,14.2,5c3.2,3.3,4.9,8,4.9,14c0.1,3.4-0.6,6.8-2,9.9c-1.9,3.8-4,7.4-6.4,10.8l-1,1.5L61.1,97.9L82.3,98v10.8
				l-36.7-0.1V99z"/>
			<path d="M45.3,98.6l17.4-26.8l1.3-2c1.8-2.7,3.3-5.4,4.7-8.3c1-2.3,1.6-4.7,1.6-7.2c0.1-1.9-0.3-3.7-1.3-5.3
				c-0.9-1.2-2.4-1.9-3.9-1.8C63,47,61,48.2,60,50.1c-1.1,2.5-1.5,5.1-1.4,7.8v3.3H45.2v-3.6c0-6.7,1.6-12.1,4.7-16
				c3.2-3.9,8.1-5.9,14.8-5.8c6.2,0,10.9,1.7,14.2,5s4.9,8,4.9,14c0.1,3.4-0.6,6.8-2,9.9c-1.8,3.8-4,7.4-6.4,10.8l-1,1.5L60.7,97.5
				l21.3,0.1v10.8l-36.7-0.1L45.3,98.6z"/>
			<path d="M44.8,98.2l17.4-26.8l1.3-2c1.8-2.7,3.3-5.4,4.7-8.3c1-2.3,1.6-4.7,1.6-7.2c0.1-1.9-0.3-3.7-1.3-5.3
				c-0.9-1.2-2.4-1.9-3.9-1.8c-2.1-0.2-4.1,0.9-5,2.8c-1.1,2.5-1.5,5.1-1.4,7.8v3.3H44.9v-3.6c0-6.7,1.6-12.1,4.7-16
				s8.1-5.9,14.8-5.8c6.2,0,10.9,1.7,14.2,5c3.2,3.3,4.9,8,4.9,14c0.1,3.4-0.6,6.8-2,9.9c-1.9,3.8-4,7.4-6.4,10.8l-1,1.5L60.2,97.1
				l21.2,0.1V108l-36.7-0.1V98.2z"/>
			<path d="M44.4,97.8L61.9,71l1.3-2c1.8-2.6,3.3-5.4,4.7-8.3c1-2.3,1.6-4.7,1.6-7.2c0.1-1.9-0.3-3.7-1.3-5.3
				c-0.9-1.2-2.4-1.9-3.9-1.8c-2.1-0.2-4.1,0.9-5,2.8c-1.1,2.4-1.6,5.1-1.5,7.8v3.3H44.4v-3.5c0-6.7,1.6-12.1,4.7-16
				c3.2-3.9,8.1-5.9,14.8-5.8c6.2,0,10.9,1.7,14.2,5c3.2,3.3,4.9,8,4.9,14c0.1,3.4-0.6,6.8-2,9.9c-1.8,3.8-4,7.4-6.4,10.8l-1,1.5
				L59.8,96.7l21.2,0.1v10.8l-36.7-0.1L44.4,97.8z"/>
			<path d="M44,97.4l17.5-26.8l1.3-2c1.8-2.6,3.3-5.4,4.7-8.3c1-2.3,1.6-4.7,1.6-7.2c0.1-1.9-0.3-3.7-1.3-5.3
				c-0.9-1.2-2.4-2-3.9-1.9c-2.1-0.2-4.1,0.9-5,2.8c-1.1,2.5-1.5,5.1-1.4,7.8v3.3l-13.4,0v-3.5c0-6.7,1.6-12.1,4.7-16
				c3.2-3.9,8.1-5.9,14.8-5.8c6.2,0,10.9,1.7,14.2,5c3.2,3.3,4.9,8,4.9,14c0.1,3.4-0.6,6.8-2,9.9c-1.8,3.8-4,7.4-6.4,10.8l-1,1.5
				L59.4,96.3l21.2,0.1v10.8L44,107.1V97.4z"/>
			<path d="M43.6,97l17.4-26.8l1.3-2c1.8-2.6,3.3-5.4,4.7-8.3c1-2.3,1.6-4.7,1.6-7.2c0.1-1.9-0.3-3.7-1.3-5.3
				c-0.9-1.2-2.4-1.9-3.9-1.8c-2.1-0.2-4.1,0.9-5,2.8c-1.1,2.4-1.6,5.1-1.5,7.8v3.3H43.6v-3.6c0-6.7,1.6-12.1,4.7-16
				s8.1-5.9,14.8-5.8c6.2,0,10.9,1.7,14.2,5s4.9,8,4.9,14c0.1,3.4-0.6,6.8-2,9.9c-1.9,3.8-4,7.4-6.4,10.8l-1,1.5L59,95.9L80.3,96
				v10.8l-36.7-0.1L43.6,97z"/>
		</g>
		<path class="st1" d="M82.5,106.9l-39-0.1V95.6l19-29.1c1.7-2.6,3.3-5.3,4.7-8.1c1-2.1,1.5-4.4,1.4-6.7c0.1-1.6-0.3-3.2-1.1-4.6
			c-0.7-0.9-1.8-1.4-2.9-1.3l0,0c-1.7-0.2-3.2,0.7-4,2.2c-1,2.3-1.4,4.8-1.3,7.3v4.5H43.5v-4.8c0-7,1.7-12.6,5-16.7
			s8.6-6.3,15.7-6.3c6.5,0,11.5,1.8,15,5.3s5.2,8.5,5.2,14.8c0,3.6-0.7,7.1-2.2,10.4c-1.9,3.8-4,7.5-6.5,11l-1,1.5L62.3,93.7
			l20.2,0.1L82.5,106.9z M45.9,104.4l34.3,0.1v-8.5L57.9,96l16-24c2.4-3.4,4.5-7,6.3-10.7c1.3-2.9,2-6.1,1.9-9.3
			c0-5.7-1.5-10.1-4.5-13.1s-7.5-4.6-13.3-4.6h-0.1c-6.3,0-10.9,1.8-13.8,5.4s-4.5,8.8-4.5,15.2v2.4h11v-2.1
			c-0.1-2.9,0.4-5.7,1.5-8.3c1.1-2.3,3.5-3.7,6.1-3.5l0,0c1.9-0.1,3.7,0.8,4.8,2.3c1.1,1.8,1.7,3.9,1.6,6c0,2.7-0.5,5.3-1.7,7.7
			c-1.4,2.9-3,5.7-4.8,8.4L45.9,96.3V104.4z"/>
		<path class="st1" d="M83.1,106.3l-39-0.1V95l19-29.1c1.7-2.6,3.3-5.3,4.7-8.1c1-2.1,1.5-4.4,1.4-6.7c0.1-1.6-0.3-3.2-1.1-4.6
			c-0.7-0.9-1.8-1.4-3-1.3l0,0c-1.7-0.2-3.2,0.7-4,2.2c-1,2.3-1.4,4.8-1.3,7.3V59H44.1v-4.7c0-7,1.7-12.6,5-16.7s8.6-6.3,15.6-6.3
			h0.1c6.5,0,11.5,1.8,15,5.3S85,45.1,85,51.4c0.1,3.6-0.7,7.1-2.1,10.4c-1.9,3.8-4,7.5-6.5,11l-1,1.5L62.9,93.1l20.2,0.1V106.3z
			 M46.4,103.8l34.3,0.1v-8.4l-22.3-0.1l16-24c2.4-3.4,4.5-7,6.3-10.7c1.3-2.9,2-6.1,1.9-9.4c0-5.7-1.5-10.1-4.5-13.1
			s-7.5-4.6-13.3-4.6h-0.1c-6.3,0-10.9,1.8-13.8,5.4s-4.5,8.8-4.5,15.2v2.4h11v-2.1c-0.1-2.8,0.4-5.7,1.5-8.3
			c1.1-2.3,3.5-3.7,6.1-3.5l0,0c1.9-0.1,3.8,0.8,4.9,2.3c1.1,1.8,1.7,3.9,1.6,6c0,2.7-0.5,5.3-1.7,7.7c-1.4,2.9-3.1,5.7-4.9,8.4
			L46.5,95.7L46.4,103.8z"/>
		<path class="st1" d="M83.7,105.7l-39-0.1V94.4l19-29.1c1.7-2.6,3.3-5.3,4.7-8.1c1-2.1,1.5-4.4,1.4-6.7c0.1-1.6-0.3-3.2-1.1-4.6
			c-0.7-0.9-1.8-1.4-3-1.3l0,0c-1.7-0.2-3.2,0.7-4,2.2c-1,2.3-1.4,4.8-1.3,7.3v4.5H44.7v-4.8c0-7,1.7-12.6,5-16.7s8.6-6.3,15.6-6.3
			h0.1c6.5,0,11.5,1.8,15,5.3s5.2,8.5,5.2,14.8c0.1,3.6-0.7,7.1-2.1,10.4c-1.9,3.8-4,7.5-6.5,11l-1,1.5L63.5,92.5h20.2V105.7z
			 M47,103.2l34.3,0.1v-8.5L59,94.8l16-24c2.4-3.4,4.5-7,6.3-10.7c1.3-2.9,2-6.1,1.9-9.4c0-5.7-1.5-10.1-4.5-13.1S71.2,33,65.4,33
			h-0.1c-6.3,0-10.9,1.8-13.8,5.4S47,47.3,47,53.7V56h11v-2c-0.1-2.9,0.4-5.7,1.5-8.3c1.1-2.3,3.5-3.7,6.1-3.5l0,0
			c1.9-0.1,3.7,0.8,4.8,2.3c1.1,1.8,1.7,3.9,1.6,6c0,2.7-0.5,5.3-1.7,7.7c-1.4,2.9-3,5.7-4.8,8.4L47,95.1V103.2z"/>
		<path class="st1" d="M84.3,105.1l-39-0.1V93.8l19-29.1c1.7-2.6,3.3-5.3,4.7-8.1c1-2.1,1.5-4.4,1.4-6.7c0.1-1.6-0.3-3.2-1.1-4.6
			c-0.7-0.9-1.8-1.4-3-1.3l0,0c-1.7-0.2-3.2,0.7-4,2.2c-1,2.3-1.4,4.8-1.3,7.2v4.5l-15.7,0v-4.7c0-7,1.7-12.6,5-16.7
			s8.6-6.3,15.6-6.3H66c6.5,0,11.5,1.8,15,5.3s5.2,8.5,5.2,14.8c0.1,3.6-0.7,7.1-2.1,10.4c-1.9,3.8-4,7.5-6.5,11l-1,1.5L64.1,91.9
			L84.3,92V105.1z M47.6,102.6l34.3,0.1v-8.4l-22.3-0.1l16-24c2.4-3.4,4.5-7,6.3-10.7c1.3-2.9,2-6.1,1.9-9.4
			c0-5.7-1.5-10.1-4.5-13.1s-7.5-4.6-13.4-4.6h-0.1c-6.3,0-10.9,1.8-13.8,5.4s-4.5,8.8-4.5,15.2v2.4h11v-2.1
			c-0.1-2.9,0.4-5.7,1.5-8.3c1.1-2.3,3.5-3.7,6.1-3.5l0,0c1.9-0.1,3.7,0.8,4.8,2.3c1.1,1.8,1.7,3.9,1.6,6c0,2.7-0.5,5.3-1.6,7.7
			c-1.4,2.9-3,5.7-4.8,8.4L47.6,94.5L47.6,102.6z"/>
		<path class="st1" d="M84.9,104.5l-39-0.1V93.2l19-29.1c1.7-2.6,3.2-5.3,4.6-8.1c1-2.1,1.5-4.4,1.4-6.7c0.1-1.6-0.3-3.2-1.1-4.6
			c-0.7-0.9-1.8-1.4-2.9-1.3l0,0c-1.7-0.2-3.2,0.7-4,2.2c-1,2.3-1.4,4.8-1.3,7.2v4.5H45.9v-4.8c0-7,1.7-12.6,5-16.7
			s8.6-6.3,15.6-6.3h0.1c6.5,0,11.5,1.8,15,5.3s5.2,8.5,5.2,14.8c0.1,3.6-0.7,7.1-2.2,10.4c-1.9,3.8-4,7.5-6.5,11l-1,1.5L64.6,91.3
			l20.2,0.1L84.9,104.5z M48.2,102.1l34.3,0.1v-8.5l-22.3-0.1l16-24c2.4-3.4,4.5-6.9,6.3-10.6c1.3-2.9,2-6.1,1.9-9.4
			c0-5.7-1.5-10.1-4.5-13.1s-7.5-4.6-13.3-4.6h-0.1c-6.3,0-10.9,1.8-13.8,5.4s-4.5,8.8-4.5,15.2v2.4h11v-2.1
			c-0.1-2.9,0.4-5.7,1.5-8.3c1.1-2.3,3.5-3.7,6.1-3.5l0,0c1.9-0.1,3.7,0.8,4.8,2.3c1.1,1.8,1.7,3.9,1.6,6c0,2.7-0.5,5.3-1.6,7.7
			c-1.4,2.9-3,5.7-4.8,8.4L48.2,93.9V102.1z"/>
		<path class="st1" d="M85.4,103.9l-39-0.1V92.6l19-29.1c1.7-2.6,3.3-5.3,4.7-8.1c1-2.1,1.5-4.4,1.4-6.7c0.1-1.6-0.3-3.2-1.1-4.6
			c-0.7-0.9-1.8-1.4-3-1.3l0,0c-1.7-0.2-3.2,0.7-4,2.2c-1,2.3-1.4,4.8-1.3,7.3v4.5l-15.7,0v-4.7c0-7,1.7-12.6,5-16.7
			s8.6-6.3,15.6-6.3h0.1c6.5,0,11.5,1.8,15,5.3s5.2,8.5,5.2,14.8c0.1,3.6-0.7,7.1-2.2,10.4c-1.9,3.8-4,7.5-6.5,11l-1,1.5L65.2,90.7
			l20.2,0.1L85.4,103.9z M48.8,101.5l34.3,0.1v-8.4l-22.3-0.1l16-24c2.4-3.4,4.5-7,6.3-10.7c1.3-2.9,2-6.1,1.9-9.4
			c0-5.7-1.5-10.1-4.5-13.1s-7.5-4.6-13.3-4.6h-0.1c-6.3,0-10.9,1.8-13.8,5.4s-4.5,8.8-4.5,15.2v2.4h11v-2.1
			c-0.1-2.9,0.4-5.7,1.5-8.3c1.1-2.3,3.5-3.6,6.1-3.5l0,0c1.9-0.1,3.7,0.8,4.8,2.3c1.1,1.8,1.7,3.9,1.6,6c0,2.7-0.5,5.3-1.7,7.7
			c-1.4,2.9-3,5.7-4.8,8.4L48.8,93.3L48.8,101.5z"/>
		<path class="st1" d="M86,103.3l-39-0.1V92.1L66,63c1.7-2.6,3.3-5.3,4.7-8.1c1-2.1,1.5-4.4,1.4-6.7c0.1-1.6-0.3-3.2-1.1-4.6
			c-0.7-0.9-1.8-1.4-2.9-1.3l0,0c-1.7-0.2-3.2,0.7-4,2.2c-1,2.3-1.4,4.8-1.3,7.3v4.5L47,56v-4.7c0-7,1.7-12.6,5-16.7
			s8.6-6.3,15.6-6.3h0.1c6.5,0,11.5,1.8,15,5.3S88,42.1,88,48.4c0.1,3.6-0.7,7.1-2.2,10.4c-1.9,3.8-4,7.5-6.5,11l-1,1.5L65.8,90.1
			L86,90.2V103.3z M49.4,100.9l34.3,0.1v-8.5l-22.3-0.1l16-24c2.4-3.4,4.5-7,6.3-10.7c1.3-2.9,2-6.1,1.9-9.4
			c0-5.7-1.5-10.1-4.5-13.1s-7.5-4.6-13.3-4.6h-0.1c-6.3,0-10.9,1.8-13.8,5.4s-4.5,8.8-4.5,15.2v2.4h11v-2.1
			c-0.1-2.9,0.4-5.7,1.6-8.3c1.1-2.3,3.5-3.6,6-3.5l0,0c1.9-0.1,3.7,0.8,4.8,2.3c1.1,1.8,1.7,3.9,1.6,6c0,2.7-0.5,5.3-1.7,7.7
			c-1.4,2.9-3,5.7-4.7,8.4L49.4,92.7V100.9z"/>
		<path class="st1" d="M86.6,102.7l-39-0.1V91.5l19-29.1c1.7-2.6,3.3-5.3,4.7-8.1c1-2.1,1.5-4.4,1.4-6.7c0.1-1.6-0.3-3.2-1.1-4.5
			c-0.7-0.9-1.8-1.4-2.9-1.3l0,0c-1.7-0.2-3.2,0.7-4,2.2c-1,2.3-1.4,4.7-1.3,7.2v4.5H47.6v-4.7c0-7,1.7-12.6,5-16.7
			s8.6-6.3,15.6-6.3h0.1c6.5,0,11.5,1.8,15,5.3s5.2,8.5,5.2,14.8c0.1,3.6-0.7,7.1-2.2,10.4c-1.9,3.8-4,7.5-6.5,11l-1,1.5L66.4,89.5
			l20.2,0.1L86.6,102.7z M50,100.3l34.3,0.1v-8.4L62,91.9l16-24c2.4-3.4,4.5-7,6.3-10.7c1.3-2.9,2-6.1,1.9-9.4
			c0-5.7-1.5-10.1-4.5-13.1s-7.5-4.6-13.3-4.6h-0.1c-6.3,0-10.9,1.8-13.8,5.4S50,44.3,50,50.7v2.4h11V51c-0.1-2.9,0.4-5.7,1.5-8.3
			c1.1-2.3,3.5-3.7,6.1-3.5l0,0c1.9-0.1,3.7,0.8,4.8,2.3c1.1,1.8,1.7,3.9,1.6,6c0,2.7-0.6,5.3-1.7,7.7c-1.4,2.9-3,5.7-4.8,8.4
			L50,92.2V100.3z"/>
		<path class="st1" d="M87.2,102.2l-39-0.1V90.9l19-29.1c1.7-2.6,3.3-5.3,4.7-8.1c1-2.1,1.5-4.4,1.4-6.7c0.1-1.6-0.3-3.2-1.1-4.6
			c-0.7-0.9-1.8-1.4-3-1.3l0,0c-1.7-0.2-3.2,0.7-4,2.2c-1,2.3-1.4,4.8-1.3,7.3v4.4H48.2v-4.8c0-7,1.7-12.6,5-16.7s8.6-6.3,15.6-6.3
			H69c6.5,0,11.5,1.8,15,5.3s5.2,8.5,5.2,14.8c0,3.6-0.7,7.1-2.2,10.4c-1.9,3.8-4,7.5-6.5,11l-1,1.5L67,88.9L87.2,89V102.2z
			 M50.6,99.7l34.3,0.1v-8.5l-22.3-0.1l16-24c2.4-3.4,4.5-7,6.3-10.7c1.3-2.9,2-6.1,1.9-9.4c0-5.7-1.5-10.1-4.5-13.1
			s-7.5-4.6-13.3-4.6h-0.1c-6.3,0-10.9,1.8-13.8,5.4s-4.5,8.8-4.5,15.2v2.4h11v-2.1c-0.1-2.9,0.4-5.7,1.5-8.3
			c1.1-2.3,3.5-3.7,6.1-3.5l0,0c1.9-0.1,3.7,0.8,4.8,2.4c1.1,1.8,1.7,3.9,1.6,6c0,2.6-0.5,5.2-1.6,7.7c-1.4,2.9-3,5.7-4.8,8.4
			L50.6,91.6V99.7z"/>
		<path class="st1" d="M87.8,101.6l-39-0.1V90.3l19-29.1c1.7-2.6,3.3-5.3,4.7-8.1c1-2.1,1.5-4.4,1.4-6.7c0.1-1.6-0.3-3.2-1.1-4.6
			c-0.7-0.9-1.8-1.4-3-1.3l0,0c-1.7-0.2-3.2,0.7-4,2.2c-1,2.3-1.4,4.8-1.3,7.3v4.5H48.8v-4.8c0-7,1.7-12.6,5-16.7s8.6-6.3,15.6-6.3
			h0.1c6.5,0,11.5,1.8,15,5.3s5.2,8.5,5.2,14.8c0.1,3.6-0.7,7.1-2.1,10.3c-1.9,3.8-4,7.5-6.5,11l-1,1.5L67.6,88.3l20.2,0.1V101.6z
			 M51.2,99.1l34.3,0.1v-8.4l-22.3-0.1l16-24c2.4-3.4,4.5-7,6.3-10.7c1.3-2.9,2-6.1,1.9-9.4c0-5.7-1.5-10.1-4.5-13.1
			s-7.5-4.6-13.3-4.6h-0.1c-6.3,0-10.9,1.8-13.8,5.4s-4.5,8.8-4.5,15.2v2.4h11v-2.1c-0.1-2.9,0.4-5.7,1.5-8.3
			c1.1-2.3,3.5-3.7,6.1-3.5l0,0c1.9-0.1,3.7,0.8,4.8,2.3c1.1,1.8,1.7,3.9,1.6,6c0,2.7-0.5,5.3-1.7,7.7c-1.4,2.9-3,5.7-4.8,8.4
			L51.2,91V99.1z"/>
		<path class="st1" d="M88.4,101l-39-0.1V89.7l19-29.1c1.7-2.6,3.2-5.3,4.6-8.1c1-2.1,1.5-4.4,1.4-6.7c0.1-1.6-0.3-3.2-1.1-4.6
			c-0.7-0.9-1.8-1.4-2.9-1.3l0,0c-1.7-0.2-3.2,0.7-4,2.2c-1,2.3-1.4,4.8-1.3,7.3v4.5H49.4V49c0-7,1.7-12.6,5-16.7s8.7-6.4,15.8-6.3
			c6.5,0,11.5,1.8,15,5.3s5.2,8.5,5.2,14.8c0,3.6-0.7,7.1-2.2,10.3c-1.9,3.8-4,7.5-6.5,11l-1,1.5L68.2,87.8l20.2,0.1L88.4,101z
			 M51.8,98.5l34.3,0.1v-8.4l-22.3-0.1l16-24c2.4-3.4,4.5-7,6.3-10.7c1.3-2.9,2-6.1,1.9-9.3c0-5.7-1.5-10.1-4.5-13.1
			s-7.5-4.6-13.3-4.6H70c-6.3,0-10.9,1.8-13.8,5.4s-4.4,8.8-4.4,15.2v2.4h11v-2.1c-0.1-2.8,0.4-5.7,1.6-8.3c1.1-2.3,3.5-3.7,6.1-3.5
			l0,0c1.9-0.1,3.7,0.8,4.8,2.3c1.1,1.8,1.7,3.9,1.6,6c0,2.7-0.5,5.3-1.7,7.7c-1.4,2.9-3,5.7-4.8,8.4L51.8,90.4V98.5z"/>
		<path class="st2" d="M50.6,90L68,63.3l1.3-2c1.8-2.7,3.3-5.4,4.8-8.3c1-2.3,1.6-4.7,1.6-7.2c0.1-1.9-0.3-3.7-1.3-5.3
			c-0.9-1.2-2.4-1.9-3.9-1.8c-2.1-0.2-4.1,0.9-5,2.8c-1.1,2.5-1.5,5.1-1.4,7.8v3.3H50.6V49c0-6.7,1.6-12.1,4.7-16
			c3.2-3.9,8.1-5.9,14.8-5.8c6.2,0,10.9,1.6,14.2,5s4.9,8,4.9,14c0.1,3.4-0.6,6.8-2,9.9c-1.8,3.8-4,7.4-6.4,10.8l-1,1.5L66,88.9
			L87.2,89v10.8l-36.6-0.1V90z"/>
	</g>
</g>
</svg>
