<?xml version="1.0" encoding="utf-8"?>
<!-- Generator: Adobe Illustrator 25.2.0, SVG Export Plug-In . SVG Version: 6.00 Build 0)  -->
<svg version="1.1" id="Layer_1" xmlns="http://www.w3.org/2000/svg" xmlns:xlink="http://www.w3.org/1999/xlink" x="0px" y="0px"
	 viewBox="0 0 138 145" style="enable-background:new 0 0 138 145;" xml:space="preserve">
<style type="text/css">
	.st0{opacity:0.2;}
	.st1{fill:#003C3A;}
	.st2{fill:#FFFFFF;}
</style>
<g>
	<g id="Layer_1_1_">
		<g class="st0">
			<path d="M60.5,114c-3-3.8-4.5-9.1-4.5-16v-2.6h13.6v2.4c0.1,3.7,0.5,6.3,1.3,7.9s2.3,2.4,4.5,2.4s3.7-0.8,4.4-2.4
				s1.2-4.2,1.2-7.9c0-3.8-0.6-6.7-1.7-8.6S76,86.4,73,86.4c-0.8-0.1-1.6-0.1-2.4-0.1v-10h2.1c3.1,0,5.3-0.8,6.5-2.4
				s1.8-4.4,1.8-8.1c0-3.1-0.4-5.3-1.3-6.8s-2.4-2.2-4.6-2.2c-2.1,0-3.6,0.8-4.3,2.4c-0.9,2.3-1.3,4.7-1.2,7.1v3.2H56v-3.9
				c0-6.2,1.7-11.1,5-14.5c3.4-3.4,8.1-5.1,14.2-5.1c6.1,0,10.9,1.7,14.2,5c3.4,3.3,5,8.1,5,14.3c0.1,3.6-0.8,7.2-2.5,10.3
				c-1.4,2.6-3.7,4.5-6.5,5.3c6,2.3,9,7.9,9,16.9c0,6.9-1.5,12.3-4.6,16.2s-7.9,5.9-14.6,5.8C68.4,119.6,63.5,117.8,60.5,114z"/>
			<path d="M60,113.5c-3-3.8-4.5-9.1-4.5-16V95h13.6v2.4c0.1,3.7,0.5,6.3,1.3,7.9s2.3,2.4,4.5,2.4s3.7-0.8,4.4-2.4s1.2-4.3,1.2-7.9
				c0-3.8-0.6-6.7-1.7-8.6S75.6,86,72.6,86c-0.8-0.1-1.6-0.1-2.4-0.1v-10h2.1c3.1,0,5.3-0.8,6.5-2.5s1.8-4.4,1.8-8.1
				c0-3.1-0.4-5.3-1.3-6.8c-0.9-1.5-2.4-2.2-4.6-2.2c-2.1,0-3.6,0.8-4.3,2.4c-0.9,2.3-1.3,4.7-1.2,7.1v3.2H55.5V65
				c0-6.3,1.7-11.1,5-14.5s8.1-5.1,14.2-5.1c6.1,0,10.9,1.7,14.2,5c3.4,3.3,5.1,8.1,5.1,14.2c0.1,3.6-0.7,7.2-2.5,10.4
				c-1.4,2.6-3.7,4.4-6.5,5.2c6,2.3,9,7.9,9,16.9c0,6.9-1.5,12.3-4.6,16.2s-7.9,5.9-14.6,5.8C68,119.2,63.1,117.3,60,113.5z"/>
			<path d="M59.6,113.1c-3-3.8-4.5-9.1-4.5-16v-2.5h13.6V97c0.1,3.7,0.5,6.3,1.3,7.9s2.3,2.4,4.5,2.4s3.7-0.8,4.4-2.4
				s1.2-4.3,1.2-7.9c0-3.8-0.6-6.7-1.7-8.6s-3.2-2.8-6.2-2.9c-0.8-0.1-1.6-0.1-2.4-0.1v-10h2.1c3.1,0,5.3-0.8,6.5-2.5
				s1.8-4.4,1.8-8.1c0-3.1-0.4-5.3-1.3-6.8s-2.4-2.2-4.6-2.2c-2.1,0-3.6,0.8-4.3,2.4c-0.9,2.3-1.3,4.7-1.2,7.1v3.2H55.1v-3.9
				c0-6.2,1.7-11.1,5-14.5c3.4-3.4,8.1-5.1,14.2-5.1c6.1,0,10.9,1.7,14.2,5c3.4,3.3,5,8.1,5,14.3c0.1,3.6-0.7,7.2-2.5,10.3
				c-1.4,2.6-3.7,4.5-6.5,5.3c6,2.3,9,7.9,9,16.9c0,6.9-1.5,12.3-4.6,16.2s-7.9,5.9-14.6,5.8C67.6,118.8,62.6,116.9,59.6,113.1z"/>
			<path d="M59.2,112.7c-3-3.8-4.5-9.1-4.5-16v-2.5h13.6v2.4c0.1,3.7,0.5,6.3,1.3,7.9s2.3,2.4,4.5,2.4s3.7-0.8,4.4-2.4
				s1.2-4.3,1.2-7.9c0-3.8-0.6-6.7-1.7-8.6c-1.2-1.9-3.2-2.8-6.2-2.9C71,85,70.2,85,69.4,85V75h2.1c3.1,0,5.3-0.8,6.5-2.5
				c1.2-1.6,1.8-4.4,1.8-8.1c0-3.1-0.4-5.3-1.3-6.8s-2.4-2.2-4.6-2.2c-2.1,0-3.6,0.8-4.3,2.4c-0.9,2.3-1.3,4.7-1.2,7.1v3.2L54.7,68
				v-3.9c0-6.2,1.7-11.1,5-14.5c3.3-3.4,8.1-5.1,14.2-5.1c6.1,0,10.9,1.7,14.2,5c3.4,3.3,5,8.1,5,14.3c0.1,3.6-0.8,7.2-2.5,10.3
				c-1.4,2.6-3.7,4.5-6.5,5.3c6,2.3,9,7.9,9,16.9c0,6.9-1.5,12.3-4.6,16.2c-3.1,3.9-7.9,5.9-14.5,5.8
				C67.2,118.4,62.2,116.5,59.2,112.7z"/>
			<path d="M58.8,112.3c-3-3.8-4.5-9.1-4.5-16v-2.5h13.6v2.4c0.1,3.7,0.5,6.3,1.3,7.9s2.3,2.4,4.5,2.4s3.7-0.8,4.4-2.4
				s1.2-4.3,1.2-7.9c0-3.8-0.6-6.7-1.7-8.5c-1.2-1.9-3.2-2.8-6.2-2.9c-0.8-0.1-1.6-0.1-2.4-0.1v-10h2.1c3.1,0,5.3-0.8,6.5-2.5
				s1.8-4.4,1.8-8.2c0-3.1-0.4-5.3-1.3-6.8S75.7,55,73.5,55s-3.6,0.8-4.3,2.4c-0.9,2.3-1.3,4.7-1.2,7.1v3.2H54.3v-3.9
				c0-6.2,1.7-11.1,5-14.5c3.4-3.4,8.1-5.1,14.2-5.1c6.1,0,10.9,1.7,14.2,5s5,8.1,5,14.3c0.1,3.6-0.8,7.2-2.5,10.3
				c-1.3,2.6-3.7,4.5-6.4,5.3c6,2.3,9,7.9,9,16.9c0,6.9-1.5,12.3-4.6,16.2s-7.9,5.9-14.6,5.8C66.8,118,61.8,116.1,58.8,112.3z"/>
			<path d="M58.4,111.9c-3-3.8-4.5-9.1-4.5-16v-2.5h13.6v2.4c0,3.7,0.5,6.3,1.3,7.9s2.3,2.4,4.5,2.4s3.7-0.8,4.4-2.4
				s1.2-4.3,1.2-7.9c0-3.8-0.6-6.7-1.7-8.5c-1.1-1.8-3.2-2.8-6.2-2.9c-0.8-0.1-1.6-0.1-2.4-0.1v-10h2.1c3.1,0,5.3-0.8,6.5-2.5
				s1.8-4.4,1.8-8.1c0-3.1-0.4-5.3-1.3-6.8s-2.4-2.2-4.6-2.2s-3.6,0.8-4.3,2.4c-0.9,2.2-1.3,4.6-1.3,7v3.2H53.9v-3.9
				c0-6.2,1.7-11.1,5-14.5s8.1-5.1,14.2-5.1c6.1,0,10.9,1.7,14.2,5c3.4,3.3,5,8.1,5.1,14.3c0.1,3.6-0.8,7.2-2.5,10.3
				c-1.4,2.6-3.7,4.5-6.5,5.3c6,2.3,9,7.9,9,16.9c0,6.9-1.5,12.3-4.6,16.2s-7.9,5.9-14.6,5.8C66.3,117.6,61.4,115.7,58.4,111.9z"/>
			<path d="M58,111.5c-3-3.8-4.5-9.1-4.5-16V93h13.6v2.4c0,3.7,0.5,6.3,1.3,7.9s2.3,2.4,4.5,2.4s3.7-0.8,4.4-2.4s1.2-4.3,1.2-7.9
				c0-3.8-0.6-6.7-1.7-8.5s-3.2-2.8-6.2-2.9c-0.8-0.1-1.6-0.1-2.4-0.1v-10h2.1c3.1,0,5.3-0.8,6.5-2.5s1.8-4.4,1.8-8.1
				c0-3.1-0.4-5.3-1.3-6.8c-0.8-1.5-2.4-2.2-4.6-2.2s-3.6,0.8-4.3,2.4c-0.9,2.2-1.3,4.7-1.2,7.1v3.2H53.5v-3.9
				c0-6.3,1.7-11.1,5-14.5c3.3-3.4,8.1-5.1,14.2-5.1c6.1,0,10.9,1.7,14.2,5c3.4,3.3,5,8.1,5,14.3c0.1,3.6-0.7,7.2-2.4,10.4
				c-1.4,2.6-3.7,4.5-6.5,5.3c6,2.3,9,7.9,9,16.9c0,6.9-1.5,12.3-4.6,16.2s-7.9,5.9-14.6,5.8C65.9,117.2,61,115.3,58,111.5z"/>
			<path d="M57.6,111.1c-3-3.8-4.5-9.1-4.5-16v-2.5h13.6V95c0.1,3.7,0.5,6.3,1.3,7.9c0.8,1.6,2.3,2.4,4.5,2.4s3.7-0.8,4.4-2.4
				s1.1-4.3,1.1-7.9c0-3.8-0.6-6.7-1.7-8.6s-3.2-2.8-6.2-2.9c-0.8-0.1-1.6-0.1-2.4-0.1v-10h2.1c3.1,0,5.3-0.8,6.5-2.5
				s1.8-4.4,1.8-8.1c0-3.1-0.4-5.3-1.3-6.8s-2.4-2.2-4.6-2.2s-3.6,0.8-4.3,2.4c-0.9,2.2-1.3,4.7-1.2,7.1v3.2H53.1v-4
				c0-6.3,1.7-11.1,5-14.5c3.3-3.4,8.1-5.1,14.2-5.1c6.1,0,10.9,1.7,14.2,5c3.4,3.3,5,8.1,5,14.3c0.1,3.6-0.8,7.2-2.5,10.3
				c-1.4,2.6-3.7,4.5-6.5,5.3c6,2.3,9,7.9,9,16.9c0,6.9-1.5,12.3-4.6,16.2s-7.9,5.9-14.6,5.8C65.5,116.8,60.6,114.9,57.6,111.1z"/>
			<path d="M57.2,110.7c-3-3.8-4.5-9.1-4.5-16v-2.5h13.6v2.4c0.1,3.7,0.5,6.3,1.3,7.9c0.8,1.6,2.3,2.4,4.5,2.4s3.7-0.8,4.4-2.4
				s1.2-4.3,1.2-7.9c0-3.8-0.6-6.7-1.7-8.6s-3.2-2.8-6.2-2.9C69,83,68.2,83,67.4,83V73h2.1c3.1,0,5.3-0.8,6.5-2.5s1.8-4.4,1.8-8.1
				c0-3.1-0.4-5.3-1.3-6.8s-2.4-2.2-4.6-2.2s-3.6,0.8-4.3,2.4c-0.9,2.2-1.3,4.7-1.2,7.1V66H52.7v-3.9c0-6.3,1.7-11.1,5-14.5
				c3.3-3.4,8.1-5.1,14.2-5.1c6.1,0,10.9,1.7,14.3,5s5,8.1,5,14.3c0.1,3.6-0.8,7.2-2.5,10.3c-1.4,2.6-3.7,4.5-6.5,5.3
				c6,2.3,9,7.9,9,16.9c0,6.9-1.5,12.3-4.6,16.2s-7.9,5.9-14.5,5.8C65.1,116.4,60.2,114.5,57.2,110.7z"/>
			<path d="M56.8,110.3c-3-3.8-4.5-9.1-4.5-16v-2.5h13.6v2.4c0.1,3.7,0.5,6.3,1.3,7.9c0.8,1.6,2.3,2.4,4.5,2.4s3.7-0.8,4.4-2.4
				s1.2-4.3,1.2-7.9c0-3.8-0.6-6.7-1.7-8.6c-1.2-1.9-3.2-2.8-6.2-2.9c-0.8-0.1-1.6-0.1-2.4-0.1v-10h2.1c3.1,0,5.3-0.8,6.5-2.5
				s1.8-4.4,1.8-8.1c0-3.1-0.4-5.3-1.3-6.8S73.7,53,71.5,53s-3.6,0.8-4.3,2.4c-0.9,2.2-1.3,4.7-1.2,7.1v3.2H52.3v-4
				c0-6.3,1.7-11.1,5-14.5c3.3-3.4,8.1-5.1,14.2-5.1c6.1,0,10.9,1.7,14.2,5c3.4,3.3,5,8.1,5,14.3c0.1,3.6-0.8,7.2-2.5,10.3
				c-1.3,2.6-3.7,4.5-6.4,5.3c6,2.3,9,7.9,9,16.9c0,6.9-1.5,12.3-4.6,16.2c-3.1,3.9-7.9,5.9-14.6,5.8C64.7,116,59.8,114,56.8,110.3z
				"/>
			<path d="M56.4,109.9c-3-3.8-4.5-9.1-4.5-16v-2.5h13.6v2.4c0.1,3.7,0.5,6.3,1.3,7.9c0.8,1.6,2.3,2.4,4.5,2.4s3.7-0.8,4.4-2.4
				s1.2-4.3,1.2-7.9c0-3.8-0.6-6.7-1.7-8.6c-1.2-1.9-3.2-2.8-6.2-2.9c-0.8-0.1-1.6-0.1-2.4-0.1v-10h2.1c3.1,0,5.3-0.8,6.5-2.5
				s1.8-4.4,1.8-8.1c0-3.1-0.4-5.3-1.3-6.8s-2.4-2.2-4.6-2.2s-3.6,0.8-4.3,2.4c-0.9,2.3-1.3,4.7-1.2,7.1v3.2H51.9v-3.9
				c0-6.2,1.7-11.1,5-14.5c3.3-3.4,8.1-5.1,14.2-5.1c6.1,0,10.9,1.7,14.2,5c3.4,3.3,5,8.1,5,14.3c0.1,3.6-0.8,7.2-2.5,10.4
				c-1.4,2.6-3.7,4.5-6.5,5.3c6,2.3,9,7.9,9,16.9c0,6.9-1.5,12.3-4.6,16.2c-3.1,3.9-7.9,5.9-14.6,5.8
				C64.3,115.5,59.4,113.6,56.4,109.9z"/>
			<path d="M56,109.4c-3-3.8-4.5-9.1-4.5-16v-2.5h13.6v2.4c0.1,3.7,0.5,6.3,1.3,7.9s2.3,2.4,4.5,2.4s3.7-0.8,4.4-2.4
				s1.2-4.3,1.2-7.9c0-3.8-0.6-6.7-1.7-8.6s-3.2-2.8-6.2-2.9c-0.8-0.1-1.6-0.1-2.4-0.1v-10h2.1c3.1,0,5.3-0.8,6.5-2.5
				s1.8-4.4,1.8-8.1c0-3.1-0.4-5.3-1.3-6.8s-2.4-2.2-4.6-2.2c-2.1,0-3.6,0.8-4.3,2.4c-0.9,2.3-1.3,4.7-1.2,7.1v3.2H51.5v-3.9
				c0-6.2,1.7-11.1,5-14.5s8.1-5.1,14.2-5.1c6.1,0,10.9,1.7,14.2,5c3.4,3.3,5,8.1,5,14.3c0.1,3.6-0.8,7.2-2.5,10.3
				c-1.4,2.6-3.7,4.5-6.5,5.3c6,2.3,9,7.9,9,16.9c0,6.9-1.5,12.3-4.6,16.2c-3.1,3.9-7.9,5.9-14.6,5.8C63.9,115.1,59,113.2,56,109.4z
				"/>
			<path d="M55.5,109c-3-3.8-4.5-9.1-4.5-16v-2.5h13.6V93c0.1,3.7,0.5,6.3,1.3,7.9s2.3,2.4,4.5,2.4s3.7-0.8,4.4-2.4s1.2-4.3,1.2-7.9
				c0-3.8-0.6-6.7-1.7-8.6s-3.2-2.8-6.2-2.9c-0.8-0.1-1.6-0.1-2.4-0.1v-10h2.1c3.1,0,5.3-0.8,6.5-2.5c1.2-1.6,1.8-4.4,1.8-8.1
				c0-3.1-0.4-5.3-1.3-6.8c-0.9-1.5-2.4-2.2-4.6-2.2c-2.1,0-3.6,0.8-4.3,2.4c-0.9,2.3-1.3,4.7-1.2,7.1v3.2L51,64.3v-3.9
				c0-6.2,1.7-11.1,5-14.5s8.1-5.1,14.2-5.1c6.1,0,10.9,1.7,14.2,5c3.4,3.3,5.1,8.1,5.1,14.3c0.1,3.6-0.8,7.2-2.5,10.3
				c-1.4,2.6-3.7,4.5-6.5,5.3c6,2.3,9,7.9,9,16.9c0,6.9-1.5,12.3-4.6,16.2c-3.1,3.9-7.9,5.9-14.6,5.8
				C63.5,114.7,58.5,112.8,55.5,109z"/>
			<path d="M55.1,108.6c-3-3.8-4.5-9.1-4.5-16v-2.5h13.6v2.4c0.1,3.7,0.5,6.3,1.3,7.9s2.3,2.4,4.5,2.4s3.7-0.8,4.4-2.4
				s1.2-4.3,1.2-7.9c0-3.8-0.6-6.7-1.7-8.6c-1.2-1.9-3.2-2.8-6.2-2.9c-0.8-0.1-1.6-0.1-2.4-0.1V71h2.1c3.1,0,5.3-0.8,6.5-2.5
				s1.8-4.4,1.8-8.1c0-3.1-0.4-5.3-1.3-6.8s-2.4-2.2-4.6-2.2c-2.1,0-3.6,0.8-4.3,2.4c-0.9,2.3-1.3,4.7-1.2,7.1V64H50.6v-4
				c0-6.2,1.7-11.1,5-14.5s8.1-5.1,14.2-5.1c6.1,0,10.9,1.7,14.2,5c3.4,3.3,5,8.1,5,14.3c0.1,3.6-0.7,7.2-2.5,10.3
				c-1.4,2.6-3.7,4.5-6.5,5.3c6,2.3,9,7.9,9,16.9c0,6.9-1.5,12.3-4.6,16.2c-3.1,3.9-7.9,5.9-14.6,5.8
				C63.1,114.3,58.1,112.4,55.1,108.6z"/>
			<path d="M54.7,108.2c-3-3.8-4.5-9.1-4.5-16v-2.5h13.6v2.4c0.1,3.7,0.5,6.3,1.3,7.9s2.3,2.4,4.5,2.4s3.7-0.8,4.4-2.4
				s1.2-4.3,1.2-7.9c0-3.8-0.6-6.7-1.7-8.5c-1.2-1.9-3.2-2.8-6.2-2.9c-0.8-0.1-1.6-0.1-2.4-0.1v-10H67c3.1,0,5.3-0.8,6.5-2.5
				c1.2-1.6,1.8-4.3,1.8-8c0-3.1-0.4-5.3-1.3-6.8S71.6,51,69.4,51s-3.6,0.8-4.3,2.4c-0.9,2.3-1.3,4.7-1.2,7.1v3.2H50.2v-3.9
				c0-6.2,1.7-11.1,5-14.5c3.3-3.4,8.1-5.2,14.2-5.2c6.1,0,10.9,1.7,14.2,5s5,8.1,5,14.3c0.1,3.6-0.8,7.2-2.5,10.3
				c-1.4,2.6-3.7,4.5-6.5,5.3c6,2.3,9,7.9,9,16.9c0,6.9-1.5,12.3-4.6,16.2s-7.9,5.9-14.6,5.8C62.6,113.9,57.7,112,54.7,108.2z"/>
			<path d="M54.3,107.8c-3-3.8-4.5-9.1-4.5-16v-2.5h13.6v2.4c0.1,3.7,0.5,6.3,1.3,7.9c0.8,1.6,2.3,2.4,4.5,2.4s3.7-0.8,4.4-2.4
				s1.2-4.3,1.2-7.9c0-3.8-0.6-6.7-1.7-8.5c-1.2-1.9-3.2-2.8-6.2-2.9c-0.8-0.1-1.6-0.1-2.4-0.1v-10h2.1c3.1,0,5.3-0.8,6.5-2.5
				s1.8-4.4,1.8-8.1c0-3.1-0.4-5.3-1.3-6.8s-2.4-2.2-4.6-2.2s-3.6,0.8-4.3,2.4c-0.9,2.3-1.3,4.7-1.2,7.1v3.2H49.8v-4
				c0-6.2,1.7-11.1,5-14.5c3.4-3.4,8.1-5.1,14.2-5.1c6.1,0,10.9,1.7,14.2,5c3.4,3.3,5,8.1,5,14.3c0.1,3.6-0.8,7.2-2.5,10.3
				c-1.4,2.6-3.7,4.5-6.5,5.3c6,2.3,9,7.9,9,16.9c0,6.9-1.5,12.3-4.6,16.2c-3.1,3.9-7.9,5.9-14.5,5.8
				C62.3,113.5,57.3,111.6,54.3,107.8z"/>
			<path d="M53.9,107.4c-3-3.8-4.5-9.1-4.5-16v-2.5H63v2.4c0,3.7,0.5,6.3,1.3,7.9c0.8,1.6,2.3,2.4,4.5,2.4s3.7-0.8,4.4-2.4
				s1.2-4.3,1.2-7.9c0-3.8-0.6-6.7-1.7-8.5c-1.2-1.9-3.2-2.8-6.2-2.9c-0.8-0.1-1.6-0.1-2.4-0.1v-10h2.1c3.1,0,5.3-0.8,6.5-2.5
				s1.8-4.4,1.8-8.1c0-3.1-0.4-5.3-1.3-6.8c-0.8-1.5-2.4-2.2-4.6-2.2s-3.6,0.8-4.3,2.4c-0.9,2.3-1.3,4.7-1.3,7.1v3.2H49.4v-3.9
				c0-6.3,1.7-11.1,5-14.5c3.3-3.4,8.1-5.1,14.2-5.1c6.1,0,10.9,1.7,14.2,5c3.4,3.3,5,8.1,5.1,14.3c0.1,3.6-0.8,7.2-2.5,10.3
				c-1.4,2.6-3.7,4.5-6.5,5.3c6,2.3,9,7.9,9,16.9c0,6.9-1.5,12.3-4.6,16.2c-3.1,3.9-7.9,5.9-14.6,5.8
				C61.8,113.1,56.9,111.2,53.9,107.4z"/>
			<path d="M53.5,107c-3-3.8-4.5-9.1-4.5-16v-2.5h13.6v2.4c0.1,3.7,0.5,6.3,1.3,7.9c0.8,1.6,2.3,2.4,4.5,2.4s3.7-0.8,4.4-2.4
				s1.1-4.2,1.1-7.9c0-3.8-0.6-6.7-1.7-8.5S69,79.5,66,79.4c-0.8-0.1-1.6-0.1-2.4-0.1v-10h2.2c3.1,0,5.3-0.8,6.5-2.5
				s1.7-4.4,1.7-8.1c0-3.1-0.4-5.3-1.3-6.8c-0.8-1.5-2.4-2.2-4.6-2.2s-3.6,0.8-4.3,2.4c-0.9,2.2-1.3,4.7-1.2,7.1v3.2l-13.6,0v-3.9
				c0-6.3,1.7-11.1,5-14.5c3.3-3.4,8.1-5.1,14.2-5.1c6.1,0,10.9,1.7,14.2,5c3.4,3.3,5,8.1,5,14.3c0.2,3.6-0.7,7.2-2.4,10.3
				c-1.4,2.6-3.7,4.5-6.5,5.3c6,2.3,9,7.9,9,16.9c0,6.9-1.5,12.3-4.6,16.2s-7.9,5.9-14.6,5.8C61.4,112.7,56.5,110.8,53.5,107z"/>
			<path d="M53.1,106.6c-3-3.8-4.5-9.1-4.5-16v-2.5h13.6v2.4c0.1,3.7,0.5,6.3,1.3,7.9c0.8,1.6,2.3,2.4,4.5,2.4s3.7-0.8,4.4-2.4
				s1.2-4.3,1.2-7.9c0-3.8-0.6-6.7-1.7-8.6s-3.2-2.8-6.2-2.9c-0.8-0.1-1.6-0.1-2.4-0.1v-10h2.1c3.1,0,5.3-0.8,6.5-2.5
				s1.8-4.4,1.8-8.1c0-3.1-0.4-5.3-1.3-6.8s-2.3-2.2-4.6-2.2s-3.6,0.8-4.3,2.4c-0.9,2.2-1.3,4.7-1.2,7.1v3.2H48.6V58
				c0-6.3,1.7-11.1,5-14.5c3.3-3.4,8.1-5.1,14.2-5.1c6.1,0,10.9,1.7,14.3,5c3.4,3.3,5,8.1,5,14.3c0.1,3.6-0.7,7.2-2.4,10.3
				c-1.4,2.6-3.7,4.5-6.5,5.3c6,2.3,9,7.9,9,16.9c0,6.9-1.5,12.3-4.6,16.2c-3.1,3.9-7.9,5.9-14.6,5.8
				C61,112.3,56.1,110.4,53.1,106.6z"/>
			<path d="M52.7,106.2c-3-3.8-4.5-9.1-4.5-16v-2.5h13.6v2.4c0.1,3.7,0.5,6.3,1.3,7.9c0.8,1.6,2.3,2.4,4.5,2.4s3.7-0.8,4.4-2.4
				s1.2-4.2,1.2-7.9c0-3.8-0.6-6.7-1.7-8.6s-3.2-2.8-6.2-2.9c-0.8-0.1-1.6-0.1-2.4-0.1v-10H65c3.1,0,5.3-0.8,6.5-2.5
				s1.8-4.4,1.8-8.1c0-3.1-0.4-5.3-1.3-6.8s-2.4-2.2-4.6-2.2s-3.6,0.8-4.3,2.4c-0.9,2.2-1.3,4.7-1.2,7.1v3.2H48.2v-3.9
				c0-6.3,1.7-11.1,5-14.5c3.3-3.4,8.1-5.1,14.2-5.1c6.1,0,10.9,1.7,14.2,5s5,8.1,5,14.3c0.1,3.6-0.8,7.2-2.5,10.3
				c-1.4,2.6-3.7,4.5-6.5,5.3c6,2.3,9,7.9,9,16.9c0,6.9-1.5,12.3-4.6,16.2s-7.9,5.9-14.6,5.8C60.6,111.9,55.7,110,52.7,106.2z"/>
			<path d="M52.3,105.8c-3-3.8-4.5-9.1-4.5-16v-2.5h13.6v2.4c0.1,3.7,0.5,6.3,1.3,7.9c0.8,1.6,2.3,2.4,4.5,2.4s3.7-0.8,4.4-2.4
				s1.2-4.3,1.2-7.9c0-3.8-0.6-6.7-1.7-8.6c-1.2-1.9-3.2-2.8-6.2-2.9C64,78,63.2,78,62.5,78.1v-10h2.1c3.1,0,5.3-0.8,6.5-2.5
				s1.8-4.4,1.8-8.1c0-3.1-0.4-5.3-1.3-6.8s-2.4-2.2-4.5-2.2s-3.6,0.8-4.3,2.4c-0.9,2.3-1.3,4.7-1.2,7.1v3.2H47.8v-3.9
				c0-6.2,1.7-11.1,5-14.5c3.3-3.4,8.1-5.1,14.2-5.1c6.1,0,10.9,1.7,14.2,5c3.4,3.3,5,8.1,5,14.3c0.1,3.6-0.8,7.2-2.5,10.3
				c-1.4,2.6-3.7,4.5-6.5,5.3c6,2.3,9,7.9,9,16.9c0,6.9-1.5,12.3-4.6,16.2s-7.9,5.9-14.6,5.8C60.2,111.5,55.3,109.5,52.3,105.8z"/>
			<path d="M51.9,105.4c-3-3.8-4.5-9.1-4.5-16v-2.5H61v2.4c0.1,3.7,0.5,6.3,1.3,7.9s2.3,2.4,4.5,2.4s3.7-0.8,4.4-2.4
				s1.2-4.3,1.2-7.9c0-3.8-0.6-6.7-1.7-8.6s-3.2-2.8-6.2-2.9c-0.8-0.1-1.6-0.1-2.4-0.1v-10h2.1c3.1,0,5.3-0.8,6.5-2.4
				s1.8-4.4,1.8-8.1c0-3.1-0.4-5.3-1.3-6.8S68.7,48,66.6,48c-2.1,0-3.6,0.8-4.3,2.4c-0.9,2.3-1.3,4.7-1.2,7.1v3.2H47.4v-3.9
				c0-6.2,1.7-11.1,5-14.5c3.3-3.4,8.1-5.1,14.2-5.1c6.1,0,10.9,1.7,14.2,5c3.4,3.3,5,8.1,5,14.3c0.1,3.6-0.8,7.2-2.5,10.4
				c-1.4,2.6-3.7,4.5-6.5,5.3c6,2.3,9,7.9,9,16.9c0,6.9-1.5,12.3-4.6,16.2s-7.9,5.9-14.6,5.8C59.8,111,54.9,109.1,51.9,105.4z"/>
			<path d="M51.5,105c-3-3.8-4.5-9.1-4.5-16v-2.6h13.6v2.4c0.1,3.7,0.5,6.3,1.3,7.9s2.3,2.4,4.5,2.4s3.7-0.8,4.4-2.4
				s1.2-4.2,1.2-7.9c0-3.8-0.6-6.7-1.7-8.6S67,77.4,64,77.4c-0.8-0.1-1.6-0.1-2.4-0.1v-10h2.1c3.1,0,5.3-0.8,6.5-2.5
				s1.8-4.4,1.8-8.1c0-3.1-0.4-5.3-1.3-6.8s-2.4-2.2-4.6-2.2c-2.1,0-3.6,0.8-4.3,2.4c-0.9,2.3-1.3,4.7-1.2,7.1v3.2H47v-3.9
				c0-6.2,1.7-11.1,5-14.5s8.1-5.1,14.2-5.1c6.1,0,10.9,1.7,14.2,5c3.4,3.3,5,8.1,5,14.3c0.1,3.6-0.8,7.2-2.5,10.3
				c-1.4,2.6-3.7,4.5-6.5,5.3c6,2.3,9,7.9,9,16.9c0,6.9-1.5,12.3-4.6,16.2s-7.9,5.9-14.6,5.8C59.4,110.7,54.5,108.8,51.5,105z"/>
			<path d="M51,104.5c-3-3.8-4.5-9.1-4.5-16V86h13.6v2.4c0.1,3.7,0.5,6.3,1.3,7.9s2.3,2.4,4.5,2.4s3.7-0.8,4.4-2.4s1.2-4.3,1.2-7.9
				c0-3.8-0.6-6.7-1.7-8.6S66.6,77,63.6,77c-0.8-0.1-1.6-0.1-2.4-0.1v-10h2.1c3.1,0,5.3-0.8,6.5-2.5s1.8-4.4,1.8-8.1
				c0-3.1-0.4-5.3-1.3-6.8c-0.9-1.5-2.4-2.2-4.6-2.2c-2.1,0-3.6,0.8-4.3,2.4c-0.9,2.3-1.3,4.7-1.2,7.1v3.2H46.5V56
				c0-6.2,1.7-11.1,5-14.5c3.3-3.4,8.1-5.1,14.2-5.1c6.1,0,10.9,1.7,14.2,5s5,8.1,5.1,14.2c0.1,3.6-0.7,7.2-2.5,10.4
				c-1.4,2.6-3.7,4.4-6.5,5.2c6,2.3,9,7.9,9,16.9c0,6.9-1.5,12.3-4.6,16.2s-7.9,5.9-14.6,5.8C59,110.2,54,108.3,51,104.5z"/>
			<path d="M50.6,104.1c-3-3.8-4.5-9.1-4.5-16v-2.5h13.6V88c0.1,3.7,0.5,6.3,1.3,7.9s2.3,2.4,4.5,2.4s3.7-0.8,4.4-2.4
				s1.2-4.3,1.2-7.9c0-3.8-0.6-6.7-1.7-8.6c-1.2-1.9-3.2-2.8-6.2-2.9c-0.8-0.1-1.6-0.1-2.4-0.1v-10h2.1c3.1,0,5.3-0.8,6.5-2.5
				c1.2-1.6,1.8-4.4,1.8-8.1c0-3.1-0.4-5.3-1.3-6.8s-2.4-2.2-4.6-2.2s-3.6,0.8-4.3,2.4c-0.9,2.3-1.3,4.7-1.2,7.1v3.2H46.1v-3.9
				c0-6.2,1.7-11.1,5-14.5c3.4-3.4,8.1-5.1,14.2-5.1c6.1,0,10.9,1.7,14.2,5s5,8.1,5,14.3c0.1,3.6-0.7,7.2-2.5,10.4
				c-1.4,2.6-3.7,4.5-6.5,5.3c6,2.3,9,7.9,9,16.9c0,6.9-1.5,12.3-4.6,16.2s-8,5.9-14.6,5.8C58.6,109.8,53.6,107.9,50.6,104.1z"/>
			<path d="M50.2,103.7c-3-3.8-4.5-9.1-4.5-16v-2.5h13.6v2.4c0.1,3.7,0.5,6.3,1.3,7.9s2.3,2.4,4.5,2.4s3.7-0.8,4.4-2.4
				s1.2-4.3,1.2-7.9c0-3.8-0.6-6.7-1.7-8.5c-1.2-1.9-3.2-2.8-6.2-2.9C62,76,61.2,76,60.4,76V66h2.1c3.1,0,5.3-0.8,6.5-2.5
				c1.2-1.6,1.8-4.4,1.8-8.1c0-3.1-0.4-5.3-1.3-6.8s-2.4-2.2-4.6-2.2s-3.6,0.8-4.3,2.4c-0.9,2.3-1.3,4.7-1.2,7.1V59l-13.6,0v-3.9
				c0-6.2,1.7-11.1,5-14.5c3.3-3.4,8.1-5.1,14.2-5.1c6.1,0,10.9,1.7,14.2,5c3.4,3.3,5,8.1,5,14.3c0.1,3.6-0.8,7.2-2.5,10.3
				c-1.4,2.6-3.7,4.5-6.5,5.3c6,2.3,9,7.9,9,16.9c0,6.9-1.5,12.3-4.6,16.2c-3.1,3.9-7.9,5.9-14.5,5.8
				C58.2,109.4,53.2,107.5,50.2,103.7z"/>
			<path d="M49.8,103.3c-3-3.8-4.5-9.1-4.5-16v-2.5h13.6v2.4c0,3.7,0.5,6.3,1.3,7.9s2.3,2.4,4.5,2.4s3.7-0.8,4.4-2.4
				s1.2-4.3,1.2-7.9c0-3.8-0.6-6.7-1.7-8.5c-1.2-1.9-3.2-2.8-6.2-2.9c-0.8-0.1-1.6-0.1-2.4-0.1v-10h2.1c3.1,0,5.3-0.8,6.5-2.5
				s1.8-4.4,1.8-8.1c0-3.1-0.4-5.3-1.3-6.8c-0.8-1.5-2.4-2.2-4.6-2.2s-3.6,0.8-4.3,2.4c-0.9,2.3-1.3,4.7-1.2,7.1v3.2H45.3v-3.9
				c0-6.2,1.7-11.1,5-14.5c3.4-3.4,8.1-5.1,14.2-5.1c6.1,0,10.9,1.7,14.2,5s5,8.1,5,14.3c0.1,3.6-0.8,7.2-2.5,10.3
				c-1.4,2.6-3.7,4.5-6.5,5.3c6,2.3,9,7.9,9,16.9c0,6.9-1.5,12.3-4.6,16.2s-7.9,5.9-14.6,5.8C57.8,109,52.8,107.1,49.8,103.3z"/>
			<path d="M49.4,102.9c-3-3.8-4.5-9.1-4.5-16v-2.5h13.6v2.4c0,3.7,0.5,6.3,1.3,7.9s2.3,2.4,4.5,2.4c2.2,0,3.7-0.8,4.4-2.4
				s1.2-4.2,1.2-7.9c0-3.8-0.6-6.7-1.7-8.5S65,75.4,62,75.3c-0.8-0.1-1.6-0.1-2.4-0.1v-10h2.1c3.1,0,5.3-0.8,6.5-2.5
				s1.8-4.4,1.8-8.1c0-3.1-0.4-5.3-1.3-6.8c-0.8-1.5-2.4-2.2-4.6-2.2s-3.6,0.8-4.3,2.4c-0.9,2.2-1.3,4.6-1.3,7v3.2H44.9v-3.9
				c0-6.3,1.7-11.1,5-14.5c3.3-3.4,8.1-5.1,14.2-5.1c6.1,0,10.9,1.7,14.2,5c3.4,3.3,5,8.1,5.1,14.3c0.1,3.6-0.8,7.2-2.5,10.3
				c-1.4,2.6-3.7,4.5-6.5,5.3c6,2.3,9,7.9,9,16.9c0,6.9-1.5,12.3-4.6,16.2s-7.9,5.9-14.6,5.8C57.3,108.6,52.4,106.7,49.4,102.9z"/>
			<path d="M49,102.5c-3-3.8-4.5-9.1-4.5-16V84h13.6v2.4c0.1,3.7,0.5,6.3,1.3,7.9c0.8,1.6,2.3,2.4,4.5,2.4s3.7-0.8,4.4-2.4
				s1.2-4.3,1.2-7.9c0-3.8-0.6-6.7-1.7-8.6s-3.2-2.8-6.2-2.9c-0.8-0.1-1.6-0.1-2.4-0.1v-10h2.1c3.1,0,5.3-0.8,6.5-2.5
				s1.8-4.4,1.8-8.1c0-3.1-0.4-5.3-1.3-6.8s-2.4-2.2-4.6-2.2s-3.6,0.8-4.3,2.4c-0.9,2.2-1.3,4.7-1.2,7.1v3.2H44.5v-3.9
				c0-6.3,1.7-11.1,5-14.5c3.3-3.4,8.1-5.1,14.2-5.1c6.1,0,10.9,1.7,14.3,5c3.4,3.3,5,8.1,5,14.3c0.1,3.6-0.7,7.2-2.4,10.3
				c-1.4,2.6-3.7,4.5-6.5,5.3c6,2.3,9,7.9,9,16.9c0,6.9-1.5,12.3-4.6,16.2c-3.1,3.9-7.9,5.9-14.6,5.8C56.9,108.2,52,106.3,49,102.5z
				"/>
			<path d="M48.6,102.1c-3-3.8-4.5-9.1-4.5-16v-2.5h13.6V86c0.1,3.7,0.5,6.3,1.3,7.9c0.8,1.6,2.3,2.4,4.5,2.4s3.7-0.8,4.4-2.4
				s1.1-4.3,1.1-7.9c0-3.8-0.6-6.7-1.7-8.6s-3.2-2.8-6.2-2.9c-0.8-0.1-1.6-0.1-2.4-0.1v-10h2.1c3.1,0,5.3-0.8,6.5-2.5
				s1.8-4.4,1.8-8.1c0-3.1-0.4-5.3-1.3-6.8s-2.4-2.2-4.6-2.2s-3.6,0.8-4.3,2.4c-0.9,2.2-1.3,4.7-1.2,7.1v3.2H44.1v-4
				c0-6.3,1.7-11.1,5-14.5c3.3-3.4,8.1-5.1,14.2-5.1c6.1,0,10.9,1.7,14.3,5c3.4,3.3,5,8.1,5,14.3c0.1,3.6-0.8,7.2-2.5,10.3
				c-1.4,2.6-3.7,4.5-6.5,5.3c6,2.3,9,7.9,9,16.9c0,6.9-1.5,12.3-4.6,16.2s-7.9,5.9-14.6,5.8C56.5,107.8,51.6,105.9,48.6,102.1z"/>
			<path d="M48.2,101.7c-3-3.8-4.5-9.1-4.5-16v-2.5h13.6v2.4c0.1,3.7,0.5,6.3,1.3,7.9c0.8,1.6,2.3,2.4,4.5,2.4s3.7-0.8,4.4-2.4
				s1.2-4.3,1.2-7.9c0-3.8-0.6-6.7-1.7-8.6c-1.2-1.9-3.2-2.8-6.2-2.9C60,74,59.2,73.9,58.4,74V64h2.1c3.1,0,5.3-0.8,6.5-2.5
				s1.8-4.4,1.8-8.1c0-3.1-0.4-5.3-1.3-6.8s-2.4-2.2-4.6-2.2s-3.6,0.8-4.3,2.4c-0.9,2.2-1.3,4.7-1.2,7.1V57H43.7v-3.9
				c0-6.3,1.7-11.1,5-14.5s8.1-5.1,14.2-5.1c6.1,0,10.9,1.7,14.2,5s5,8.1,5,14.3c0.1,3.6-0.8,7.2-2.5,10.4c-1.4,2.6-3.7,4.5-6.5,5.3
				c6,2.3,9,7.9,9,16.9c0,6.9-1.5,12.3-4.6,16.2s-7.9,5.9-14.5,5.8C56.1,107.4,51.2,105.5,48.2,101.7z"/>
		</g>
		<path class="st1" d="M64.1,107.5H64c-7.2,0-12.5-2.1-15.7-6.2l0,0c-3.2-4-4.8-9.6-4.8-16.8v-3.7h16v3.6c0,3.4,0.5,5.9,1.2,7.3
			c0.4,0.8,1.2,1.8,3.5,1.8l0,0c2.2,0,3-1,3.3-1.8c0.7-1.5,1-4,1-7.4S68,78.2,67,76.5s-2.7-2.3-5.3-2.3L61.2,74c-0.6,0-1.3,0-1.9,0
			h-1.1V61.8h3.3c2.7,0,4.5-0.7,5.5-2s1.6-4,1.6-7.5c0-2.8-0.4-4.9-1.1-6.2c-0.6-1.1-1.8-1.6-3.5-1.6l0,0c-2.2,0-2.9,1-3.2,1.7
			c-0.8,2.1-1.2,4.3-1.1,6.6v4.3h-16V52c0-6.5,1.8-11.7,5.4-15.3s8.6-5.4,14.9-5.4H64c6.4,0,11.5,1.8,15.1,5.3s5.4,8.6,5.4,15.1
			c0.1,3.8-0.8,7.6-2.7,11c-1.1,2-2.7,3.6-4.6,4.8c4.9,3,7.3,8.6,7.3,16.8c0,7.1-1.6,12.8-4.8,17S71.1,107.5,64.1,107.5z M45.9,83.3
			v1.3c0,6.6,1.4,11.8,4.3,15.3l0,0c2.8,3.5,7.4,5.2,13.9,5.3h0.1c6.2,0,10.8-1.8,13.6-5.4s4.3-8.9,4.3-15.5
			c0-8.6-2.7-13.8-8.3-15.8l-3.4-1.3l3.6-0.9c2.5-0.7,4.6-2.4,5.8-4.8c1.7-3,2.5-6.3,2.4-9.8c0-5.8-1.6-10.4-4.7-13.4
			s-7.6-4.7-13.4-4.7h-0.1c-5.7,0-10.1,1.6-13.2,4.8s-4.7,7.8-4.7,13.7v2.7h11.3v-2c-0.1-2.6,0.4-5.2,1.3-7.6c0.7-1.4,2.2-3,5.4-3
			l0,0c2.6,0,4.5,1,5.6,2.8c1,1.7,1.4,4.1,1.4,7.4c0,4.1-0.7,7-2,8.8s-3.9,3-7.4,3h-1v7.7c0.5,0,0.9,0,1.4,0.1
			c3.4,0.1,5.7,1.3,7.1,3.4s2,5,2,9.1c0,3.9-0.4,6.6-1.3,8.4C69,94.3,67.5,96,64.2,96l0,0c-3.3,0-4.8-1.7-5.5-3
			c-0.9-1.8-1.4-4.5-1.5-8.4v-1.3L45.9,83.3z"/>
		<path class="st1" d="M64.7,106.9L64.7,106.9c-7.3,0-12.6-2.1-15.8-6.2l0,0c-3.2-4-4.8-9.6-4.8-16.8v-3.7h16v3.6
			c0,3.4,0.5,5.9,1.2,7.3c0.4,0.8,1.2,1.8,3.5,1.8l0,0c2.2,0,3-1,3.3-1.8c0.7-1.5,1-4,1-7.4s-0.5-6.3-1.6-7.9s-2.6-2.2-5.2-2.3
			l-0.5-0.1c-0.6,0-1.3,0-1.9,0h-1.2V61.2h3.3c2.7,0,4.5-0.7,5.5-2s1.6-4,1.6-7.5c0-2.8-0.4-4.9-1.1-6.2c-0.6-1.1-1.8-1.6-3.5-1.6
			l0,0c-2.2,0-2.9,1-3.2,1.7c-0.8,2.1-1.2,4.3-1.1,6.6v4.3l-16,0v-5c0-6.5,1.8-11.7,5.4-15.3s8.6-5.4,14.9-5.4h0.1
			c6.5,0,11.5,1.8,15.1,5.4S85,44.6,85,51.1c0.1,3.8-0.8,7.6-2.7,11c-1.1,2-2.7,3.6-4.7,4.8c4.9,3,7.3,8.6,7.3,16.8
			c0,7.1-1.6,12.8-4.8,17S71.7,106.9,64.7,106.9z M46.5,82.7V84c0,6.6,1.4,11.8,4.2,15.3l0,0c2.8,3.5,7.4,5.2,13.9,5.3h0.1
			c6.2,0,10.8-1.8,13.6-5.4s4.3-8.9,4.3-15.5c0-8.6-2.7-13.7-8.3-15.8l-3.4-1.3l3.6-0.9c2.5-0.7,4.6-2.4,5.8-4.8
			c1.7-3,2.5-6.3,2.4-9.8c0-5.8-1.6-10.4-4.7-13.4S70.3,33,64.5,33h-0.1c-5.7,0-10.1,1.6-13.2,4.7s-4.7,7.8-4.7,13.7v2.7h11.3v-2
			c-0.1-2.6,0.4-5.2,1.3-7.6c0.7-1.4,2.2-3,5.4-3l0,0c2.6,0,4.5,1,5.6,2.8c1,1.7,1.4,4.1,1.4,7.4c0,4.1-0.7,7-2,8.8s-3.8,3-7.4,3
			h-0.9v7.7c0.5,0,0.9,0,1.4,0.1c3.4,0.1,5.7,1.3,7.1,3.4s1.9,5.1,1.9,9.2c0,3.9-0.4,6.6-1.3,8.4c-0.7,1.4-2.2,3.1-5.5,3.1l0,0
			c-3.3,0-4.8-1.7-5.5-3c-0.9-1.8-1.4-4.5-1.5-8.4v-1.4L46.5,82.7z"/>
		<path class="st1" d="M65.3,106.3L65.3,106.3c-7.3,0-12.6-2.1-15.8-6.2l0,0c-3.2-4-4.8-9.6-4.8-16.8v-3.7l16,0.1v3.6
			c0,3.4,0.5,5.9,1.2,7.3c0.4,0.8,1.2,1.8,3.5,1.8l0,0c2.2,0,3-1,3.3-1.8c0.7-1.4,1-3.9,1-7.4s-0.5-6.3-1.6-7.9S65.6,73.1,63,73
			l-0.5-0.1c-0.6,0-1.3,0-1.9,0h-1.2V60.6h3.3c2.7,0.1,4.6-0.7,5.5-2s1.5-4,1.5-7.5c0-2.8-0.4-4.9-1.1-6.2c-0.6-1.1-1.8-1.6-3.6-1.7
			l0,0c-2.2,0-2.9,1-3.2,1.7c-0.8,2.1-1.2,4.3-1.1,6.6v4.3h-16v-5.1c0-6.5,1.8-11.7,5.4-15.3s8.6-5.4,14.9-5.4h0.1
			c6.4,0,11.5,1.8,15.1,5.3s5.4,8.6,5.4,15.1c0.1,3.8-0.8,7.6-2.7,11c-1.1,2-2.7,3.6-4.7,4.8c4.9,3,7.3,8.6,7.3,16.8
			c0,7.1-1.6,12.8-4.8,17S72.3,106.3,65.3,106.3z M47.1,82.1v1.3c0,6.6,1.4,11.8,4.2,15.3l0,0c2.8,3.5,7.4,5.2,13.9,5.3h0.1
			c6.2,0,10.8-1.8,13.6-5.4s4.3-8.9,4.3-15.5c0-8.6-2.7-13.7-8.3-15.8l-3.4-1.3l3.6-0.9c2.5-0.7,4.6-2.4,5.8-4.8
			c1.7-3,2.5-6.3,2.4-9.7c0-5.8-1.6-10.4-4.7-13.4s-7.6-4.7-13.4-4.7H65c-5.7,0-10.1,1.6-13.2,4.7s-4.7,7.8-4.7,13.7v2.7h11.3v-2
			c-0.1-2.6,0.4-5.2,1.4-7.6c0.7-1.4,2.2-3,5.4-3l0,0c2.6,0,4.5,1,5.6,2.8c1,1.7,1.4,4.1,1.4,7.4c0,4.1-0.7,7-2,8.8s-3.9,3-7.4,3
			h-0.9v7.6c0.5,0,0.9,0,1.4,0.1c3.3,0.1,5.7,1.3,7.1,3.4s1.9,5.1,1.9,9.2c0,3.9-0.4,6.6-1.3,8.4c-0.7,1.4-2.2,3.1-5.5,3.1l0,0
			c-3.3,0-4.8-1.7-5.5-3c-0.9-1.8-1.4-4.5-1.5-8.4v-1.3L47.1,82.1z"/>
		<path class="st1" d="M65.9,105.7L65.9,105.7c-7.3,0-12.6-2.1-15.8-6.2l0,0c-3.2-4-4.8-9.6-4.8-16.8v-3.6h16v3.6
			c0,3.4,0.5,5.9,1.2,7.3c0.4,0.8,1.2,1.8,3.5,1.8l0,0c2.2,0,3-1,3.3-1.8c0.7-1.4,1-4,1-7.4s-0.5-6.3-1.6-7.9s-2.7-2.3-5.3-2.3
			L63,72.3c-0.6,0-1.3,0-1.9,0H60V60h3.3c2.7,0,4.5-0.7,5.5-2s1.5-4,1.5-7.5c0-2.8-0.4-4.9-1.1-6.2c-0.6-1.1-1.8-1.6-3.6-1.6l0,0
			c-2.2,0-2.9,1-3.2,1.7c-0.8,2.1-1.2,4.3-1.1,6.6v4.3l-16,0v-5c0-6.5,1.8-11.7,5.4-15.3s8.6-5.4,14.9-5.4h0.1
			c6.4,0,11.5,1.8,15.1,5.3s5.4,8.6,5.4,15.1c0.1,3.8-0.8,7.6-2.7,11c-1.1,2-2.7,3.6-4.7,4.8c4.9,3,7.3,8.6,7.3,16.8
			c0,7.1-1.6,12.8-4.8,17S72.9,105.7,65.9,105.7z M47.7,81.5v1.3c0,6.6,1.4,11.8,4.3,15.3l0,0c2.8,3.5,7.4,5.2,13.9,5.3h0.1
			c6.2,0,10.8-1.8,13.6-5.4s4.3-8.9,4.3-15.5c0-8.6-2.7-13.7-8.3-15.8l-3.4-1.3l3.6-0.9c2.5-0.7,4.6-2.4,5.8-4.8
			c1.7-3,2.5-6.3,2.4-9.8c0-5.8-1.6-10.4-4.7-13.4s-7.6-4.6-13.4-4.7h-0.1c-5.7,0-10.1,1.6-13.2,4.7s-4.7,7.8-4.7,13.7V53H59v-2
			c-0.1-2.6,0.4-5.2,1.4-7.6c0.7-1.4,2.1-3,5.4-3l0,0c2.6,0,4.5,1,5.6,2.8c1,1.7,1.4,4.1,1.4,7.4c0,4.1-0.7,7-2,8.8s-4,2.9-7.4,3
			h-0.9V70c0.5,0,0.9,0,1.4,0.1c3.3,0.1,5.7,1.3,7.1,3.4s1.9,5.1,1.9,9.2c0,3.9-0.4,6.6-1.3,8.4c-0.7,1.4-2.2,3.1-5.5,3.1l0,0
			c-3.3,0-4.8-1.7-5.6-3c-0.9-1.8-1.4-4.5-1.5-8.4v-1.3L47.7,81.5z"/>
		<path class="st1" d="M66.5,105.1L66.5,105.1c-7.3,0-12.6-2.1-15.8-6.2l0,0c-3.2-4-4.8-9.6-4.8-16.8v-3.7h16v3.6
			c0.1,3.4,0.5,5.9,1.2,7.3c0.4,0.8,1.2,1.8,3.5,1.8l0,0c2.2,0,3-1,3.3-1.7c0.7-1.5,1-4,1-7.4s-0.5-6.3-1.6-7.9
			c-0.9-1.5-2.7-2.3-5.3-2.3l-0.5-0.1c-0.6,0-1.3,0-1.9,0h-1.1V59.4H64c2.7,0,4.5-0.7,5.5-2S71,53.5,71,50c0-2.8-0.4-4.9-1.1-6.2
			c-0.6-1.1-1.8-1.6-3.6-1.6c-2.2,0.1-2.9,1-3.3,1.7c-0.8,2.1-1.2,4.3-1.1,6.6v4.3h-16v-5.1c0-6.5,1.8-11.7,5.4-15.3
			s8.6-5.4,14.9-5.4h0.1c6.4,0,11.5,1.8,15.1,5.3s5.4,8.6,5.4,15.1c0.1,3.8-0.8,7.6-2.7,11c-1.1,2-2.7,3.6-4.7,4.8
			c4.9,3,7.3,8.6,7.3,16.8c0,7.1-1.6,12.8-4.9,17S73.4,105.1,66.5,105.1z M48.3,80.9v1.3c0,6.6,1.4,11.8,4.3,15.3l0,0
			c2.8,3.5,7.4,5.2,13.9,5.3h0.1c6.2,0,10.8-1.8,13.6-5.4s4.3-8.9,4.3-15.5c0-8.6-2.7-13.7-8.3-15.8l-3.4-1.3l3.6-0.9
			c2.5-0.7,4.6-2.4,5.8-4.8c1.7-3,2.5-6.3,2.4-9.8c0-5.8-1.6-10.4-4.7-13.4s-7.6-4.6-13.4-4.7h-0.1c-5.7,0-10.1,1.6-13.2,4.8
			s-4.7,7.8-4.7,13.7v2.7h11.3v-2c-0.1-2.6,0.4-5.2,1.4-7.6c0.7-1.4,2.1-3,5.4-3l0,0c2.6,0,4.5,1,5.6,2.8c1,1.7,1.4,4.1,1.4,7.4
			c0,4.1-0.7,7-2,8.8s-3.9,2.9-7.3,2.9h-1v7.7c0.5,0,0.9,0,1.4,0.1c3.3,0.1,5.7,1.3,7.1,3.4s1.9,5.1,1.9,9.2c0,3.9-0.4,6.6-1.3,8.4
			c-0.7,1.4-2.2,3.1-5.5,3.1l0,0c-3.3,0-4.8-1.7-5.6-3c-0.9-1.8-1.4-4.5-1.5-8.4V81L48.3,80.9z"/>
		<path class="st1" d="M67.1,104.6L67.1,104.6c-7.3,0-12.5-2.1-15.8-6.2l0,0c-3.2-4-4.8-9.6-4.8-16.8V78h16v3.6
			c0.1,3.4,0.5,5.9,1.2,7.3c0.4,0.8,1.2,1.8,3.5,1.8l0,0c2.2,0,3-1,3.3-1.8c0.7-1.5,1-4,1-7.4S71,75.3,70,73.6
			c-0.9-1.5-2.7-2.3-5.3-2.3l-0.5-0.1c-0.6,0-1.3,0-1.9,0h-1.2V58.8h3.3c2.8,0.1,4.6-0.7,5.5-2s1.6-3.9,1.6-7.5
			c0-2.8-0.4-4.9-1.1-6.2c-0.6-1.1-1.8-1.6-3.6-1.6l0,0c-2.2,0-2.9,1-3.2,1.7c-0.8,2.1-1.2,4.3-1.1,6.6v4.3h-16v-5.1
			c0-6.5,1.8-11.7,5.4-15.3s8.6-5.4,14.9-5.4h0.1c6.4,0,11.5,1.8,15.1,5.3s5.4,8.6,5.4,15.1c0.1,3.8-0.8,7.6-2.7,11
			c-1.1,2-2.7,3.6-4.7,4.7c4.9,3,7.3,8.6,7.3,16.8c0,7.1-1.6,12.8-4.9,17S74,104.6,67.1,104.6z M48.8,80.3v1.3
			c0,6.6,1.4,11.8,4.3,15.3l0,0c2.8,3.5,7.4,5.2,13.9,5.3h0.1c6.2,0,10.8-1.8,13.6-5.4S85,87.9,85,81.3c0-8.6-2.7-13.7-8.3-15.8
			l-3.4-1.3l3.6-0.9c2.5-0.7,4.6-2.4,5.8-4.8c1.7-3,2.5-6.3,2.4-9.8c0-5.8-1.6-10.4-4.7-13.4s-7.6-4.6-13.4-4.7h-0.1
			c-5.7,0-10.1,1.6-13.2,4.7s-4.7,7.8-4.7,13.7v2.7h11.3v-2c-0.1-2.6,0.4-5.2,1.4-7.6c0.7-1.4,2.1-3,5.4-3l0,0c2.6,0,4.5,1,5.6,2.8
			c1,1.7,1.4,4.1,1.4,7.4c0,4.1-0.7,7-2,8.8s-3.9,3-7.4,3h-1v7.7c0.5,0,0.9,0,1.4,0.1c3.3,0.1,5.7,1.3,7.1,3.4s1.9,5.1,1.9,9.2
			c0,3.9-0.4,6.6-1.3,8.4c-0.6,1.4-2.1,3-5.4,3l0,0c-3.3,0-4.8-1.7-5.6-3c-0.9-1.8-1.4-4.5-1.5-8.4v-1.2L48.8,80.3z"/>
		<path class="st1" d="M67.7,104L67.7,104c-7.3,0-12.6-2.1-15.8-6.2l0,0c-3.2-4-4.8-9.6-4.8-16.8v-3.7h16V81
			c0.1,3.4,0.5,5.9,1.2,7.3c0.4,0.8,1.2,1.8,3.5,1.8l0,0c2.2,0,3-1,3.3-1.8c0.7-1.5,1-4,1-7.4s-0.5-6.3-1.6-7.9
			c-0.9-1.5-2.7-2.3-5.3-2.3l-0.5-0.1c-0.6,0-1.2,0-1.9,0h-1.1V58.2h3.3c2.7,0,4.5-0.7,5.5-2s1.6-3.9,1.6-7.5c0-2.8-0.4-4.9-1.1-6.2
			c-0.6-1.1-1.8-1.6-3.6-1.6l0,0c-2.2,0-2.9,1-3.2,1.7c-0.8,2.1-1.2,4.3-1.1,6.6v4.3h-16v-5.1c0-6.5,1.8-11.7,5.4-15.3
			s8.6-5.4,14.9-5.4h0.1c6.4,0,11.5,1.8,15.1,5.3S88,41.7,88,48.1c0.1,3.8-0.8,7.6-2.7,11c-1.1,2-2.7,3.6-4.7,4.8
			c4.8,2.9,7.3,8.6,7.3,16.8c0,7.1-1.6,12.8-4.9,17S74.6,104,67.7,104z M49.4,79.7V81c0,6.6,1.4,11.8,4.3,15.3l0,0
			c2.8,3.5,7.4,5.2,13.9,5.3h0.1c6.2,0,10.8-1.8,13.6-5.4s4.3-8.9,4.3-15.5c0-8.6-2.7-13.7-8.3-15.8l-3.4-1.3l3.6-0.9
			c2.5-0.7,4.6-2.4,5.8-4.8c1.6-3,2.5-6.3,2.3-9.8c0-5.8-1.6-10.4-4.7-13.4s-7.6-4.6-13.4-4.7h-0.1c-5.7,0-10.1,1.6-13.2,4.7
			s-4.7,7.8-4.7,13.7v2.7h11.3v-2c-0.1-2.6,0.4-5.2,1.4-7.6c0.7-1.4,2.1-3,5.4-3l0,0c2.6,0,4.5,1,5.6,2.8c1,1.7,1.4,4.1,1.4,7.4
			c0,4.1-0.7,7-2,8.8s-3.9,3-7.4,3h-1v7.7c0.5,0,0.9,0,1.4,0.1c3.3,0.1,5.7,1.3,7.1,3.4s1.9,5.1,1.9,9.2c0,3.9-0.4,6.6-1.3,8.4
			c-0.7,1.4-2.2,3.1-5.5,3.1l0,0c-3.3,0-4.8-1.7-5.6-3c-0.9-1.8-1.4-4.5-1.5-8.4v-1.3L49.4,79.7z"/>
		<path class="st1" d="M68.2,103.4L68.2,103.4c-7.3,0-12.6-2.1-15.8-6.2l0,0c-3.2-4-4.8-9.6-4.8-16.8v-3.7h16v3.6
			c0,3.4,0.5,5.9,1.2,7.3c0.4,0.8,1.2,1.8,3.5,1.8l0,0c2.2,0,3-1,3.3-1.8c0.7-1.5,1-4,1-7.4s-0.5-6.3-1.6-7.9
			c-0.9-1.5-2.7-2.3-5.3-2.3l-0.4,0c-0.6,0-1.2,0-1.9,0h-1.2V57.6h3.4c2.7,0,4.5-0.7,5.5-2s1.6-3.9,1.6-7.5c0-2.8-0.4-4.9-1.1-6.2
			c-0.6-1.1-1.8-1.6-3.5-1.6l0,0c-2.2,0-2.9,1-3.3,1.7c-0.8,2.1-1.2,4.3-1.1,6.6V53h-16v-5.1c0-6.5,1.8-11.7,5.4-15.3
			s8.6-5.4,14.9-5.4h0.1c6.4,0,11.5,1.8,15.1,5.3s5.4,8.6,5.4,15.1c0.1,3.8-0.8,7.6-2.7,11c-1.1,2-2.7,3.6-4.7,4.8
			c4.9,3,7.3,8.6,7.3,16.8c0,7.1-1.6,12.8-4.8,17S75.2,103.4,68.2,103.4z M50,79.2v1.3c0,6.6,1.4,11.8,4.3,15.3l0,0
			c2.8,3.5,7.4,5.2,13.9,5.3h0.1c6.2,0,10.8-1.8,13.6-5.4s4.3-8.9,4.3-15.5c0-8.6-2.7-13.8-8.3-15.8L74.5,63l3.5-0.9
			c2.5-0.7,4.6-2.5,5.8-4.8c1.6-3,2.5-6.3,2.3-9.8c0-5.8-1.6-10.4-4.7-13.4s-7.6-4.6-13.4-4.7h0c-5.7,0-10.1,1.6-13.2,4.7
			S50,42,50,47.9v2.7h11.3v-2c-0.1-2.6,0.4-5.2,1.4-7.6c0.7-1.4,2.1-3,5.4-3l0,0c2.6,0,4.5,1,5.6,2.8c1,1.7,1.4,4.1,1.4,7.4
			c0,4.1-0.7,7-2,8.8s-3.8,3-7.4,3h-1v7.7c0.5,0,0.9,0,1.4,0.1c3.3,0.1,5.7,1.3,7.1,3.4s1.9,5.1,1.9,9.2c0,3.9-0.4,6.6-1.3,8.4
			c-0.7,1.4-2.2,3.1-5.5,3.1l0,0c-3.3,0-4.8-1.7-5.6-3c-0.9-1.8-1.4-4.5-1.5-8.4v-1.3L50,79.2z"/>
		<path class="st1" d="M68.8,102.8L68.8,102.8c-7.3,0-12.6-2.1-15.8-6.2l0,0c-3.2-4-4.8-9.6-4.8-16.8v-3.7l16,0.1v3.6
			c0,3.4,0.5,5.9,1.2,7.3c0.4,0.8,1.2,1.8,3.5,1.8l0,0c2.2,0,3-1,3.3-1.8c0.7-1.5,1-4,1-7.4s-0.5-6.3-1.6-7.9
			c-0.9-1.5-2.7-2.3-5.3-2.3L66,69.4c-0.6,0-1.3,0-1.9,0H63V57h3.3c2.7,0,4.5-0.7,5.5-2s1.6-3.9,1.6-7.5c0-2.8-0.4-4.9-1.1-6.2
			c-0.6-1.1-1.8-1.6-3.5-1.6l0,0c-2.2,0-2.9,1-3.2,1.7c-0.8,2.1-1.2,4.3-1.1,6.6v4.4h-16v-5.1c0-6.5,1.8-11.7,5.4-15.3
			s8.6-5.5,14.9-5.5h0.1c6.4,0,11.5,1.8,15.1,5.3s5.4,8.6,5.4,15.1c0.1,3.8-0.8,7.6-2.7,11c-1.1,2-2.7,3.6-4.6,4.8
			c4.9,3,7.3,8.6,7.3,16.9c0,7.1-1.6,12.8-4.8,17S75.8,102.8,68.8,102.8z M50.6,78.6v1.3c0,6.6,1.4,11.8,4.3,15.3l0,0
			c2.8,3.5,7.4,5.2,13.9,5.3h0.1c6.2,0,10.8-1.8,13.6-5.4s4.3-8.9,4.3-15.5c0-8.6-2.7-13.8-8.3-15.8L75,62.4l3.6-0.9
			c2.5-0.7,4.6-2.5,5.8-4.8c1.6-3,2.5-6.3,2.3-9.7c0-5.8-1.6-10.4-4.7-13.4s-7.6-4.6-13.4-4.7h-0.1c-5.7,0-10.1,1.6-13.2,4.7
			s-4.7,7.8-4.7,13.7V50h11.3v-2c-0.1-2.6,0.4-5.2,1.3-7.6c0.7-1.4,2.1-3,5.4-3l0,0c2.6,0,4.5,1,5.6,2.8c1,1.7,1.4,4.1,1.4,7.4
			c0,4.1-0.7,7-2,8.8s-3.9,3.1-7.4,3h-1v7.7c0.5,0,0.9,0,1.4,0.1c3.3,0.1,5.7,1.3,7.1,3.4s1.9,5.1,1.9,9.2c0,3.9-0.4,6.6-1.3,8.4
			c-0.7,1.4-2.2,3.1-5.5,3.1l0,0c-3.3,0-4.8-1.7-5.6-3c-0.9-1.8-1.4-4.5-1.5-8.4v-1.3L50.6,78.6z"/>
		<path class="st1" d="M69.4,102.2L69.4,102.2c-7.3,0-12.6-2.1-15.8-6.2l0,0c-3.2-4-4.8-9.6-4.8-16.8v-3.7h16v3.6
			c0,3.4,0.5,5.9,1.2,7.3c0.4,0.8,1.2,1.8,3.5,1.8l0,0c2.2,0,3-1,3.3-1.8c0.7-1.5,1-4,1-7.4s-0.5-6.3-1.6-7.9
			c-0.9-1.5-2.7-2.3-5.3-2.3l-0.5-0.1c-0.6,0-1.3,0-1.9,0h-1.1V56.5h3.4c2.7,0,4.5-0.7,5.5-2s1.6-4,1.6-7.5c0-2.8-0.4-4.9-1.1-6.2
			c-0.6-1.1-1.8-1.6-3.5-1.6c-2.2,0.1-2.9,1-3.3,1.7c-0.8,2.1-1.2,4.3-1.1,6.6v4.3h-16v-5.1c0-6.5,1.8-11.7,5.4-15.3
			s8.6-5.5,14.9-5.5h0.1c6.4,0,11.5,1.8,15.1,5.3s5.4,8.6,5.4,15.1c0.1,3.8-0.8,7.6-2.7,11c-1.1,2-2.7,3.6-4.6,4.8
			c4.9,2.9,7.3,8.6,7.3,16.8c0,7.1-1.6,12.8-4.8,17S76.4,102.2,69.4,102.2z M51.2,78v1.3c0,6.6,1.4,11.8,4.3,15.3l0,0
			c2.8,3.5,7.4,5.2,13.9,5.3h0.1c6.2,0,10.8-1.8,13.6-5.4s4.3-8.9,4.3-15.5c0-8.6-2.7-13.8-8.3-15.8l-3.5-1.3l3.6-0.9
			c2.5-0.7,4.6-2.5,5.8-4.8c1.6-3,2.5-6.3,2.3-9.8c0-5.8-1.6-10.4-4.7-13.4s-7.7-4.6-13.4-4.7h-0.1c-5.7,0-10.1,1.6-13.2,4.7
			s-4.7,7.8-4.7,13.7v2.7h11.3v-2c-0.1-2.6,0.4-5.2,1.3-7.6c0.7-1.4,2.2-3,5.4-3l0,0c2.6,0,4.5,1,5.6,2.8c1,1.7,1.4,4.1,1.4,7.4
			c0,4.1-0.7,7-2,8.8s-4,2.9-7.4,3h-0.9v7.7c0.5,0,0.9,0,1.4,0.1c3.3,0.1,5.7,1.3,7.1,3.4s1.9,5.1,1.9,9.2c0,3.9-0.4,6.6-1.3,8.4
			c-0.7,1.4-2.2,3.1-5.5,3.1l0,0c-3.3,0-4.8-1.7-5.5-3c-0.9-1.8-1.4-4.5-1.5-8.4V78H51.2z"/>
		<path class="st1" d="M70,101.6L70,101.6c-7.3,0-12.6-2.1-15.8-6.2l0,0c-3.2-4-4.8-9.6-4.8-16.8V75h16v3.6c0,3.4,0.5,5.9,1.2,7.3
			c0.4,0.8,1.2,1.8,3.5,1.8l0,0c2.2,0,3-1,3.3-1.8c0.7-1.5,1-4,1-7.4S74,72.3,73,70.7s-2.7-2.3-5.3-2.3l-0.5-0.1c-0.6,0-1.3,0-1.9,0
			h-1.2V55.9h3.3c2.7,0,4.5-0.7,5.5-2s1.6-3.9,1.6-7.4c0-2.8-0.4-4.9-1.1-6.2c-0.6-1.1-1.8-1.6-3.5-1.6c-1.3-0.2-2.7,0.5-3.3,1.7
			c-0.8,2.1-1.2,4.3-1.1,6.6v4.3h-16v-5.1c0-6.5,1.8-11.7,5.4-15.3s8.6-5.5,14.9-5.5h0.1c6.4,0,11.5,1.8,15.1,5.3s5.4,8.6,5.4,15.1
			c0.1,3.8-0.8,7.6-2.7,11c-1.1,2-2.7,3.6-4.6,4.8c4.9,3,7.3,8.6,7.3,16.9c0,7.1-1.6,12.8-4.8,17S77,101.6,70,101.6z M51.8,77.4v1.3
			c0,6.6,1.4,11.8,4.3,15.3l0,0c2.8,3.5,7.4,5.2,13.9,5.3H70c6.2,0,10.8-1.8,13.6-5.4S88,85,88,78.4c0-8.6-2.7-13.8-8.3-15.8
			l-3.4-1.3l3.6-0.9c2.5-0.7,4.6-2.4,5.8-4.8c1.7-3,2.5-6.3,2.4-9.8c0-5.8-1.6-10.4-4.7-13.4s-7.6-4.6-13.4-4.7h-0.1
			c-5.7,0-10.1,1.6-13.2,4.8s-4.8,7.8-4.8,13.7v2.7h11.3v-2c-0.1-2.6,0.4-5.2,1.4-7.6c0.7-1.4,2.2-3,5.4-3l0,0c2.6,0,4.5,1,5.6,2.8
			c1,1.7,1.4,4.1,1.4,7.4c0,4.1-0.7,7-2,8.8s-3.9,3-7.4,3h-1v7.7c0.5,0,0.9,0,1.4,0.1c3.3,0.1,5.7,1.3,7.1,3.4s1.9,5.1,1.9,9.2
			c0,3.9-0.4,6.6-1.3,8.4c-0.7,1.4-2.2,3.1-5.5,3.1l0,0c-3.3,0-4.8-1.7-5.6-3c-0.9-1.8-1.4-4.5-1.5-8.4v-1.3L51.8,77.4z"/>
		<path class="st2" d="M55.1,94.7c-3-3.8-4.5-9.1-4.5-16v-2.5h13.6v2.4c0.1,3.7,0.5,6.3,1.3,7.9c0.8,1.6,2.3,2.4,4.5,2.4
			s3.7-0.8,4.4-2.4s1.2-4.3,1.2-7.9c0-3.8-0.6-6.7-1.7-8.5c-1.2-1.9-3.2-2.8-6.2-2.9C66.9,67,66.1,67,65.3,67V57h2.1
			c3.1,0,5.3-0.8,6.5-2.5c1.2-1.6,1.8-4.4,1.8-8.1c0-3.1-0.4-5.3-1.3-6.8c-0.9-1.5-2.4-2.2-4.6-2.2s-3.6,0.8-4.3,2.4
			c-0.9,2.3-1.3,4.7-1.2,7.1V50l-13.6,0v-3.9c0-6.2,1.7-11.1,5-14.5s8.1-5.1,14.2-5.1c6.1,0,10.9,1.7,14.2,5c3.4,3.3,5,8.1,5,14.3
			c0.1,3.6-0.7,7.2-2.5,10.4c-1.4,2.6-3.7,4.5-6.5,5.3c6,2.3,9,7.9,9,16.9c0,6.9-1.5,12.3-4.6,16.2s-7.9,5.9-14.6,5.8
			C63.1,100.4,58.1,98.5,55.1,94.7z"/>
	</g>
</g>
</svg>
