<?xml version="1.0" encoding="utf-8"?>
<!-- Generator: Adobe Illustrator 25.2.0, SVG Export Plug-In . SVG Version: 6.00 Build 0)  -->
<svg version="1.1" id="Layer_1" xmlns="http://www.w3.org/2000/svg" xmlns:xlink="http://www.w3.org/1999/xlink" x="0px" y="0px"
	 viewBox="0 0 138 145" style="enable-background:new 0 0 138 145;" xml:space="preserve">
<style type="text/css">
	.st0{opacity:0.2;}
	.st1{fill:#003C3A;}
	.st2{fill:#FFFFFF;}
</style>
<g>
	<g id="Layer_1_1_">
		<g class="st0">
			<path d="M76.2,101.7l-21.8-0.1V91l18.7-44.2H89v44.6h7v10.3h-7v16.8H76.2V101.7z M76.2,91.4V60.9l-11,30.4L76.2,91.4z"/>
			<path d="M75.8,101.3L54,101.2V90.6l18.7-44.2h15.8V91h7v10.4h-7v16.8H75.8L75.8,101.3z M75.8,91V60.5l-11,30.4L75.8,91z"/>
			<path d="M75.4,100.9l-21.8-0.1V90.2L72.3,46l15.8,0v44.5h7V101h-7v16.8H75.4V100.9z M75.4,90.5V60.1l-11,30.4L75.4,90.5z"/>
			<path d="M75,100.5l-21.8-0.1V89.8l18.7-44.2h15.8v44.6h7v10.4h-7v16.8H75L75,100.5z M75,90.1V59.7L64,90.1L75,90.1z"/>
			<path d="M74.6,100.1L52.8,100V89.4l18.7-44.2l15.8,0v44.5h7v10.4h-7v16.8H74.6L74.6,100.1z M74.6,89.7V59.3l-11,30.4L74.6,89.7z"
				/>
			<path d="M74.2,99.7l-21.8-0.1V89l18.7-44.2h15.8v44.6h7v10.4h-7v16.8H74.2V99.7z M74.2,89.3V58.9l-11,30.4L74.2,89.3z"/>
			<path d="M73.8,99.3L52,99.2V88.6l18.7-44.2l15.8,0v44.5h7v10.4h-7v16.8H73.8V99.3z M73.8,88.9V58.5l-11,30.4L73.8,88.9z"/>
			<path d="M73.3,98.8l-21.8-0.1V88.2L70.2,44h15.8v44.5h7v10.4h-7v16.8H73.3V98.8z M73.3,88.5V58l-11,30.4L73.3,88.5z"/>
			<path d="M72.9,98.4l-21.8-0.1V87.8l18.7-44.2h15.8v44.6h7v10.4h-7v16.8H72.9L72.9,98.4z M72.9,88.1V57.6L62,88.1L72.9,88.1z"/>
			<path d="M72.5,98H50.8V87.3l18.7-44.2h15.8v44.6h7v10.4h-7v16.8H72.5V98z M72.5,87.6V57.2l-11,30.4L72.5,87.6z"/>
			<path d="M72.1,97.6l-21.8-0.1V86.9L69,42.7h15.8v44.6h7v10.4h-7v16.8H72.1L72.1,97.6z M72.1,87.3V56.8l-11,30.4L72.1,87.3z"/>
			<path d="M71.7,97.2l-21.8-0.1V86.5l18.7-44.2h15.8v44.6h7v10.4h-7v16.8H71.7V97.2z M71.7,86.9V56.4l-11,30.4L71.7,86.9z"/>
			<path d="M71.3,96.8l-21.8-0.1V86.1l18.7-44.2H84v44.6h7v10.4h-7v16.8H71.3L71.3,96.8z M71.3,86.4V56l-11,30.4L71.3,86.4z"/>
			<path d="M70.9,96.4l-21.8-0.1V85.7l18.7-44.2l15.8,0v44.5h7v10.4h-7v16.8H70.9V96.4z M70.9,86V55.6L59.9,86L70.9,86z"/>
			<path d="M70.5,96l-21.8-0.1V85.3l18.7-44.2h15.8v44.6h7v10.4h-7v16.8H70.5L70.5,96z M70.5,85.7V55.2l-11,30.4L70.5,85.7z"/>
			<path d="M70.1,95.6l-21.8-0.1V84.9L67,40.7l15.8,0v44.5h7v10.4h-7v16.8H70.1L70.1,95.6z M70.1,85.2V54.8l-11,30.4L70.1,85.2z"/>
			<path d="M69.7,95.2l-21.8-0.1V84.5l18.7-44.2h15.8v44.6h7v10.4h-7V112H69.7V95.2z M69.7,84.8V54.4l-11,30.4L69.7,84.8z"/>
			<path d="M69.3,94.8l-21.8-0.1V84.1l18.7-44.2H82v44.6h7v10.4h-7v16.8H69.3V94.8z M69.3,84.4V54l-11,30.4L69.3,84.4z"/>
			<path d="M68.8,94.4l-21.8-0.1V83.7l18.7-44.2h15.8V84h7v10.4h-7v16.8H68.8V94.4z M68.8,84V53.5L57.9,84H68.8z"/>
			<path d="M68.4,94l-21.8-0.1V83.3l18.7-44.2h15.8v44.6h7V94h-7v16.8H68.4V94z M68.4,83.6V53.1l-11,30.4L68.4,83.6z"/>
			<path d="M68,93.5l-21.8-0.1V82.8l18.7-44.2h15.8v44.6h7v10.4h-7v16.8H68V93.5z M68,83.2V52.7L57,83.2L68,83.2z"/>
			<path d="M67.6,93.1l-21.8-0.1V82.4l18.7-44.2h15.8v44.6h7v10.4h-7V110H67.6V93.1z M67.6,82.8V52.3l-11,30.4L67.6,82.8z"/>
			<path d="M67.2,92.7l-21.8-0.1V82l18.7-44.2L80,37.9v44.5h7v10.4h-7v16.8H67.2L67.2,92.7z M67.2,82.4V51.9l-11,30.4L67.2,82.4z"/>
			<path d="M66.8,92.3L45,92.2V81.6l18.7-44.2h15.8V82h7v10.4h-7v16.8H66.8V92.3z M66.8,82V51.5l-11,30.4L66.8,82z"/>
			<path d="M66.4,91.9l-21.8-0.1V81.2L63.3,37l15.8,0v44.5h7V92h-7v16.8H66.4V91.9z M66.4,81.5V51.1l-11,30.4L66.4,81.5z"/>
			<path d="M66,91.5l-21.8-0.1V80.8l18.7-44.2h15.8v44.6h7v10.4h-7v16.8H66L66,91.5z M66,81.1V50.7L55,81.1L66,81.1z"/>
			<path d="M65.6,91.1L43.8,91V80.4l18.7-44.2l15.8,0v44.5h7v10.4h-7V108H65.6V91.1z M65.6,80.7V50.3l-11,30.4L65.6,80.7z"/>
			<path d="M65.2,90.7l-21.8-0.1V80l18.7-44.2h15.8v44.6h7v10.4h-7v16.8H65.2V90.7z M65.2,80.3V49.9l-11,30.4L65.2,80.3z"/>
			<path d="M64.8,90.3L43,90.2V79.6l18.7-44.2h15.8v44.6h7v10.4h-7v16.8H64.8L64.8,90.3z M64.8,79.9V49.5l-11,30.4L64.8,79.9z"/>
			<path d="M64.3,89.9l-21.8-0.1V79.2L61.2,35h15.8v44.5h7v10.4h-7v16.8H64.3V89.9z M64.3,79.5V49l-11,30.4L64.3,79.5z"/>
			<path d="M63.9,89.4l-21.8-0.1V78.8l18.7-44.2h15.8v44.6h7v10.4h-7v16.8H63.9L63.9,89.4z M63.9,79.1V48.6L53,79.1L63.9,79.1z"/>
		</g>
		<path class="st1" d="M78.9,106.4H63.8V89.6L42,89.5l0.1-12.2l19-44.9h17.8v44.6h7v12.7h-7L78.9,106.4z M66.2,104h10.4V87.2h7v-8
			h-7V34.7H62.7L44.4,77.9v9.2l21.8,0.1V104z M66.2,79.2H52.3l13.8-38.3V79.2z M55.7,76.8h8.1V54.3L55.7,76.8z"/>
		<path class="st1" d="M79.5,105.8H64.4V89l-21.8-0.1l0.1-12.2l19-44.9l17.8,0v44.5h7V89h-7L79.5,105.8z M66.8,103.4h10.4V86.7h7v-8
			h-7V34.1H63.3L45,77.3v9.2l21.8,0.1L66.8,103.4z M66.8,78.6H52.9l13.8-38.4L66.8,78.6z M56.3,76.2h8.1V53.7L56.3,76.2z"/>
		<path class="st1" d="M80.1,105.2H65V88.4l-21.8-0.1l0.1-12.2l19-44.9l17.8,0v44.5h7v12.7h-7L80.1,105.2z M67.3,102.8h10.4V86.1h7
			v-8h-7V33.5H63.9L45.6,76.8V86h21.8V102.8z M67.3,78l-13.8,0l13.8-38.3V78z M56.9,75.7H65V53.1L56.9,75.7z"/>
		<path class="st1" d="M80.7,104.7H65.6V87.8l-21.8-0.1l0.1-12.2l19-44.9l17.8,0v44.5h7v12.7h-7L80.7,104.7z M67.9,102.3h10.4V85.5
			h7v-8h-7V32.9H64.5L46.2,76.2v9.2l21.8,0.1V102.3z M67.9,77.4H54.1l13.8-38.4V77.4z M57.5,75.1h8.1V52.5L57.5,75.1z"/>
		<path class="st1" d="M81.3,104.1H66.2V87.2l-21.8-0.1l0.1-12.2l19-44.9l17.8,0v44.5h7v12.7h-7V104.1z M68.5,101.7h10.4V84.9h7v-8
			h-7V32.4l-13.9,0L46.8,75.6v9.2l21.8,0.1V101.7z M68.5,76.8H54.7l13.8-38.3V76.8z M58,74.5h8.1V51.9L58,74.5z"/>
		<path class="st1" d="M81.9,103.5H66.8V86.6L45,86.6l0.1-12.2l19-44.9l17.8,0V74h7v12.7h-7L81.9,103.5z M69.1,101.1h10.4V84.3h7v-8
			h-7V31.8H65.6L47.3,75v9.2l21.8,0.1L69.1,101.1z M69.1,76.3H55.3L69.1,38V76.3z M58.6,73.9h8.1V51.3L58.6,73.9z"/>
		<path class="st1" d="M82.5,102.9H67.4V86H45.6l0.1-12.2l19-44.9h17.8v44.5h7v12.7h-7L82.5,102.9z M69.7,100.5h10.4V83.7h7v-8h-7
			V31.2H66.2L47.9,74.4v9.2l21.8,0.1V100.5z M69.7,75.7H55.9l13.8-38.3V75.7z M59.2,73.3h8.1V50.8L59.2,73.3z"/>
		<path class="st1" d="M83.1,102.3H68V85.4l-21.8-0.1l0.1-12.2l19-44.9h17.8v44.6h7v12.7h-7L83.1,102.3z M70.3,99.9h10.4V83.1h7v-8
			h-7V30.6H66.8L48.5,73.8V83l21.8,0.1V99.9z M70.3,75.1L56.5,75l13.8-38.3V75.1z M59.8,72.7h8.1V50.2L59.8,72.7z"/>
		<path class="st1" d="M83.6,101.7H68.5V84.8l-21.8-0.1l0.1-12.2l19-44.9l17.8,0v44.5h7v12.7h-7L83.6,101.7z M70.9,99.3h10.4V82.5h7
			v-8h-7V30H67.4L49.1,73.2v9.2l21.8,0.1V99.3z M70.9,74.5H57.1l13.8-38.3V74.5z M60.4,72.1h8.1V49.6L60.4,72.1z"/>
		<path class="st1" d="M84.2,101.1H69.1V84.2l-21.8-0.1l0.1-12.2l19-44.9l17.8,0v44.5h7v12.7h-7L84.2,101.1z M71.5,98.7h10.4V81.9h7
			V74h-7V29.4l-13.9,0L49.7,72.6v9.2l21.8,0.1V98.7z M71.5,73.9H57.7l13.8-38.3V73.9z M61,71.5h8.1V49L61,71.5z"/>
		<path class="st1" d="M84.8,100.5H69.7V83.7l-21.8-0.1L48,71.3l19-44.9l17.8,0V71h7v12.7h-7L84.8,100.5z M72.1,98.1h10.4V81.3h7v-8
			h-7V28.8H68.6L50.3,72.1v9.2l21.8,0.1V98.1z M72.1,73.3H58.2L72.1,35V73.3z M61.6,70.9h8.1V48.4L61.6,70.9z"/>
		<path class="st2" d="M70.9,82.5l-21.8-0.1V71.8l18.7-44.2h15.8v44.6h7v10.4h-7v16.8H70.9V82.5z M70.9,72.1V41.7l-11,30.4
			L70.9,72.1z"/>
	</g>
</g>
</svg>
