<?xml version="1.0" encoding="utf-8"?>
<!-- Generator: Adobe Illustrator 25.2.0, SVG Export Plug-In . SVG Version: 6.00 Build 0)  -->
<svg version="1.1" id="Layer_1" xmlns="http://www.w3.org/2000/svg" xmlns:xlink="http://www.w3.org/1999/xlink" x="0px" y="0px"
	 viewBox="0 0 138 145" style="enable-background:new 0 0 138 145;" xml:space="preserve">
<style type="text/css">
	.st0{opacity:0.2;}
	.st1{fill:#003C3A;}
	.st2{fill:#FFFFFF;}
</style>
<g>
	<g id="Layer_1_1_">
		<g class="st0">
			<path d="M66.1,121c-2.8-1.8-4.8-4.5-5.8-7.7c-1.1-4-1.7-8.2-1.6-12.4h13.8c0,4.3,0.4,7.4,1.2,9.3c1.3,2.6,4.5,3.7,7.1,2.4
				c0.6-0.3,1.2-0.7,1.6-1.3c0.9-1.5,1.5-3.2,1.6-5c0.2-2.1,0.3-5.2,0.3-9.1c0-4.5-0.4-7.9-1.2-10.1c-0.7-2.2-2.8-3.5-5.1-3.4
				c-3.3,0-5.4,2.2-6.3,6.7H59.5l1-42.2l34.1,0.1v12.2l-22.6-0.1l-0.7,16.4c1.2-1.2,2.7-2.1,4.4-2.6c2.1-0.7,4.4-1,6.6-1
				c4.7-0.2,9.1,2.2,11.5,6.2c2.6,4.1,3.9,9.9,3.9,17.2c0.1,4.9-0.4,9.8-1.6,14.6c-0.9,3.6-3,6.9-5.9,9.2c-2.9,2.2-7,3.3-12.4,3.3
				C72.9,123.7,68.9,122.8,66.1,121z"/>
			<path d="M65.7,120.5c-2.8-1.8-4.8-4.5-5.8-7.7c-1.1-4-1.7-8.2-1.6-12.4h13.8c0,4.3,0.4,7.4,1.2,9.3c0.7,1.9,2.6,3.1,4.7,2.9
				c1.6,0.1,3.1-0.6,4-1.8c0.9-1.5,1.5-3.2,1.6-5c0.2-2.1,0.3-5.2,0.3-9.1c0-4.5-0.4-7.9-1.2-10.1c-0.7-2.2-2.8-3.6-5.1-3.4
				c-3.3,0-5.4,2.2-6.3,6.7H59.1l1-42.2l34.1,0.1v12.2L71.7,60l-0.7,16.4c1.2-1.3,2.7-2.2,4.4-2.6c2.1-0.7,4.4-1,6.6-1
				C86.6,72.6,91,75,93.5,79c2.6,4.1,3.9,9.9,3.9,17.2c0.1,4.9-0.4,9.8-1.6,14.6c-0.9,3.6-3,6.9-5.9,9.1c-2.9,2.2-7,3.3-12.4,3.3
				C72.4,123.3,68.5,122.3,65.7,120.5z"/>
			<path d="M65.3,120.1c-2.8-1.8-4.8-4.5-5.8-7.7c-1.1-4-1.6-8.2-1.5-12.4h13.8c0,4.3,0.4,7.4,1.2,9.3c1.3,2.6,4.5,3.6,7.1,2.3
				c0.6-0.3,1.2-0.7,1.6-1.2c0.9-1.5,1.5-3.2,1.6-5c0.2-2.1,0.3-5.2,0.3-9.1c0-4.5-0.4-7.9-1.2-10.1c-0.7-2.2-2.8-3.5-5.1-3.4
				c-3.3,0-5.4,2.2-6.3,6.7H58.7l1-42.2l34.1,0.1v12.2l-22.6-0.1L70.5,76c1.2-1.2,2.7-2.1,4.4-2.6c2.1-0.7,4.4-1,6.6-1
				c4.7-0.2,9,2.1,11.5,6.1c2.6,4.1,3.9,9.9,3.9,17.3c0.1,4.9-0.4,9.8-1.6,14.6c-0.9,3.6-3,6.9-5.9,9.2c-2.9,2.2-7,3.3-12.4,3.3
				C72,122.8,68.1,121.9,65.3,120.1z"/>
			<path d="M64.9,119.7c-2.8-1.8-4.8-4.5-5.8-7.7c-1.1-4-1.7-8.2-1.6-12.4h13.8c0,4.3,0.4,7.4,1.2,9.3c0.7,1.9,2.6,3.1,4.7,2.9
				c1.6,0.1,3.1-0.6,4-1.8c0.9-1.5,1.5-3.2,1.6-5c0.2-2.1,0.3-5.2,0.3-9.1c0-4.5-0.4-7.9-1.2-10.1c-0.7-2.2-2.8-3.6-5.1-3.4
				c-3.3,0-5.4,2.2-6.3,6.7H58.2l1-42.2L93.3,47v12.2l-22.6-0.1L70,75.6c1.2-1.3,2.7-2.2,4.4-2.6c2.1-0.7,4.4-1,6.6-1
				c4.7-0.2,9.1,2.1,11.6,6.1c2.6,4.1,3.9,9.9,3.9,17.2c0.1,4.9-0.4,9.9-1.6,14.7c-0.9,3.6-3,6.8-5.9,9.1c-2.9,2.2-7,3.3-12.4,3.3
				C71.6,122.4,67.7,121.5,64.9,119.7z"/>
			<path d="M64.4,119.3c-2.8-1.8-4.8-4.5-5.8-7.7c-1.1-4-1.7-8.2-1.6-12.4h13.8c0,4.3,0.4,7.4,1.2,9.3c0.7,1.9,2.6,3.1,4.7,2.9
				c1.6,0.1,3.1-0.6,4-1.8c0.9-1.5,1.5-3.2,1.6-5c0.2-2.1,0.3-5.2,0.3-9.1c0-4.5-0.4-7.9-1.2-10.1c-0.7-2.2-2.8-3.6-5.1-3.4
				c-3.3,0-5.4,2.2-6.3,6.7H57.8l1-42.2L93,46.6v12.2l-22.6-0.1l-0.7,16.4c1.2-1.3,2.7-2.2,4.4-2.6c2.1-0.7,4.4-1,6.6-1
				c4.7-0.2,9.1,2.2,11.5,6.2c2.6,4.1,3.9,9.8,3.9,17.2c0.1,4.9-0.4,9.8-1.6,14.6c-0.9,3.6-3,6.9-5.9,9.2c-2.9,2.2-7,3.3-12.4,3.3
				C71.2,122,67.2,121.1,64.4,119.3z"/>
			<path d="M64,118.8c-2.8-1.8-4.8-4.5-5.8-7.7c-1.1-4-1.7-8.2-1.6-12.4h13.8c0,4.3,0.4,7.4,1.2,9.3c0.7,1.9,2.7,3.1,4.7,2.9
				c1.6,0.1,3.1-0.6,4-1.8c0.9-1.5,1.5-3.2,1.6-5c0.2-2.1,0.3-5.2,0.3-9.1c0-4.5-0.4-7.9-1.2-10.1c-0.7-2.2-2.8-3.5-5.1-3.4
				c-3.3,0-5.4,2.2-6.3,6.7H57.4l1-42.2l34.1,0.1v12.2L70,58.3l-0.8,16.4c1.2-1.2,2.7-2.1,4.4-2.6c2.1-0.7,4.4-1,6.6-1
				c4.7-0.2,9.1,2.2,11.5,6.2c2.6,4.1,3.9,9.9,3.9,17.3c0.1,4.9-0.4,9.8-1.6,14.6c-0.9,3.6-3,6.9-5.9,9.2c-2.9,2.2-7.1,3.3-12.4,3.3
				C70.7,121.6,66.8,120.7,64,118.8z"/>
			<path d="M63.6,118.4c-2.8-1.8-4.8-4.5-5.8-7.7c-1.1-4-1.7-8.2-1.5-12.4l13.7,0c0,4.3,0.4,7.4,1.2,9.3c0.7,1.9,2.6,3.1,4.7,2.9
				c1.6,0.1,3.1-0.6,4-1.8c0.9-1.5,1.5-3.2,1.6-5c0.2-2.1,0.3-5.2,0.3-9.1c0-4.5-0.4-7.9-1.2-10.1c-0.7-2.2-2.8-3.6-5.1-3.4
				c-3.3,0-5.4,2.2-6.3,6.7H57l1-42.2l34.1,0.1V58l-22.6-0.1l-0.7,16.4c1.2-1.3,2.7-2.2,4.4-2.6c2.1-0.7,4.4-1,6.6-1
				c4.7-0.2,9.1,2.2,11.5,6.2c2.6,4.1,3.9,9.8,3.9,17.2c0.1,4.9-0.4,9.8-1.6,14.6c-0.9,3.6-3,6.9-5.9,9.2c-2.9,2.2-7.1,3.3-12.4,3.3
				C70.3,121.2,66.4,120.2,63.6,118.4z"/>
			<path d="M63.2,118c-2.8-1.8-4.8-4.5-5.8-7.7c-1.1-4-1.7-8.2-1.6-12.4h13.8c0,4.3,0.4,7.4,1.2,9.3c0.7,1.9,2.6,3.1,4.7,2.9
				c1.6,0.1,3.1-0.6,4-1.8c0.9-1.5,1.5-3.2,1.6-5c0.2-2.1,0.3-5.2,0.3-9.1c0-4.5-0.4-7.9-1.2-10.1c-0.7-2.2-2.8-3.5-5.1-3.4
				c-3.3,0-5.4,2.2-6.3,6.7H56.5l1-42.2l34.1,0.1v12.2l-22.6-0.1l-0.7,16.4c1.2-1.2,2.7-2.1,4.4-2.6c2.1-0.7,4.4-1,6.6-1
				c4.7-0.2,9.1,2.1,11.6,6.1c2.6,4.1,3.9,9.8,3.9,17.2c0.1,4.9-0.4,9.8-1.6,14.6c-0.9,3.6-3,6.9-5.9,9.2c-2.9,2.2-7,3.3-12.4,3.3
				C69.9,120.7,66,119.8,63.2,118z"/>
			<path d="M62.7,117.6c-2.8-1.8-4.8-4.5-5.7-7.7c-1.1-4-1.7-8.2-1.6-12.4h13.8c0,4.3,0.4,7.4,1.2,9.3c0.7,1.9,2.6,3.1,4.6,2.9
				c1.6,0.1,3.1-0.6,4-1.8c0.9-1.5,1.5-3.2,1.6-5c0.2-2.1,0.3-5.2,0.3-9.1c0-4.5-0.4-7.9-1.2-10.1c-0.7-2.2-2.8-3.5-5.1-3.4
				c-3.3,0-5.4,2.2-6.3,6.7H56.1l1-42.2L91.2,45v12.1L68.7,57L68,73.4c1.2-1.2,2.7-2.1,4.4-2.6c2.1-0.7,4.4-1,6.6-1
				c4.7-0.2,9.1,2.2,11.5,6.2c2.6,4.1,3.9,9.9,3.9,17.2c0.1,4.9-0.4,9.8-1.6,14.6c-0.9,3.6-3,6.8-5.9,9.1c-2.9,2.2-7,3.3-12.4,3.3
				C69.5,120.3,65.6,119.4,62.7,117.6z"/>
			<path d="M62.3,117.2c-2.8-1.8-4.8-4.5-5.8-7.7c-1.1-4-1.6-8.2-1.5-12.4h13.8c0,4.3,0.4,7.4,1.2,9.3c0.7,1.9,2.6,3.1,4.7,2.9
				c1.6,0.1,3.1-0.6,4-1.8c0.9-1.5,1.5-3.2,1.6-5c0.2-2.1,0.3-5.2,0.3-9.1c0-4.5-0.4-7.9-1.2-10.1c-0.7-2.2-2.8-3.6-5.1-3.4
				c-3.3,0-5.4,2.2-6.3,6.7H55.7l1-42.2l34.1,0.1v12.2l-22.6-0.1L67.6,73c1.2-1.3,2.7-2.2,4.4-2.6c2.1-0.7,4.4-1,6.6-1
				c4.7-0.2,9.1,2.2,11.5,6.2c2.6,4.1,3.9,9.8,3.9,17.2c0.1,4.9-0.4,9.8-1.6,14.6c-0.9,3.6-3,6.9-5.9,9.2c-2.9,2.2-7,3.3-12.4,3.3
				C69.1,119.9,65.1,119,62.3,117.2z"/>
			<path d="M61.9,116.7c-2.8-1.8-4.8-4.5-5.8-7.7c-1.1-4-1.7-8.2-1.6-12.4h13.8c0,4.3,0.4,7.4,1.2,9.3c0.7,1.9,2.6,3.1,4.7,2.9
				c1.6,0.1,3.1-0.6,4-1.8c0.9-1.5,1.5-3.2,1.6-5c0.2-2.1,0.3-5.2,0.3-9.1c0-4.5-0.4-7.9-1.2-10.1c-0.7-2.2-2.8-3.5-5.1-3.4
				c-3.3,0-5.4,2.2-6.3,6.7H55.2l1-42.2l34.1,0.1v12.2l-22.6-0.1l-0.7,16.4c1.2-1.3,2.8-2.2,4.5-2.6c2.1-0.7,4.4-1,6.6-1
				c4.7-0.2,9.1,2.2,11.5,6.2c2.6,4.1,3.9,9.9,3.9,17.3c0.1,4.9-0.4,9.8-1.5,14.6c-0.9,3.6-3,6.9-5.9,9.2c-2.9,2.2-7,3.3-12.4,3.3
				C68.6,119.5,64.7,118.5,61.9,116.7z"/>
			<path d="M61.5,116.3c-2.8-1.8-4.8-4.5-5.8-7.7c-1.1-4-1.7-8.2-1.5-12.4h13.7c0,4.3,0.4,7.4,1.2,9.3c0.7,1.9,2.6,3.1,4.7,2.9
				c1.6,0.1,3.1-0.6,4-1.8c0.9-1.5,1.5-3.2,1.6-5c0.2-2.1,0.3-5.2,0.3-9.1c0-4.5-0.4-7.9-1.2-10.1c-0.7-2.2-2.8-3.6-5.1-3.4
				c-3.3,0-5.4,2.2-6.3,6.7H54.8l1-42.2l34.1,0.1v12.2l-22.6-0.1l-0.7,16.4c1.2-1.3,2.7-2.2,4.4-2.6c2.1-0.7,4.4-1,6.6-1
				c4.7-0.2,9.1,2.1,11.5,6.1c2.6,4.1,3.9,9.8,3.9,17.2c0.1,4.9-0.4,9.8-1.6,14.6c-0.9,3.6-3,6.9-5.9,9.2c-2.9,2.2-7.1,3.3-12.4,3.3
				C68.2,119,64.3,118.1,61.5,116.3z"/>
			<path d="M61,115.9c-2.8-1.8-4.8-4.5-5.8-7.7c-1.1-4-1.7-8.2-1.6-12.4h13.8c0,4.3,0.4,7.4,1.2,9.3c0.7,1.9,2.6,3.1,4.7,2.9
				c1.6,0.1,3.1-0.6,4-1.8c0.9-1.5,1.5-3.2,1.6-5c0.2-2.1,0.3-5.2,0.3-9.1c0-4.5-0.4-7.9-1.2-10.1c-0.7-2.1-2.8-3.5-5-3.4
				c-3.3,0-5.4,2.2-6.3,6.7H54.5l1-42.2l34.1,0.1v12.2L67,55.3l-0.7,16.4c1.2-1.3,2.7-2.2,4.4-2.6c2.1-0.7,4.4-1,6.6-1
				c4.7-0.2,9.1,2.2,11.5,6.2c2.6,4.1,3.9,9.8,3.9,17.2c0.1,4.9-0.4,9.8-1.6,14.6c-0.9,3.6-3,6.9-5.9,9.2c-2.9,2.2-7,3.3-12.4,3.3
				C67.8,118.6,63.9,117.7,61,115.9z"/>
			<path d="M60.6,115.4c-2.8-1.8-4.8-4.5-5.8-7.7c-1.1-4-1.7-8.2-1.6-12.4H67c0,4.3,0.4,7.4,1.2,9.3c0.7,1.9,2.6,3.1,4.7,2.9
				c1.6,0.1,3.1-0.6,4-1.8c0.9-1.5,1.5-3.2,1.6-5c0.2-2.1,0.3-5.2,0.3-9.1c0-4.5-0.4-7.9-1.2-10.1c-0.7-2.2-2.8-3.5-5.1-3.4
				c-3.3,0-5.4,2.2-6.3,6.7H54l1-42.2l34.1,0.1V55l-22.5-0.1l-0.7,16.4c1.2-1.2,2.7-2.1,4.4-2.6c2.1-0.7,4.4-1,6.6-1
				c4.7-0.2,9.1,2.2,11.5,6.2c2.6,4.1,3.9,9.8,3.9,17.2c0.1,4.9-0.4,9.8-1.6,14.6c-0.9,3.6-3,6.9-5.9,9.2c-2.9,2.2-7.1,3.3-12.4,3.3
				C67.4,118.2,63.4,117.3,60.6,115.4z"/>
			<path d="M60.2,115c-2.8-1.8-4.8-4.5-5.8-7.7c-1.1-4-1.7-8.2-1.6-12.3h13.8c0,4.3,0.4,7.4,1.2,9.3c0.7,1.9,2.6,3.1,4.7,2.9
				c1.6,0.1,3.1-0.6,4-1.8c0.9-1.5,1.5-3.2,1.6-5c0.2-2.1,0.3-5.2,0.3-9.1c0-4.5-0.4-7.9-1.2-10.1c-0.7-2.2-2.8-3.6-5.1-3.4
				c-3.3,0-5.4,2.2-6.3,6.7H53.6l1-42.2l34.1,0.1v12.2l-22.6-0.1l-0.7,16.4c1.2-1.3,2.7-2.2,4.4-2.6c2.1-0.7,4.4-1,6.6-1
				c4.7-0.2,9.1,2.2,11.5,6.2c2.6,4.1,3.9,9.8,3.9,17.2c0.1,4.9-0.4,9.8-1.6,14.6c-0.9,3.6-3,6.9-5.9,9.2c-2.9,2.2-7.1,3.3-12.4,3.3
				C66.9,117.8,63,116.8,60.2,115z"/>
			<path d="M59.8,114.6c-2.8-1.8-4.8-4.5-5.8-7.7c-1.1-4-1.7-8.2-1.6-12.4h13.8c0,4.3,0.4,7.4,1.2,9.3c0.7,1.9,2.6,3.1,4.7,2.9
				c1.6,0.1,3.1-0.6,4-1.8c0.9-1.5,1.5-3.2,1.6-5c0.2-2.1,0.3-5.2,0.3-9.1c0-4.5-0.4-7.9-1.2-10.1c-0.7-2.2-2.8-3.5-5.1-3.4
				c-3.3,0-5.4,2.2-6.3,6.7H53.1l1-42.2L88.3,42v12.2l-22.6-0.1L65,70.5c1.2-1.2,2.7-2.1,4.4-2.6c2.1-0.7,4.4-1,6.6-1
				c4.7-0.2,9.1,2.1,11.5,6.1c2.6,4.1,3.9,9.8,3.9,17.2c0.1,4.9-0.4,9.8-1.6,14.6c-0.9,3.6-3,6.8-5.9,9.1c-2.9,2.2-7,3.3-12.4,3.3
				C66.5,117.3,62.6,116.4,59.8,114.6z"/>
			<path d="M59.3,114.2c-2.8-1.8-4.8-4.5-5.8-7.7c-1.1-4-1.7-8.2-1.6-12.4h13.8c0,4.3,0.4,7.4,1.2,9.3c0.7,1.9,2.6,3.1,4.7,2.9
				c1.6,0.1,3.1-0.6,4-1.8c0.9-1.5,1.5-3.2,1.6-5c0.2-2.1,0.3-5.2,0.3-9.1c0-4.5-0.4-7.9-1.2-10.1c-0.7-2.2-2.8-3.5-5.1-3.4
				c-3.3,0-5.4,2.2-6.3,6.7H52.7l1-42.2l34.1,0.1v12.2l-22.6-0.1L64.6,70c1.2-1.2,2.7-2.1,4.4-2.6c2.1-0.7,4.4-1,6.6-1
				c4.7-0.2,9.1,2.2,11.5,6.2c2.6,4.1,3.9,9.9,3.9,17.2c0.1,4.9-0.4,9.8-1.6,14.6c-0.9,3.6-3,6.9-5.9,9.2c-2.9,2.2-7,3.3-12.4,3.3
				C66.1,116.9,62.2,116,59.3,114.2z"/>
			<path d="M58.9,113.8c-2.8-1.8-4.8-4.5-5.8-7.7c-1.1-4-1.7-8.2-1.6-12.4h13.8c0,4.3,0.4,7.4,1.2,9.3c0.7,1.9,2.6,3.1,4.7,2.9
				c1.6,0.1,3.1-0.6,4-1.8c0.9-1.5,1.5-3.2,1.6-5c0.2-2.1,0.3-5.2,0.3-9.1c0-4.5-0.4-7.9-1.2-10.1c-0.7-2.2-2.8-3.6-5.1-3.4
				c-3.3,0-5.4,2.2-6.3,6.7H52.3l1-42.2l34.1,0.1v12.2l-22.5-0.1l-0.7,16.4c1.2-1.3,2.7-2.2,4.4-2.6c2.1-0.7,4.4-1,6.6-1
				c4.7-0.2,9.1,2.2,11.5,6.2c2.6,4.1,3.9,9.9,3.9,17.2c0.1,4.9-0.4,9.8-1.6,14.5c-0.9,3.6-3,6.9-5.9,9.2c-2.9,2.2-7,3.3-12.4,3.3
				C65.6,116.5,61.7,115.6,58.9,113.8z"/>
			<path d="M58.5,113.3c-2.8-1.8-4.8-4.5-5.8-7.7c-1.1-4-1.7-8.2-1.6-12.4h13.8c0,4.3,0.4,7.4,1.2,9.3c0.7,1.9,2.6,3.1,4.7,2.9
				c1.6,0.1,3.1-0.6,4-1.8c0.9-1.5,1.5-3.2,1.6-5c0.2-2.1,0.3-5.2,0.3-9.1c0-4.5-0.4-7.9-1.2-10.1c-0.7-2.2-2.8-3.5-5.1-3.4
				c-3.3,0-5.4,2.2-6.3,6.7H51.9l1-42.2L87,40.7v12.2l-22.6-0.1l-0.7,16.4c1.2-1.2,2.7-2.1,4.4-2.6c2.1-0.7,4.4-1,6.6-1
				c4.7-0.2,9.1,2.2,11.5,6.2c2.6,4.1,3.9,9.8,3.9,17.2c0.1,4.9-0.4,9.8-1.6,14.6c-0.9,3.6-3,6.9-5.9,9.2c-2.9,2.2-7,3.3-12.4,3.3
				C65.2,116.1,61.3,115.2,58.5,113.3z"/>
			<path d="M58.1,112.9c-2.8-1.8-4.8-4.5-5.8-7.7c-1.1-4-1.7-8.2-1.5-12.4h13.7c0,4.3,0.4,7.4,1.2,9.3c0.7,1.9,2.6,3.1,4.7,2.9
				c1.6,0.1,3.1-0.6,4-1.8c0.9-1.5,1.5-3.2,1.6-5c0.2-2.1,0.3-5.2,0.3-9.1c0-4.5-0.4-7.9-1.2-10.1c-0.7-2.1-2.8-3.5-5.1-3.4
				c-3.3,0-5.4,2.2-6.3,6.7H51.5l1-42.2l34.1,0.1v12.2L64,52.4l-0.7,16.4c1.2-1.3,2.7-2.2,4.4-2.6c2.1-0.7,4.4-1,6.6-1
				c4.7-0.2,9.1,2.2,11.5,6.2c2.6,4.1,3.9,9.8,3.9,17.2c0.1,4.9-0.4,9.8-1.6,14.6c-0.9,3.6-3,6.9-5.9,9.2c-2.9,2.2-7.1,3.3-12.4,3.3
				C64.8,115.6,60.9,114.7,58.1,112.9z"/>
			<path d="M57.7,112.5c-2.8-1.8-4.8-4.5-5.8-7.7c-1.1-4-1.7-8.2-1.6-12.4h13.8c0,4.3,0.4,7.4,1.2,9.3c0.7,1.9,2.6,3.1,4.7,2.9
				c1.6,0.1,3.1-0.6,4-1.8c0.9-1.5,1.5-3.2,1.6-5c0.2-2.1,0.3-5.2,0.3-9.1c0-4.5-0.4-7.9-1.2-10.1c-0.7-2.2-2.8-3.5-5.1-3.4
				c-3.3,0-5.4,2.2-6.3,6.7H51l1-42.2l34.1,0.1V52l-22.6-0.1l-0.7,16.4c1.2-1.3,2.7-2.2,4.4-2.6c2.1-0.7,4.4-1,6.6-1
				c4.7-0.2,9.1,2.1,11.5,6.2c2.6,4.1,3.9,9.8,3.9,17.2c0.1,4.9-0.4,9.8-1.6,14.6c-0.9,3.6-3,6.9-5.9,9.2c-2.9,2.2-7,3.3-12.4,3.3
				C64.4,115.2,60.5,114.3,57.7,112.5z"/>
			<path d="M57.2,112.1c-2.8-1.8-4.8-4.5-5.8-7.7c-1.1-4-1.7-8.2-1.6-12.4h13.8c0,4.3,0.4,7.4,1.2,9.3c0.7,1.9,2.6,3.1,4.7,2.9
				c1.6,0.1,3.1-0.6,4-1.8c0.9-1.5,1.5-3.2,1.6-5c0.2-2.1,0.3-5.2,0.3-9.1c0-4.5-0.4-7.9-1.2-10.1c-0.7-2.2-2.8-3.5-5.1-3.4
				c-3.3,0-5.4,2.2-6.3,6.7H50.6l1-42.2l34.1,0.1v12.2l-22.5-0.1l-0.7,16.4c1.2-1.2,2.7-2.1,4.4-2.6c2.1-0.7,4.4-1,6.6-1
				c4.7-0.2,9.1,2.1,11.5,6.1c2.6,4.1,3.9,9.9,3.9,17.2c0.1,4.9-0.4,9.8-1.6,14.6c-0.9,3.6-3,6.9-5.9,9.2c-2.9,2.2-7.1,3.3-12.4,3.3
				C64,114.8,60,113.9,57.2,112.1z"/>
			<path d="M56.8,111.6c-2.8-1.8-4.9-4.5-5.8-7.6c-1.1-4-1.7-8.2-1.6-12.4h13.8c0,4.3,0.4,7.4,1.2,9.3c0.7,1.9,2.6,3.1,4.7,2.9
				c1.6,0.1,3.1-0.6,4-1.8c0.9-1.5,1.5-3.2,1.6-5c0.2-2.1,0.3-5.2,0.3-9.1c0-4.5-0.4-7.9-1.2-10.1c-0.7-2.2-2.8-3.6-5.1-3.4
				c-3.3,0-5.4,2.2-6.3,6.7L50.2,81l1-42.2L85.3,39v12.2l-22.6-0.1L62,67.5c1.2-1.3,2.7-2.2,4.4-2.6c2.1-0.7,4.4-1,6.6-1
				c4.7-0.2,9.1,2.1,11.6,6.1c2.6,4.1,3.9,9.8,3.9,17.2c0.1,4.9-0.4,9.8-1.6,14.6c-0.9,3.6-2.9,6.9-5.9,9.2
				c-2.9,2.2-7.1,3.3-12.4,3.3C63.5,114.4,59.6,113.4,56.8,111.6z"/>
			<path d="M56.4,111.2c-2.8-1.8-4.8-4.5-5.8-7.7c-1.1-4-1.7-8.2-1.6-12.4h13.8c0,4.3,0.4,7.4,1.2,9.3c0.7,1.9,2.6,3.1,4.7,2.9
				c1.6,0.1,3.1-0.6,4-1.8c0.9-1.5,1.5-3.2,1.6-5c0.2-2.1,0.3-5.2,0.3-9.1c0-4.5-0.4-7.9-1.2-10.1c-0.7-2.1-2.8-3.5-5.1-3.3
				c-3.3,0-5.4,2.2-6.3,6.7H49.8l1-42.2l34.1,0.1v12.2l-22.6-0.1l-0.7,16.4c1.2-1.3,2.7-2.2,4.4-2.6c2.1-0.7,4.4-1,6.6-1
				c4.7-0.2,9.1,2.2,11.5,6.2c2.6,4.1,3.9,9.8,3.9,17.2c0.1,4.9-0.4,9.8-1.6,14.6c-0.9,3.6-3,6.9-5.9,9.2c-2.9,2.2-7,3.3-12.4,3.3
				C63.1,113.9,59.2,113,56.4,111.2z"/>
			<path d="M56,110.8c-2.8-1.8-4.8-4.5-5.8-7.7c-1.1-4-1.7-8.2-1.6-12.4h13.8c0,4.3,0.4,7.4,1.2,9.3c0.7,1.9,2.6,3.1,4.6,3
				c1.6,0.1,3.1-0.6,4-1.8c0.9-1.5,1.5-3.2,1.6-5c0.2-2.1,0.3-5.2,0.3-9.1c0-4.5-0.4-7.9-1.2-10.1c-0.7-2.2-2.8-3.5-5.1-3.4
				c-3.3,0-5.4,2.2-6.3,6.7H49.3l1-42.2l34.1,0.1v12.1l-22.6-0.1l-0.7,16.4c1.2-1.2,2.7-2.1,4.4-2.6c2.1-0.7,4.4-1,6.6-1
				c4.7-0.2,9.1,2.2,11.5,6.2c2.6,4.1,3.9,9.9,3.9,17.2c0.1,4.9-0.4,9.8-1.5,14.6c-0.9,3.6-3,6.9-5.9,9.2c-2.9,2.2-7,3.3-12.4,3.3
				C62.7,113.5,58.8,112.6,56,110.8z"/>
			<path d="M55.5,110.4c-2.8-1.8-4.8-4.5-5.8-7.7c-1.1-4-1.7-8.2-1.6-12.4H62c0,4.3,0.4,7.4,1.2,9.3c0.7,1.9,2.6,3.1,4.7,2.9
				c1.6,0.1,3.1-0.6,4-1.8c0.9-1.5,1.5-3.2,1.6-5c0.2-2.1,0.3-5.2,0.3-9.1c0-4.5-0.4-7.9-1.2-10.1c-0.7-2.2-2.8-3.6-5.1-3.4
				c-3.3,0-5.4,2.2-6.3,6.7H48.9l1-42.2L84,37.7v12.2l-22.5-0.1l-0.7,16.4c1.2-1.3,2.7-2.2,4.4-2.6c2.1-0.7,4.4-1,6.6-1
				c4.7-0.2,9.1,2.2,11.5,6.2c2.6,4.1,3.9,9.8,3.9,17.2c0.1,4.9-0.4,9.8-1.6,14.6c-0.9,3.6-3,6.9-5.9,9.2c-2.9,2.2-7,3.3-12.4,3.3
				C62.3,113.1,58.3,112.2,55.5,110.4z"/>
			<path d="M55.1,109.9c-2.8-1.8-4.8-4.5-5.8-7.7c-1.1-4-1.7-8.2-1.6-12.4h13.8c0,4.3,0.4,7.4,1.2,9.3c0.7,1.9,2.6,3.1,4.7,2.9
				c1.6,0.1,3.1-0.6,4-1.8c0.9-1.5,1.5-3.2,1.6-5c0.2-2.1,0.3-5.2,0.3-9.1c0-4.5-0.4-7.9-1.2-10.1c-0.7-2.2-2.8-3.6-5.1-3.4
				c-3.3,0-5.4,2.2-6.3,6.7H48.5l1-42.2l34.1,0.1v12.2L61,49.4l-0.7,16.4c1.2-1.2,2.7-2.1,4.4-2.6c2.1-0.7,4.4-1,6.6-1
				c4.7-0.2,9.1,2.2,11.5,6.2c2.6,4.1,3.9,9.9,3.9,17.3c0.1,4.9-0.4,9.8-1.6,14.6c-0.9,3.6-3,6.9-5.9,9.2c-2.9,2.2-7,3.3-12.4,3.3
				C61.8,112.7,57.9,111.8,55.1,109.9z"/>
			<path d="M54.7,109.5c-2.8-1.8-4.8-4.5-5.8-7.7c-1.1-4-1.7-8.2-1.5-12.4h13.8c0,4.3,0.4,7.4,1.2,9.3c0.7,1.9,2.6,3.1,4.7,2.9
				c1.6,0.1,3.1-0.6,4-1.8c0.9-1.5,1.5-3.2,1.6-5c0.2-2.1,0.3-5.2,0.3-9.1c0-4.5-0.4-7.9-1.2-10.1c-0.7-2.2-2.8-3.6-5.1-3.4
				c-3.3,0-5.4,2.2-6.3,6.7H48l1-42.2l34.1,0.1V49H60.7l-0.7,16.4c1.2-1.3,2.7-2.2,4.4-2.6c2.1-0.7,4.4-1,6.6-1
				C75.6,61.6,80,64,82.4,68c2.6,4.1,3.9,9.8,3.9,17.2c0.1,4.9-0.4,9.8-1.6,14.6c-0.9,3.6-3,6.8-5.9,9.1c-2.9,2.2-7.1,3.3-12.4,3.3
				C61.4,112.3,57.5,111.3,54.7,109.5z"/>
			<path d="M54.3,109.1c-2.8-1.8-4.8-4.5-5.8-7.7c-1.1-4-1.7-8.2-1.6-12.4h13.8c0,4.3,0.4,7.4,1.2,9.3c0.7,1.9,2.6,3.1,4.7,2.9
				c1.6,0.1,3.1-0.6,4-1.8c0.9-1.5,1.5-3.2,1.6-5c0.2-2.1,0.3-5.2,0.3-9.1c0-4.5-0.4-7.9-1.2-10.1c-0.7-2.2-2.8-3.5-5.1-3.4
				c-3.3,0-5.4,2.2-6.3,6.7H47.6l1-42.2l34.1,0.1v12.2l-22.6-0.1L59.5,65c1.2-1.3,2.7-2.2,4.4-2.6c2.1-0.7,4.4-1,6.6-1
				c4.7-0.2,9.1,2.1,11.5,6.1c2.6,4.1,3.9,9.8,3.9,17.2c0.1,4.9-0.4,9.8-1.6,14.6c-0.9,3.6-3,6.9-5.9,9.2c-2.9,2.2-7,3.3-12.4,3.3
				C61,111.8,57.1,110.9,54.3,109.1z"/>
			<path d="M53.8,108.7c-2.8-1.8-4.8-4.5-5.8-7.7c-1.1-4-1.7-8.2-1.6-12.4h13.8c0,4.3,0.4,7.4,1.2,9.3c0.7,1.9,2.6,3.1,4.7,2.9
				c1.6,0.1,3.1-0.6,4-1.8c0.9-1.5,1.5-3.2,1.6-5c0.2-2.1,0.3-5.2,0.3-9.1c0-4.5-0.4-7.9-1.2-10.1c-0.7-2.2-2.8-3.5-5.1-3.4
				c-3.3,0-5.4,2.2-6.3,6.7H47.2l1-42.2L82.3,36v12.2l-22.5-0.1L59,64.5c1.2-1.2,2.7-2.1,4.4-2.6c2.1-0.7,4.4-1,6.6-1
				c4.7-0.2,9.1,2.2,11.5,6.2c2.6,4.1,3.9,9.9,3.9,17.2c0.1,4.9-0.4,9.9-1.5,14.7c-0.9,3.6-3,6.8-5.9,9.1c-2.9,2.2-7.1,3.3-12.4,3.3
				C60.6,111.4,56.7,110.5,53.8,108.7z"/>
			<path d="M53.4,108.2c-2.8-1.8-4.8-4.5-5.8-7.7c-1.1-4-1.7-8.2-1.6-12.4h13.8c0,4.3,0.4,7.4,1.2,9.3c0.7,1.9,2.6,3.1,4.7,2.9
				c1.6,0.1,3.1-0.6,4-1.8c0.9-1.5,1.5-3.2,1.6-5c0.2-2.1,0.3-5.2,0.3-9.1c0-4.5-0.4-7.9-1.2-10.1c-0.7-2.2-2.8-3.6-5.1-3.4
				c-3.3,0-5.4,2.2-6.3,6.7H46.8l1-42.2l34.1,0.1v12.2l-22.5-0.1l-0.7,16.4c1.2-1.3,2.7-2.2,4.4-2.6c2.1-0.7,4.4-1,6.6-1
				c4.7-0.2,9.1,2.2,11.5,6.2c2.6,4.1,3.9,9.8,3.9,17.2c0.1,4.9-0.4,9.8-1.6,14.6c-0.9,3.6-3,6.9-5.9,9.2c-2.9,2.2-7,3.3-12.4,3.3
				C60.2,111,56.2,110.1,53.4,108.2z"/>
		</g>
		<path class="st1" d="M66.4,111.1h-0.1c-5.2,0-9.4-1-12.4-2.9c-3-1.9-5.3-4.9-6.3-8.3c-1.2-4.1-1.7-8.4-1.6-12.8v-1.2h16.2v1.2
			c0,4.1,0.4,7.1,1.1,8.8c0.6,1.4,2,2.3,3.6,2.1l0,0c1.2,0.1,2.3-0.4,3-1.3c0.8-1.3,1.3-2.9,1.4-4.5c0.2-2.1,0.3-5.1,0.3-9
			c0-4.4-0.4-7.6-1.2-9.7c-0.5-1.7-2.2-2.8-4-2.6l0,0c-1.7,0-4.1,0.6-5.1,5.7l-0.2,1H46.6l1.1-44.6l36.5,0.1v14.6l-22.6-0.1L61,60.4
			c0.9-0.5,1.8-0.9,2.7-1.2c2.2-0.7,4.6-1.1,6.9-1.1h0.1c5.1-0.2,9.9,2.4,12.6,6.7c2.7,4.3,4.1,10.3,4.1,17.9c0.1,5-0.4,10-1.6,14.9
			c-1,3.9-3.2,7.3-6.3,9.8C76.3,109.9,71.9,111.1,66.4,111.1z M55.2,106.1c2.6,1.7,6.3,2.5,11.1,2.6c5.1,0,9-1,11.7-3.1
			c2.7-2.1,4.7-5.1,5.5-8.5c1.1-4.7,1.6-9.5,1.5-14.3c0-7.1-1.2-12.7-3.7-16.6c-2.2-3.7-6.2-5.8-10.5-5.6c-2.1,0-4.2,0.3-6.2,1
			c-1.5,0.4-2.8,1.2-3.8,2.2l-2.3,2.8l1-21.2l22.5,0.1v-9.8l-31.7-0.1l-1,39.8h10c1.5-5.5,4.7-6.7,7.3-6.7l0,0
			c2.8-0.2,5.3,1.5,6.2,4.2c0.8,2.4,1.3,5.9,1.3,10.6c0,3.9-0.1,7-0.3,9.2c-0.1,2-0.7,3.9-1.8,5.6c-1.2,1.6-3,2.5-5,2.3l0,0
			c-2.5,0.2-4.9-1.3-5.8-3.7c-0.9-2.8-1.4-5.7-1.3-8.6H48.4c0,3.7,0.5,7.3,1.5,10.8C50.7,102,52.6,104.5,55.2,106.1L55.2,106.1z"/>
		<path class="st1" d="M67,110.5h-0.1c-5.2,0-9.4-1-12.4-2.9c-3-1.9-5.3-4.9-6.3-8.3c-1.2-4.1-1.7-8.4-1.6-12.8v-1.2h16.2v1.2
			c0,4.1,0.4,7.1,1.1,8.8c0.6,1.4,2,2.3,3.6,2.1l0,0c1.2,0.1,2.3-0.4,3-1.3c0.8-1.3,1.3-2.9,1.4-4.5c0.2-2.1,0.3-5.1,0.3-9
			c0-4.4-0.4-7.6-1.2-9.7c-0.5-1.7-2.2-2.8-4-2.6l0,0c-1.7,0-4.1,0.6-5.1,5.7l-0.2,1H47.2l1.1-44.6l36.5,0.1v14.6l-22.6-0.1
			l-0.6,12.6c0.9-0.5,1.8-0.9,2.7-1.2c2.3-0.7,4.6-1.1,7-1.1c5.1-0.2,9.9,2.4,12.5,6.7c2.7,4.3,4.1,10.3,4.1,17.9
			c0.1,5-0.4,10-1.6,14.9c-1,3.9-3.2,7.3-6.3,9.8C77,109.3,72.6,110.5,67,110.5z M55.8,105.5c2.6,1.7,6.3,2.5,11.1,2.6H67
			c5,0,8.9-1,11.6-3.1c2.7-2.1,4.6-5.1,5.4-8.5c1.1-4.7,1.6-9.5,1.5-14.3c0-7.1-1.2-12.7-3.7-16.6c-2.2-3.6-6.2-5.8-10.4-5.6
			c-2.1,0-4.2,0.3-6.2,1c-1.5,0.4-2.8,1.2-3.8,2.2L59,66l1-21.2l22.5,0.1v-9.8L50.7,35l-1,39.8h10c1.5-5.5,4.7-6.7,7.3-6.7l0,0
			c2.8-0.2,5.3,1.5,6.2,4.2c0.9,2.4,1.3,5.8,1.3,10.6c0,3.9-0.1,7-0.3,9.2c-0.1,2-0.7,3.9-1.8,5.6c-1.2,1.6-3,2.5-5,2.3l0,0
			c-2.5,0.2-4.9-1.3-5.8-3.7c-0.9-2.8-1.4-5.7-1.3-8.6l-11.4,0c0,3.7,0.5,7.3,1.5,10.8C51.3,101.4,53.2,103.9,55.8,105.5L55.8,105.5
			z"/>
		<path class="st1" d="M67.6,109.9h-0.1c-5.2,0-9.4-1-12.4-2.9c-3-1.9-5.3-4.9-6.3-8.3c-1.2-4.1-1.7-8.4-1.6-12.8v-1.2h16.2v1.2
			c0,4.1,0.4,7.1,1.1,8.8c0.5,1.4,2,2.3,3.5,2.2l0,0c1.2,0.1,2.3-0.4,3-1.3c0.8-1.3,1.3-2.9,1.4-4.5c0.2-2.1,0.3-5.1,0.3-9
			c0-4.4-0.4-7.6-1.2-9.7c-0.5-1.7-2.2-2.8-4-2.6l0,0c-1.7,0-4.1,0.6-5.1,5.7l-0.2,1H47.8L49,31.9L85.5,32v14.7l-22.6-0.1l-0.6,12.6
			c0.9-0.5,1.8-0.9,2.7-1.2c2.2-0.7,4.6-1.1,6.9-1.1H72c5.1-0.2,9.9,2.4,12.5,6.8c2.7,4.3,4.1,10.3,4.1,17.9c0.1,5-0.4,10-1.6,14.9
			c-1,3.9-3.2,7.3-6.3,9.8C77.6,108.7,73.2,109.9,67.6,109.9z M56.4,104.9c2.6,1.7,6.3,2.5,11.1,2.6h0.1c5,0,8.9-1,11.6-3.1
			c2.7-2.1,4.7-5.1,5.5-8.5c1.1-4.7,1.6-9.5,1.5-14.3c0-7.1-1.2-12.7-3.7-16.6c-2.2-3.6-6.2-5.8-10.5-5.6c-2.1,0-4.2,0.3-6.2,1
			c-1.5,0.4-2.8,1.2-3.8,2.2l-2.3,2.8l1-21.2l22.5,0.1v-9.8l-31.7-0.1l-1,39.8h10c1.5-5.5,4.7-6.7,7.3-6.7l0,0
			c2.8-0.2,5.3,1.5,6.2,4.2c0.9,2.4,1.3,5.8,1.3,10.6c0,3.9-0.1,7-0.3,9.2c-0.1,2-0.7,4-1.8,5.7c-1.2,1.6-3,2.5-5,2.3l0,0
			c-2.5,0.2-4.9-1.3-5.8-3.7c-0.9-2.8-1.3-5.7-1.3-8.6H49.7c0,3.7,0.5,7.3,1.5,10.8C52,100.8,53.9,103.3,56.4,104.9L56.4,104.9z"/>
		<path class="st1" d="M68.2,109.3h-0.1c-5.2,0-9.4-1-12.4-2.9c-3-1.9-5.3-4.9-6.3-8.3c-1.2-4.1-1.7-8.4-1.6-12.7V84H64v1.3
			c0,4.1,0.4,7.1,1.1,8.8c0.6,1.4,2,2.3,3.6,2.2l0,0c1.2,0.1,2.3-0.4,3-1.3c0.8-1.3,1.3-2.9,1.4-4.5c0.2-2.1,0.3-5.1,0.3-9
			c0-4.4-0.4-7.6-1.2-9.7c-0.5-1.7-2.2-2.8-4-2.6l0,0c-1.7,0-4.1,0.6-5.1,5.7l-0.2,1H48.4l1.1-44.6L86,31.4V46l-22.5,0l-0.6,12.6
			c0.9-0.5,1.8-0.9,2.7-1.2c2.2-0.7,4.6-1.1,6.9-1.1h0.1c5.1-0.2,9.9,2.4,12.5,6.8c2.7,4.3,4.1,10.3,4.1,17.9c0.1,5-0.4,10-1.6,14.9
			c-1,3.9-3.2,7.3-6.3,9.8C78.2,108.1,73.8,109.3,68.2,109.3z M57,104.3c2.6,1.7,6.3,2.5,11.1,2.6h0.1c5,0,8.9-1,11.6-3.1
			c2.7-2.1,4.7-5.1,5.5-8.5c1.1-4.7,1.6-9.5,1.5-14.3c0-7.1-1.2-12.7-3.7-16.6c-2.2-3.7-6.2-5.8-10.5-5.6c-2.1,0-4.2,0.3-6.2,1
			c-1.5,0.4-2.8,1.1-3.9,2.2l-2.3,2.8l1-21.2l22.5,0.1v-9.8L52,33.8l-1,39.8h10c1.5-5.5,4.7-6.7,7.3-6.7l0,0
			c2.8-0.2,5.3,1.5,6.2,4.2c0.9,2.4,1.3,5.8,1.3,10.6c0,3.9-0.1,7-0.3,9.2c-0.1,2-0.7,3.9-1.8,5.6c-1.2,1.6-3,2.5-5,2.3l0,0
			c-2.5,0.2-4.9-1.3-5.8-3.7c-0.9-2.8-1.4-5.7-1.3-8.6H50.3c0,3.7,0.5,7.3,1.5,10.8C52.6,100.2,54.5,102.7,57,104.3L57,104.3z"/>
		<path class="st1" d="M68.8,108.7h-0.1c-5.2,0-9.4-1-12.4-2.9c-3-1.9-5.3-4.9-6.3-8.3c-1.2-4.1-1.7-8.4-1.6-12.8v-1.2h16.2v1.2
			c0,4.1,0.4,7.1,1.1,8.8c0.6,1.4,2,2.3,3.6,2.2l0,0c1.2,0.1,2.3-0.4,3-1.3c0.8-1.3,1.3-2.9,1.4-4.5c0.2-2.1,0.3-5.1,0.3-9
			c0-4.4-0.4-7.6-1.2-9.7c-0.5-1.7-2.2-2.8-4-2.6l0,0c-1.7,0-4.1,0.6-5.1,5.7l-0.2,1H49l1.2-44.6l36.5,0.1v14.6l-22.6-0.1L63.5,58
			c0.9-0.5,1.7-0.9,2.7-1.2c2.2-0.7,4.6-1.1,6.9-1.1h0.1c5.1-0.2,9.9,2.4,12.5,6.8c2.7,4.3,4.1,10.3,4.1,17.9c0.1,5-0.4,10-1.6,14.9
			c-1,3.9-3.2,7.3-6.3,9.8C78.8,107.5,74.4,108.7,68.8,108.7z M57.6,103.7c2.6,1.7,6.3,2.5,11.1,2.6c5.1,0,9-1,11.7-3.1
			c2.7-2.1,4.7-5.1,5.5-8.5c1.1-4.7,1.6-9.5,1.5-14.3c0-7.1-1.2-12.7-3.7-16.6c-2.2-3.7-6.2-5.8-10.5-5.6c-2.1,0-4.2,0.3-6.2,1
			c-1.5,0.4-2.8,1.2-3.8,2.2l-2.3,2.8l1-21.2L84.3,43v-9.8l-31.7-0.1l-1,39.8h10c1.5-5.5,4.7-6.7,7.3-6.7l0,0
			c2.8-0.2,5.3,1.5,6.2,4.2c0.9,2.4,1.4,5.9,1.4,10.6c0,3.9-0.1,7-0.3,9.2c-0.1,2-0.7,3.9-1.8,5.6c-1.2,1.6-3,2.5-5,2.3l0,0
			c-2.5,0.2-4.9-1.3-5.8-3.7c-0.9-2.8-1.4-5.7-1.3-8.6H50.9c0,3.7,0.5,7.3,1.5,10.8C53.2,99.6,55.1,102.1,57.6,103.7L57.6,103.7z"/>
		<path class="st1" d="M69.4,108.1h-0.1c-5.2,0-9.4-1-12.4-2.9c-3-1.9-5.3-4.9-6.3-8.3c-1.2-4.2-1.7-8.5-1.6-12.8v-1.2h16.2V84
			c0,4.1,0.4,7.1,1.1,8.8c0.6,1.4,2,2.3,3.6,2.2l0,0c1.2,0.1,2.3-0.4,3-1.3c0.8-1.3,1.3-2.9,1.4-4.5c0.2-2.1,0.3-5.1,0.3-9
			c0-4.4-0.4-7.6-1.2-9.7c-0.5-1.7-2.2-2.8-4-2.6l0,0c-1.7,0-4.1,0.6-5.1,5.7l-0.2,1H49.6l1.1-44.6l36.5,0.1v14.6l-22.5-0.1
			l-0.6,12.6c0.9-0.5,1.7-0.9,2.7-1.2c2.3-0.7,4.6-1.1,7-1.1c5.1-0.2,9.9,2.4,12.5,6.8c2.7,4.3,4.1,10.3,4.1,17.9
			c0.1,5-0.4,10-1.6,14.9c-1,3.9-3.2,7.3-6.3,9.8C79.4,106.8,75,108.1,69.4,108.1z M58.2,103.1c2.6,1.7,6.3,2.5,11.1,2.6h0.1
			c5,0,8.9-1,11.6-3.1c2.7-2.1,4.7-5.1,5.5-8.5c1.1-4.7,1.6-9.5,1.5-14.3c0-7.1-1.2-12.7-3.7-16.6c-2.2-3.7-6.2-5.8-10.5-5.6
			c-2.1,0-4.2,0.3-6.2,1c-1.5,0.4-2.8,1.2-3.8,2.2l-2.3,2.8l1-21.2l22.5,0.1v-9.8l-31.7-0.1l-1,39.8h10c1.5-5.5,4.7-6.7,7.3-6.7l0,0
			c2.8-0.2,5.3,1.5,6.2,4.2c0.9,2.4,1.3,5.8,1.3,10.6c0,3.9-0.1,7-0.3,9.2c-0.1,2-0.7,3.9-1.8,5.6c-1.2,1.6-3,2.5-5,2.3l0,0
			c-2.5,0.2-4.9-1.3-5.8-3.7c-0.9-2.8-1.4-5.7-1.3-8.6H51.5c0,3.7,0.5,7.3,1.5,10.8C53.8,99,55.7,101.4,58.2,103.1L58.2,103.1z"/>
		<path class="st1" d="M70,107.4h-0.1c-5.2,0-9.4-1-12.4-2.9c-3-1.9-5.2-4.9-6.3-8.3c-1.2-4.1-1.7-8.4-1.6-12.8v-1.2h16.2v1.2
			c0,4.1,0.4,7.1,1.1,8.8c0.6,1.4,2,2.3,3.6,2.2c1.2,0.1,2.3-0.4,3-1.3c0.8-1.3,1.3-2.8,1.5-4.4c0.2-2.1,0.3-5.1,0.3-9
			c0-4.4-0.4-7.6-1.2-9.7c-0.5-1.7-2.2-2.8-4-2.6l0,0c-1.7,0-4.1,0.6-5.1,5.7l-0.2,1H50.3l1.1-44.6l36.5,0.1v14.6l-22.6-0.1
			l-0.6,12.6c0.9-0.5,1.8-0.9,2.7-1.2c2.2-0.7,4.6-1.1,6.9-1.1h0.1c5.1-0.2,9.9,2.4,12.6,6.7c2.7,4.3,4,10.3,4,17.9
			c0.1,5-0.4,10-1.6,14.9c-1,3.9-3.2,7.3-6.3,9.8C80,106.2,75.6,107.4,70,107.4z M58.8,102.4c2.6,1.7,6.3,2.5,11.1,2.6H70
			c5,0,8.9-1,11.6-3.1c2.7-2.1,4.7-5.1,5.5-8.5c1.1-4.7,1.6-9.5,1.5-14.3c0-7.1-1.2-12.7-3.7-16.6c-2.2-3.7-6.2-5.8-10.5-5.6
			c-2.1,0-4.2,0.3-6.2,1c-1.5,0.4-2.8,1.2-3.8,2.2L62,62.9l1-21.2l22.5,0.1V32l-31.7-0.1l-1,39.8h10c1.5-5.4,4.7-6.7,7.3-6.7l0,0
			c2.8-0.2,5.3,1.5,6.2,4.2c0.9,2.4,1.3,5.8,1.3,10.6c0,3.9-0.1,7-0.3,9.2c-0.1,2-0.7,3.9-1.8,5.6c-1.2,1.6-3,2.5-5,2.3l0,0
			c-2.5,0.2-4.9-1.3-5.8-3.7c-0.9-2.8-1.4-5.7-1.3-8.6H52.1c0,3.7,0.5,7.3,1.5,10.8C54.4,98.4,56.3,100.8,58.8,102.4L58.8,102.4z"/>
		<path class="st1" d="M70.6,106.8h-0.1c-5.2,0-9.4-1-12.4-2.9c-3-1.9-5.2-4.9-6.3-8.3c-1.2-4.1-1.7-8.4-1.6-12.8v-1.2h16.2v1.2
			c0,4.1,0.4,7.1,1.1,8.8c0.6,1.4,2,2.3,3.6,2.2l0,0c1.2,0.1,2.3-0.4,3-1.3c0.8-1.3,1.3-2.9,1.4-4.5c0.2-2.1,0.3-5.1,0.3-9
			c0-4.4-0.4-7.6-1.2-9.7c-0.5-1.7-2.2-2.8-4-2.6l0,0c-1.7,0-4.1,0.6-5.1,5.7l-0.2,1H50.9L52,28.9L88.5,29v14.6l-22.6-0.1l-0.6,12.6
			c0.8-0.5,1.7-0.8,2.6-1.1c2.3-0.8,4.6-1.1,7-1.1l0,0c5.1-0.2,9.9,2.4,12.5,6.7c2.7,4.3,4.1,10.3,4.1,17.9c0.1,5-0.4,10-1.6,14.9
			c-1,3.9-3.2,7.3-6.3,9.8C80.6,105.6,76.2,106.8,70.6,106.8z M59.5,101.8c2.6,1.7,6.3,2.5,11.1,2.6c5.1,0,9-1,11.7-3.1
			c2.7-2.1,4.7-5.1,5.5-8.5c1.1-4.7,1.6-9.5,1.5-14.3c0-7.1-1.2-12.7-3.7-16.6c-2.2-3.7-6.2-5.8-10.5-5.6c-2.1,0-4.2,0.3-6.2,1
			c-1.4,0.4-2.7,1.1-3.8,2.2l-2.3,2.8l1-21.2l22.5,0.1v-9.8l-31.7-0.1l-1,39.8h10c1.4-5.5,4.7-6.7,7.3-6.7l0,0
			c2.8-0.2,5.4,1.5,6.2,4.2c0.9,2.4,1.3,5.8,1.3,10.6c0,3.9-0.1,7-0.3,9.2c-0.1,2-0.8,4-1.9,5.7c-1.2,1.6-3,2.5-5,2.3l0,0
			c-2.5,0.2-4.9-1.3-5.8-3.7c-0.9-2.8-1.4-5.7-1.3-8.6L52.7,84c0,3.7,0.5,7.3,1.5,10.8C55,97.7,56.9,100.2,59.5,101.8L59.5,101.8z"
			/>
		<path class="st1" d="M71.2,106.2h-0.1c-5.2,0-9.4-1-12.4-2.9c-3-1.9-5.2-4.9-6.3-8.3c-1.2-4.1-1.7-8.4-1.6-12.8V81H67v1.2
			c0,4.1,0.4,7.1,1.1,8.8c0.6,1.4,2,2.3,3.6,2.2l0,0c1.2,0.1,2.3-0.4,3-1.3c0.8-1.3,1.3-2.9,1.4-4.5c0.2-2.1,0.3-5.1,0.3-9
			c0-4.4-0.4-7.6-1.2-9.7c-0.5-1.7-2.2-2.8-4-2.6l0,0c-1.7,0-4.1,0.6-5.1,5.7l-0.2,1H51.5l1.1-44.6L89,28.4V43l-22.6-0.1L66,55.5
			c0.9-0.5,1.8-0.9,2.7-1.2c2.2-0.7,4.6-1.1,6.9-1.1h0.1c5.1-0.2,9.9,2.4,12.5,6.7c2.7,4.3,4.1,10.3,4.1,17.9c0.1,5-0.4,10-1.6,14.9
			c-1,3.9-3.2,7.3-6.3,9.8C81.2,105,76.8,106.2,71.2,106.2z M60.1,101.2c2.6,1.7,6.3,2.5,11.1,2.6c5.1,0,9-1,11.7-3.1
			c2.7-2.1,4.7-5.1,5.5-8.5c1.1-4.7,1.6-9.5,1.5-14.3c0-7.1-1.2-12.7-3.7-16.6c-2.2-3.7-6.2-5.8-10.5-5.6c-2.1,0-4.2,0.3-6.2,1
			c-1.5,0.4-2.8,1.2-3.8,2.2l-2.3,2.8l1-21.2l22.5,0.1v-9.8L55,30.7l-1,39.7h10c1.4-5.5,4.7-6.7,7.3-6.7l0,0
			c2.8-0.2,5.4,1.5,6.3,4.2c0.9,2.4,1.3,5.8,1.3,10.6c0,3.9-0.1,7-0.3,9.2c-0.1,2-0.7,3.9-1.8,5.6c-1.2,1.6-3,2.5-5,2.3l0,0
			c-2.6,0.2-4.9-1.3-5.8-3.7c-0.9-2.8-1.4-5.7-1.3-8.6H53.3c0,3.7,0.5,7.3,1.5,10.8C55.6,97.1,57.5,99.6,60.1,101.2L60.1,101.2z"/>
		<path class="st1" d="M71.9,105.6h-0.1c-5.2,0-9.4-1-12.4-2.9c-3-1.9-5.3-4.9-6.3-8.3c-1.2-4.1-1.7-8.4-1.6-12.8v-1.2h16.2v1.2
			c0,4.1,0.4,7.1,1.1,8.8c0.6,1.4,2,2.3,3.6,2.2l0,0c1.2,0.1,2.3-0.4,3-1.3c0.8-1.3,1.3-2.9,1.4-4.5c0.2-2.1,0.3-5.1,0.3-9
			c0-4.4-0.4-7.6-1.2-9.7c-0.5-1.7-2.2-2.8-3.9-2.6l0,0c-1.7,0-4.1,0.6-5.1,5.7l-0.2,1H52.2l1.1-44.6l36.5,0.1v14.6l-22.6-0.1
			l-0.6,12.6c0.9-0.5,1.8-0.9,2.7-1.2c2.3-0.7,4.6-1.1,7-1.1c5.1-0.2,9.9,2.4,12.5,6.7c2.7,4.3,4.1,10.3,4.1,17.9
			c0.1,5-0.4,10-1.6,14.9c-1,3.9-3.2,7.3-6.3,9.8C81.8,104.4,77.4,105.6,71.9,105.6z M60.7,100.6c2.6,1.7,6.3,2.5,11.1,2.6h0.1
			c5,0,8.9-1,11.6-3.1c2.7-2.1,4.7-5.1,5.5-8.5c1.1-4.7,1.6-9.5,1.5-14.3c0-7.1-1.2-12.7-3.7-16.6c-2.2-3.7-6.2-5.8-10.5-5.6
			c-2.1,0-4.2,0.3-6.2,1c-1.5,0.4-2.8,1.2-3.8,2.2l-2.3,2.8l1-21.2L87.3,40v-9.8l-31.7-0.1l-1,39.7h10c1.4-5.5,4.7-6.7,7.3-6.7l0,0
			c2.8-0.2,5.3,1.5,6.2,4.2c0.9,2.4,1.3,5.8,1.3,10.6c0,3.9-0.1,7-0.3,9.2c-0.1,2-0.7,3.9-1.8,5.6c-1.2,1.6-3,2.5-5,2.3l0,0
			c-2.5,0.2-4.9-1.3-5.8-3.7c-0.9-2.8-1.4-5.7-1.3-8.6H53.9c0,3.7,0.5,7.3,1.5,10.8C56.2,96.5,58.1,99,60.7,100.6L60.7,100.6z"/>
		<path class="st1" d="M72.5,105h-0.1c-5.2,0-9.4-1-12.4-2.9c-3-1.9-5.3-4.9-6.3-8.3c-1.2-4.1-1.7-8.4-1.6-12.7v-1.2h16.2V81
			c0,4.1,0.4,7.1,1.1,8.8c0.6,1.4,2,2.3,3.6,2.2l0,0c1.2,0.1,2.3-0.4,3-1.3c0.8-1.3,1.3-2.9,1.4-4.5c0.2-2.1,0.3-5.1,0.3-9
			c0-4.4-0.4-7.6-1.2-9.7c-0.6-1.7-2.2-2.7-3.9-2.5l0,0c-1.7,0-4.1,0.6-5.1,5.7l-0.2,1H52.8l1-44.7l36.5,0.1v14.7l-22.6-0.1
			l-0.6,12.6c0.9-0.5,1.8-0.9,2.7-1.2c2.2-0.7,4.6-1.1,6.9-1.1h0.1c5.1-0.2,9.9,2.4,12.5,6.7c2.7,4.3,4.1,10.3,4.1,17.9
			c0.1,5-0.4,10-1.6,14.9c-1,3.9-3.2,7.3-6.3,9.8C82.4,103.8,78.1,105,72.5,105z M61.3,100c2.6,1.7,6.3,2.5,11.1,2.6h0.1
			c5,0,8.9-1,11.6-3.1c2.7-2.1,4.7-5.1,5.5-8.5c1.1-4.7,1.6-9.5,1.5-14.3c0-7.1-1.2-12.7-3.7-16.6c-2.2-3.7-6.2-5.8-10.5-5.6
			c-2.1,0-4.2,0.3-6.2,1c-1.5,0.4-2.8,1.2-3.8,2.2l-2.3,2.8l1-21.2L88,39.4v-9.8l-31.7-0.1l-1,39.7h10c1.4-5.5,4.7-6.7,7.3-6.7l0,0
			c2.8-0.2,5.3,1.5,6.2,4.2c0.9,2.4,1.3,5.8,1.3,10.6c0,3.9-0.1,7-0.3,9.2c-0.1,2-0.7,4-1.8,5.7c-1.2,1.6-3,2.5-5,2.3l0,0
			c-2.5,0.2-4.9-1.3-5.8-3.7c-0.9-2.8-1.4-5.7-1.3-8.6H54.6c0,3.6,0.4,7.3,1.4,10.8C56.8,95.9,58.7,98.4,61.3,100L61.3,100z"/>
		<path class="st2" d="M60.6,101c-2.8-1.8-4.8-4.5-5.8-7.7c-1.1-4-1.7-8.2-1.6-12.3H67c0,4.3,0.4,7.4,1.2,9.3
			c0.7,1.9,2.6,3.1,4.7,2.9c1.6,0.1,3.1-0.6,4-1.8c0.9-1.5,1.5-3.2,1.6-5c0.2-2.1,0.3-5.2,0.3-9.1c0-4.5-0.4-7.9-1.2-10.1
			c-0.7-2.2-2.8-3.5-5.1-3.4c-3.3,0-5.4,2.2-6.3,6.7H53.9l1-42.2l34.1,0.1v12.2l-22.6-0.1l-0.6,16.4c1.2-1.2,2.7-2.1,4.4-2.6
			c2.1-0.7,4.4-1,6.6-1c4.7-0.2,9.1,2.2,11.5,6.2c2.6,4.1,3.9,9.9,3.9,17.2c0.1,4.9-0.4,9.8-1.6,14.6c-0.9,3.6-3,6.9-5.9,9.2
			c-2.9,2.2-7.1,3.3-12.4,3.3C67.4,103.8,63.4,102.8,60.6,101z"/>
	</g>
</g>
</svg>
