<?xml version="1.0" encoding="utf-8"?>
<!-- Generator: Adobe Illustrator 25.2.0, SVG Export Plug-In . SVG Version: 6.00 Build 0)  -->
<svg version="1.1" id="Layer_1" xmlns="http://www.w3.org/2000/svg" xmlns:xlink="http://www.w3.org/1999/xlink" x="0px" y="0px"
	 viewBox="0 0 138 145" style="enable-background:new 0 0 138 145;" xml:space="preserve">
<style type="text/css">
	.st0{opacity:0.2;}
	.st1{fill:#003C3A;}
	.st2{fill:#FFFFFF;}
</style>
<g>
	<g id="Layer_1_1_">
		<g class="st0">
			<path d="M60.7,113.1c-3.2-4.2-4.8-10-4.8-17.2V70.4c0-7.8,1.4-13.8,4.2-18.1c2.8-4.3,7.8-6.4,15-6.4c6.4,0,11,1.5,13.8,4.6
				s4.3,7.6,4.3,13.6v1.2H80.4c0-3.3-0.3-5.6-1-7c-0.7-1.3-2-2-4.2-2c-1.3-0.1-2.5,0.4-3.4,1.3c-0.9,1.3-1.5,2.8-1.6,4.4
				c-0.4,2.9-0.5,5.8-0.5,8.8v7.3c0.9-1.4,2.2-2.4,3.7-3c1.9-0.8,3.9-1.2,6-1.2c5.3,0,9.2,1.9,11.6,5.6s3.6,8.8,3.6,15.1
				c0,7.9-1.5,14-4.4,18.3c-3,4.3-7.9,6.5-14.8,6.5C68.7,119.5,63.9,117.3,60.7,113.1z M79.7,106.3c0.7-2,1.1-5.1,1.1-9.4
				c0-2.3-0.1-4.7-0.3-7c-0.1-1.4-0.7-2.8-1.5-4c-0.9-1.1-2.3-1.6-3.7-1.5c-1.2,0-2.3,0.3-3.3,1c-0.9,0.6-1.7,1.3-2.2,2.2v11.4
				c0,6.8,1.9,10.2,5.6,10.2C77.3,109.4,79.1,108.2,79.7,106.3L79.7,106.3z"/>
			<path d="M60.3,112.7c-3.2-4.2-4.8-10-4.8-17.2V70c0-7.8,1.4-13.8,4.2-18.1s7.8-6.4,15.1-6.4c6.4,0,11,1.5,13.8,4.6
				s4.3,7.6,4.3,13.6V65L80,64.9c0-3.3-0.3-5.6-1-6.9c-0.7-1.3-2-2-4.2-2c-1.3-0.1-2.5,0.4-3.4,1.3c-0.9,1.3-1.5,2.8-1.6,4.4
				c-0.4,2.9-0.5,5.8-0.5,8.8v7.3c0.9-1.4,2.2-2.4,3.7-3c1.9-0.8,3.9-1.1,5.9-1.1c5.3,0,9.2,1.9,11.6,5.6C92.8,83,94,88,94,94.3
				c0,7.9-1.5,14-4.4,18.4c-3,4.3-7.9,6.5-14.8,6.5C68.3,119.1,63.4,116.9,60.3,112.7z M79.3,105.9c0.7-2,1.1-5.1,1.1-9.4
				c0-2.3-0.1-4.7-0.3-7c-0.1-1.4-0.7-2.8-1.5-4c-0.9-1.1-2.3-1.6-3.7-1.5c-1.2,0-2.3,0.3-3.3,1c-0.9,0.6-1.7,1.3-2.2,2.2v11.4
				c0,6.8,1.9,10.2,5.6,10.2C76.9,109,78.7,107.8,79.3,105.9L79.3,105.9z"/>
			<path d="M59.9,112.2c-3.2-4.3-4.8-10-4.8-17.2V69.6c0-7.8,1.4-13.8,4.2-18.1c2.8-4.3,7.8-6.4,15.1-6.4c6.4,0,11,1.5,13.8,4.6
				c2.8,3,4.3,7.6,4.3,13.6v1.2H79.6c0-3.3-0.3-5.6-1-7c-0.7-1.3-2-2-4.2-2c-1.3-0.1-2.5,0.4-3.4,1.3c-0.9,1.3-1.5,2.8-1.6,4.4
				c-0.4,2.9-0.5,5.8-0.4,8.8v7.3c0.9-1.4,2.2-2.4,3.7-3c1.9-0.8,3.9-1.1,5.9-1.1c5.3,0,9.2,1.9,11.6,5.6s3.6,8.8,3.6,15.1
				c0,7.9-1.5,14-4.4,18.4c-3,4.3-7.9,6.5-14.8,6.5C67.9,118.7,63,116.5,59.9,112.2z M78.9,105.5c0.7-2,1.1-5.1,1.1-9.4
				c0-2.3-0.1-4.6-0.3-6.9c-0.1-1.4-0.6-2.8-1.5-4c-0.9-1.1-2.3-1.6-3.7-1.5c-1.2,0-2.3,0.3-3.3,1c-0.9,0.6-1.7,1.3-2.2,2.2v11.4
				c0,6.8,1.9,10.2,5.6,10.2C76.5,108.6,78.3,107.4,78.9,105.5L78.9,105.5z"/>
			<path d="M59.5,111.8c-3.2-4.3-4.8-10-4.8-17.2V69.2c0-7.8,1.4-13.8,4.2-18.1c2.8-4.3,7.8-6.4,15-6.4c6.4,0,11,1.5,13.8,4.6
				s4.3,7.6,4.3,13.6v1.2H79.1c0-3.3-0.3-5.7-1-7c-0.7-1.3-2-2-4.2-2c-1.3-0.1-2.5,0.4-3.4,1.3c-0.9,1.3-1.5,2.8-1.6,4.4
				c-0.4,2.9-0.5,5.8-0.5,8.8v7.3c0.9-1.4,2.2-2.5,3.7-3.1c1.9-0.8,3.9-1.1,5.9-1.1c5.3,0,9.2,1.9,11.6,5.6s3.6,8.7,3.6,15.1
				c0,7.9-1.5,14-4.4,18.4c-3,4.3-7.9,6.5-14.8,6.5C67.5,118.2,62.6,116.1,59.5,111.8z M78.4,105.1c0.7-2,1.1-5.1,1.1-9.4
				c0-2.3-0.1-4.7-0.3-7c-0.1-1.4-0.6-2.8-1.5-4c-0.9-1.1-2.3-1.6-3.7-1.5c-1.2,0-2.3,0.3-3.3,1c-0.9,0.6-1.7,1.3-2.2,2.2v11.4
				c0,6.8,1.9,10.2,5.6,10.2C76.1,108.2,77.9,107,78.4,105.1L78.4,105.1z"/>
			<path d="M59,111.4c-3.2-4.3-4.7-10-4.7-17.2V68.8c0-7.8,1.4-13.8,4.2-18.1c2.8-4.3,7.8-6.4,15-6.4c6.4,0,11,1.5,13.8,4.5
				s4.3,7.6,4.3,13.6v1.2H78.8c0-3.3-0.3-5.7-1-7c-0.7-1.3-2-2-4.2-2c-1.3-0.1-2.5,0.4-3.4,1.3c-0.9,1.3-1.5,2.8-1.6,4.4
				c-0.4,2.9-0.5,5.8-0.5,8.8v7.3c0.9-1.4,2.2-2.4,3.7-3c1.9-0.8,3.9-1.1,5.9-1.1c5.3,0,9.2,1.9,11.6,5.6c2.4,3.7,3.6,8.7,3.6,15
				c0,7.9-1.5,14-4.4,18.4c-3,4.3-7.9,6.5-14.8,6.5C67.1,117.8,62.2,115.7,59,111.4z M78,104.7c0.7-2,1.1-5.1,1.1-9.4
				c0-2.3-0.1-4.7-0.3-7c-0.1-1.4-0.6-2.8-1.5-4c-0.9-1.1-2.3-1.6-3.7-1.5c-1.2,0-2.3,0.3-3.3,1c-0.9,0.6-1.7,1.3-2.2,2.2v11.4
				c0,6.8,1.9,10.2,5.6,10.2C75.6,107.8,77.4,106.6,78,104.7z"/>
			<path d="M58.6,111c-3.2-4.3-4.8-10-4.8-17.2V68.3c0-7.8,1.4-13.8,4.2-18.1c2.8-4.3,7.9-6.4,15-6.4c6.4,0,11,1.5,13.8,4.5
				c2.8,3,4.3,7.6,4.3,13.6v1.2H78.4c0-3.3-0.3-5.7-1-7c-0.7-1.3-2-2-4.2-2c-1.3-0.1-2.5,0.4-3.4,1.3c-0.9,1.3-1.5,2.8-1.6,4.4
				c-0.4,2.9-0.5,5.8-0.5,8.8v7.3c0.9-1.4,2.2-2.4,3.7-3c1.9-0.8,3.9-1.1,5.9-1.1c5.3,0,9.2,1.9,11.6,5.6c2.4,3.7,3.6,8.8,3.6,15.1
				c0,7.9-1.5,14-4.4,18.3c-2.9,4.3-7.9,6.5-14.8,6.5C66.7,117.4,61.8,115.3,58.6,111z M77.6,104.3c0.7-2,1.1-5.1,1.1-9.4
				c0-2.3-0.1-4.6-0.3-6.9c-0.1-1.4-0.6-2.8-1.5-4c-0.9-1.1-2.3-1.6-3.7-1.5c-1.2,0-2.3,0.3-3.3,1c-0.9,0.6-1.7,1.3-2.2,2.2v11.4
				c0,6.8,1.9,10.2,5.6,10.2C75.3,107.4,77,106.2,77.6,104.3L77.6,104.3z"/>
			<path d="M58.2,110.6c-3.2-4.3-4.8-10-4.8-17.2V67.9c0-7.8,1.4-13.8,4.2-18.1s7.8-6.4,15-6.4c6.4,0,11,1.5,13.8,4.5
				s4.3,7.6,4.3,13.6v1.2l-12.8,0c0-3.3-0.3-5.6-1-7s-2-2-4.2-2c-1.3-0.1-2.5,0.4-3.4,1.3c-0.9,1.3-1.5,2.8-1.6,4.4
				c-0.4,2.9-0.5,5.8-0.5,8.8v7.3c0.9-1.4,2.2-2.4,3.7-3c1.9-0.8,3.9-1.1,5.9-1.1c5.3,0,9.2,1.9,11.6,5.6s3.5,8.7,3.5,15
				c0,7.9-1.5,14-4.4,18.3c-2.9,4.3-7.9,6.5-14.8,6.4C66.3,117,61.4,114.9,58.2,110.6z M77.2,103.9c0.7-2,1.1-5.1,1.1-9.4
				c0-2.3-0.1-4.7-0.3-7c-0.1-1.4-0.6-2.8-1.5-4c-0.9-1-2.3-1.6-3.7-1.5c-1.2,0-2.3,0.3-3.3,1c-0.9,0.6-1.7,1.3-2.2,2.2v11.4
				c0,6.8,1.9,10.2,5.6,10.2C74.9,107,76.6,105.8,77.2,103.9L77.2,103.9z"/>
			<path d="M57.8,110.2c-3.2-4.3-4.8-10-4.8-17.2V67.5c0-7.8,1.4-13.8,4.2-18.1s7.8-6.4,15-6.4c6.4,0,11,1.5,13.8,4.5
				s4.3,7.6,4.3,13.6v1.2H77.5c0-3.3-0.3-5.6-1-7s-2-2-4.2-2c-1.3-0.1-2.5,0.4-3.4,1.3c-0.9,1.3-1.5,2.8-1.6,4.4
				c-0.3,2.9-0.5,5.8-0.4,8.8v7.3c0.9-1.4,2.2-2.4,3.7-3c1.9-0.8,3.9-1.1,5.9-1.1c5.3,0,9.2,1.9,11.6,5.6s3.6,8.7,3.6,15.1
				c0,7.9-1.5,14-4.4,18.3s-7.9,6.5-14.8,6.5C65.9,116.6,61,114.5,57.8,110.2z M76.8,103.5c0.7-2,1.1-5.1,1.1-9.4
				c0-2.3-0.1-4.7-0.3-7c-0.1-1.4-0.6-2.8-1.5-4c-0.9-1.1-2.3-1.6-3.7-1.5c-1.2,0-2.3,0.3-3.3,1c-0.9,0.6-1.7,1.3-2.2,2.2v11.4
				c0,6.8,1.9,10.2,5.6,10.2C74.5,106.6,76.2,105.3,76.8,103.5L76.8,103.5z"/>
			<path d="M57.4,109.8c-3.2-4.3-4.8-10-4.8-17.2V67.1c0-7.8,1.4-13.8,4.2-18.1c2.8-4.3,7.8-6.4,15.1-6.4c6.4,0,11,1.5,13.8,4.5
				c2.8,3,4.3,7.6,4.3,13.6v1.2H77.1c0-3.3-0.3-5.6-1-7s-2-2-4.2-2c-1.3-0.1-2.5,0.4-3.4,1.3c-0.9,1.3-1.5,2.8-1.6,4.4
				c-0.4,2.9-0.5,5.8-0.5,8.8v7.3c0.9-1.4,2.2-2.4,3.7-3c1.9-0.8,3.9-1.1,5.9-1.1c5.3,0,9.2,1.9,11.6,5.6s3.6,8.8,3.6,15.1
				c0,7.9-1.5,14-4.4,18.3c-3,4.3-7.9,6.5-14.8,6.4C65.5,116.2,60.6,114,57.4,109.8z M76.4,103.1c0.7-2,1.1-5.1,1.1-9.4
				c0-2.3-0.1-4.7-0.3-7c-0.1-1.4-0.7-2.8-1.5-4c-0.9-1.1-2.3-1.6-3.7-1.5c-1.2,0-2.3,0.3-3.3,1c-0.9,0.6-1.7,1.3-2.2,2.2v11.4
				c0,6.8,1.9,10.2,5.6,10.2C74,106.2,75.8,104.9,76.4,103.1L76.4,103.1z"/>
			<path d="M57,109.4c-3.2-4.3-4.8-10-4.8-17.2V66.7c0-7.8,1.4-13.8,4.2-18.1c2.8-4.3,7.8-6.4,15.1-6.4c6.4,0,11,1.5,13.8,4.5
				s4.3,7.6,4.3,13.6v1.2H76.7c0-3.3-0.3-5.6-1-7c-0.7-1.4-2.1-2-4.2-2c-1.3-0.1-2.5,0.4-3.3,1.3c-0.9,1.3-1.5,2.8-1.6,4.4
				c-0.4,2.9-0.5,5.8-0.5,8.8v7.2c0.9-1.4,2.2-2.4,3.7-3c1.9-0.8,3.9-1.1,5.9-1.1c5.3,0,9.2,1.9,11.6,5.6s3.6,8.8,3.6,15
				c0,7.9-1.5,14-4.4,18.3c-3,4.3-7.9,6.5-14.8,6.5C65.1,115.8,60.2,113.6,57,109.4z M76,102.7c0.7-2,1.1-5.1,1.1-9.4
				c0-2.3-0.1-4.6-0.3-6.9c-0.1-1.4-0.7-2.8-1.5-4c-0.9-1.1-2.3-1.6-3.7-1.5c-1.2,0-2.3,0.3-3.3,1c-0.9,0.6-1.7,1.3-2.2,2.2v11.4
				c0,6.8,1.9,10.2,5.6,10.2C73.6,105.8,75.4,104.5,76,102.7z"/>
			<path d="M56.6,109c-3.2-4.3-4.8-10-4.8-17.2V66.3c0-7.8,1.4-13.8,4.2-18.1s7.8-6.4,15-6.4c6.4,0,11,1.5,13.8,4.6S89.2,54,89.2,60
				v1.2H76.3c0-3.3-0.3-5.6-1-7c-0.7-1.3-2-2-4.2-2c-1.3-0.1-2.5,0.4-3.4,1.3c-0.9,1.3-1.5,2.8-1.6,4.4c-0.4,2.9-0.5,5.8-0.5,8.8V74
				c0.9-1.4,2.2-2.4,3.7-3c1.9-0.8,3.9-1.1,5.9-1.1c5.3,0,9.2,1.9,11.6,5.6s3.6,8.8,3.6,15c0,7.9-1.5,14-4.4,18.3
				c-3,4.3-7.9,6.5-14.8,6.5C64.6,115.4,59.8,113.2,56.6,109z M75.6,102.3c0.7-2,1.1-5.1,1.1-9.4c0-2.3-0.1-4.7-0.3-7
				c-0.1-1.4-0.7-2.8-1.5-4c-0.9-1.1-2.3-1.6-3.7-1.5c-1.2,0-2.3,0.3-3.3,1c-0.9,0.6-1.7,1.3-2.2,2.2V95c0,6.8,1.9,10.2,5.6,10.2
				C73.2,105.3,75,104.1,75.6,102.3L75.6,102.3z"/>
			<path d="M56.2,108.6c-3.2-4.2-4.8-10-4.8-17.2V65.9c0-7.8,1.4-13.8,4.2-18.1s7.8-6.4,15-6.4c6.4,0,11,1.5,13.8,4.6
				s4.3,7.6,4.3,13.6v1.2H75.9c0-3.3-0.3-5.6-1-7c-0.7-1.3-2-2-4.2-2c-1.3-0.1-2.5,0.4-3.4,1.3c-0.9,1.3-1.5,2.8-1.6,4.4
				c-0.4,2.9-0.5,5.8-0.5,8.8v7.3c0.9-1.4,2.2-2.4,3.7-3c1.9-0.8,3.9-1.1,5.9-1.1c5.3,0,9.2,1.9,11.6,5.6c2.4,3.7,3.6,8.7,3.7,15
				c0,7.9-1.5,14-4.4,18.4c-3,4.3-7.9,6.5-14.8,6.5C64.3,115,59.4,112.9,56.2,108.6z M75.2,101.8c0.7-2,1.1-5.1,1.1-9.4
				c0-2.3-0.1-4.7-0.3-7c-0.1-1.4-0.7-2.8-1.5-4c-0.9-1.1-2.3-1.6-3.7-1.5c-1.2,0-2.3,0.3-3.3,1c-0.9,0.6-1.7,1.3-2.2,2.2v11.4
				c0,6.8,1.9,10.2,5.6,10.2C72.8,104.9,74.6,103.7,75.2,101.8L75.2,101.8z"/>
			<path d="M55.8,108.2c-3.2-4.3-4.8-10-4.8-17.2V65.5c0-7.8,1.4-13.8,4.2-18.1c2.8-4.3,7.8-6.4,15-6.4c6.4,0,11,1.5,13.8,4.6
				s4.3,7.6,4.3,13.6v1.2H75.5c0-3.3-0.3-5.6-1-7c-0.7-1.3-2-2-4.2-2c-1.3-0.1-2.5,0.4-3.3,1.3c-0.9,1.3-1.5,2.8-1.6,4.4
				c-0.4,2.9-0.5,5.9-0.5,8.8v7.3c0.9-1.4,2.2-2.4,3.7-3c1.9-0.8,3.9-1.1,5.9-1.1c5.3,0,9.2,1.9,11.6,5.6c2.4,3.7,3.6,8.8,3.6,15.1
				c0,7.9-1.5,14-4.4,18.4c-3,4.3-7.9,6.5-14.8,6.5C63.8,114.6,59,112.4,55.8,108.2z M74.8,101.4c0.7-2,1.1-5.1,1.1-9.4
				c0-2.3-0.1-4.7-0.3-7c-0.1-1.5-0.7-2.8-1.6-4c-0.9-1.1-2.3-1.6-3.7-1.5c-1.2,0-2.3,0.3-3.3,1c-0.9,0.6-1.7,1.3-2.2,2.2v11.5
				c0,6.8,1.9,10.2,5.6,10.2C72.4,104.5,74.2,103.3,74.8,101.4L74.8,101.4z"/>
			<path d="M55.4,107.8c-3.2-4.3-4.8-10-4.8-17.2V65.1c0-7.8,1.4-13.8,4.2-18.1s7.8-6.4,15-6.4c6.4,0,11,1.5,13.8,4.6
				s4.3,7.6,4.4,13.6V60H75.1c0-3.3-0.3-5.6-1-7c-0.7-1.3-2-2-4.2-2c-1.3-0.1-2.5,0.4-3.4,1.3c-0.9,1.3-1.5,2.9-1.6,4.5
				c-0.4,2.9-0.5,5.8-0.5,8.8v7.3c0.9-1.4,2.2-2.4,3.7-3C70,69,72,68.7,74,68.7c5.3,0,9.2,1.9,11.6,5.6c2.4,3.7,3.6,8.7,3.6,15
				c0,7.9-1.5,14-4.4,18.4c-3,4.3-7.9,6.5-14.7,6.5C63.4,114.1,58.5,112,55.4,107.8z M74.4,101c0.7-2,1.1-5.1,1.1-9.4
				c0-2.3-0.1-4.6-0.3-6.9c-0.1-1.4-0.6-2.8-1.5-4c-0.9-1.1-2.3-1.6-3.7-1.5c-1.2,0-2.3,0.3-3.3,1c-0.9,0.6-1.7,1.3-2.2,2.2v11.4
				c0,6.8,1.9,10.2,5.6,10.2C72,104.1,73.8,102.9,74.4,101L74.4,101z"/>
			<path d="M55,107.3c-3.2-4.3-4.8-10-4.8-17.2V64.7c0-7.8,1.4-13.8,4.2-18.1s7.8-6.4,15-6.4c6.4,0,11,1.5,13.8,4.5
				c2.8,3,4.3,7.6,4.3,13.6v1.2H74.7c0-3.3-0.3-5.7-1-7c-0.7-1.3-2-2-4.2-2c-1.3-0.1-2.5,0.4-3.3,1.4c-0.9,1.3-1.5,2.8-1.6,4.4
				c-0.4,2.9-0.5,5.8-0.5,8.8v7.2c0.9-1.4,2.2-2.4,3.7-3c1.9-0.8,3.9-1.1,5.9-1.1c5.3,0,9.2,1.9,11.6,5.6c2.4,3.7,3.6,8.8,3.6,15.1
				c0,7.9-1.5,14-4.4,18.4c-3,4.3-7.9,6.5-14.8,6.5C63,113.7,58.2,111.6,55,107.3z M74,100.6c0.7-2,1.1-5.1,1.1-9.4
				c0-2.3-0.1-4.7-0.3-7c-0.1-1.4-0.6-2.8-1.5-4c-0.9-1.1-2.3-1.6-3.7-1.5c-1.2,0-2.3,0.3-3.3,1c-0.9,0.6-1.7,1.4-2.3,2.3v11.4
				c0,6.8,1.9,10.2,5.6,10.2C71.6,103.7,73.4,102.5,74,100.6L74,100.6z"/>
			<path d="M54.5,106.9c-3.2-4.3-4.8-10-4.8-17.2V64.2c0-7.8,1.4-13.8,4.2-18.1c2.8-4.3,7.9-6.4,15.1-6.4c6.4,0,11,1.5,13.8,4.5
				c2.8,3,4.3,7.6,4.3,13.7v1.2H74.3c0-3.3-0.3-5.7-1-7c-0.7-1.3-2-2-4.2-2c-1.3-0.1-2.5,0.4-3.4,1.3c-0.9,1.3-1.5,2.8-1.6,4.4
				c-0.4,2.9-0.5,5.8-0.5,8.8V72c0.9-1.4,2.2-2.4,3.7-3c1.9-0.8,3.9-1.1,5.9-1.1c5.3,0,9.2,1.9,11.6,5.6c2.4,3.7,3.6,8.8,3.6,15.1
				c0,7.9-1.5,14-4.4,18.3c-2.9,4.3-7.9,6.5-14.8,6.5C62.6,113.3,57.7,111.2,54.5,106.9z M73.5,100.2c0.7-2,1.1-5.1,1.1-9.4
				c0-2.3-0.1-4.7-0.3-7c-0.1-1.4-0.6-2.8-1.5-4c-0.9-1.1-2.3-1.6-3.7-1.5c-1.2,0-2.3,0.3-3.3,1c-0.9,0.6-1.7,1.3-2.2,2.2V93
				c0,6.8,1.9,10.2,5.6,10.2C71.2,103.3,73,102.1,73.5,100.2L73.5,100.2z"/>
			<path d="M54.1,106.5c-3.2-4.3-4.8-10-4.8-17.2V63.8c0-7.8,1.4-13.8,4.2-18.1c2.8-4.3,7.8-6.4,15-6.4c6.4,0,11,1.5,13.8,4.5
				c2.8,3,4.3,7.6,4.3,13.6v1.2H73.9c0-3.3-0.3-5.6-1-7s-2-2-4.2-2c-1.3-0.1-2.5,0.4-3.4,1.3c-0.9,1.3-1.5,2.8-1.6,4.4
				c-0.4,2.9-0.5,5.8-0.5,8.8v7.3c0.9-1.4,2.2-2.4,3.7-3c1.9-0.8,3.9-1.1,5.9-1.1c5.3,0,9.2,1.9,11.6,5.6s3.6,8.8,3.6,15.1
				c0,7.9-1.5,14-4.4,18.3c-2.9,4.3-7.9,6.5-14.8,6.5C62.2,112.9,57.3,110.8,54.1,106.5z M73.1,99.8c0.7-2,1.1-5.1,1.1-9.4
				c0-2.3-0.1-4.6-0.3-6.9c-0.1-1.4-0.6-2.8-1.5-4c-0.9-1.1-2.3-1.6-3.7-1.5c-1.2,0-2.3,0.3-3.3,1c-0.9,0.6-1.7,1.3-2.2,2.2v11.4
				c0,6.8,1.9,10.2,5.6,10.2C70.8,102.9,72.5,101.7,73.1,99.8L73.1,99.8z"/>
			<path d="M53.7,106.1c-3.2-4.3-4.8-10-4.8-17.2V63.4c0-7.8,1.4-13.8,4.2-18.1s7.8-6.4,15-6.4c6.4,0,11,1.5,13.8,4.5
				s4.3,7.6,4.3,13.6v1.2H73.4c0-3.3-0.3-5.6-1-7s-2-2-4.2-2c-1.2-0.1-2.4,0.4-3.2,1.3c-0.9,1.3-1.5,2.8-1.6,4.4
				c-0.4,2.9-0.5,5.8-0.5,8.8v7.3c0.9-1.4,2.2-2.4,3.7-3c1.8-0.8,3.8-1.2,5.8-1.2c5.3,0,9.2,1.9,11.6,5.6s3.6,8.7,3.6,15.1
				c0,7.9-1.5,14-4.4,18.3c-2.9,4.3-7.9,6.5-14.8,6.5C61.8,112.5,56.9,110.4,53.7,106.1z M72.7,99.4c0.7-2,1.1-5.1,1.1-9.4
				c0-2.3-0.1-4.7-0.3-7c-0.1-1.4-0.7-2.8-1.5-4c-0.9-1.1-2.3-1.6-3.7-1.5c-1.2,0-2.3,0.3-3.3,1c-0.9,0.6-1.7,1.3-2.2,2.2v11.4
				c0,6.8,1.9,10.2,5.6,10.2C70.4,102.5,72.1,101.3,72.7,99.4L72.7,99.4z"/>
			<path d="M53.3,105.7c-3.2-4.3-4.8-10-4.8-17.2V63c0-7.8,1.4-13.8,4.2-18.1c2.8-4.3,7.8-6.4,15-6.4c6.4,0,11,1.5,13.8,4.5
				s4.3,7.6,4.4,13.7V58H73.1c0-3.3-0.3-5.6-1-7s-2-2-4.2-2c-1.3-0.1-2.5,0.4-3.4,1.3c-0.9,1.3-1.5,2.8-1.6,4.4
				c-0.4,2.9-0.5,5.8-0.5,8.8v7.3c0.9-1.4,2.2-2.4,3.7-3c1.9-0.8,3.9-1.2,5.9-1.1c5.3,0,9.2,1.9,11.6,5.6c2.4,3.7,3.6,8.8,3.6,15.1
				c0,7.9-1.5,14-4.4,18.3c-3,4.3-7.9,6.5-14.8,6.5C61.4,112.1,56.5,110,53.3,105.7z M72.3,99c0.7-2,1.1-5.1,1.1-9.4
				c0-2.3-0.1-4.7-0.3-7c-0.1-1.4-0.7-2.8-1.5-4c-0.9-1.1-2.3-1.6-3.7-1.5c-1.2,0-2.3,0.3-3.3,1c-0.9,0.6-1.7,1.3-2.2,2.2v11.4
				c0,6.8,1.9,10.2,5.6,10.2C69.9,102.1,71.7,100.9,72.3,99z"/>
			<path d="M52.9,105.3c-3.2-4.3-4.8-10-4.8-17.2V62.6c0-7.8,1.4-13.8,4.2-18.1c2.8-4.3,7.8-6.4,15.1-6.4c6.4,0,11,1.5,13.8,4.5
				c2.8,3,4.3,7.6,4.3,13.6v1.2H72.6c0-3.3-0.3-5.6-1-7s-2-2-4.2-2C66.2,48.6,65,49,64.1,50c-0.9,1.3-1.5,2.8-1.6,4.4
				c-0.4,2.9-0.5,5.8-0.5,8.7v7.2c0.9-1.4,2.2-2.4,3.7-3c1.9-0.8,3.9-1.1,5.9-1.1c5.3,0,9.2,1.9,11.6,5.6c2.4,3.7,3.6,8.8,3.6,15.1
				c0,7.9-1.5,14-4.4,18.3c-3,4.3-7.9,6.5-14.8,6.5C61,111.7,56.1,109.5,52.9,105.3z M71.9,98.6c0.7-2,1.1-5.1,1.1-9.4
				c0-2.3-0.1-4.7-0.3-7c-0.1-1.4-0.7-2.8-1.5-4c-0.9-1.1-2.3-1.6-3.7-1.5c-1.2,0-2.3,0.3-3.3,1c-0.9,0.6-1.7,1.4-2.2,2.3v11.4
				c0,6.8,1.9,10.2,5.6,10.2C69.5,101.7,71.3,100.4,71.9,98.6L71.9,98.6z"/>
			<path d="M52.5,104.9c-3.2-4.3-4.8-10-4.8-17.2V62.2c0-7.8,1.4-13.8,4.2-18.1c2.8-4.3,7.8-6.4,15-6.4c6.4,0,11,1.5,13.8,4.5
				s4.3,7.6,4.3,13.7v1.2H72.2c0-3.3-0.3-5.6-1-7c-0.7-1.4-2.1-2-4.2-2c-1.3-0.1-2.5,0.4-3.4,1.3c-0.9,1.3-1.5,2.8-1.6,4.4
				c-0.4,2.9-0.5,5.8-0.5,8.8V70c0.9-1.4,2.2-2.4,3.7-3c1.9-0.8,3.9-1.1,5.9-1.1c5.3,0,9.2,1.9,11.6,5.6s3.6,8.8,3.6,15.1
				c0,7.9-1.5,14-4.4,18.3c-3,4.3-7.9,6.5-14.7,6.4C60.6,111.3,55.7,109.1,52.5,104.9z M71.5,98.2c0.7-2,1.1-5.1,1.1-9.4
				c0-2.3-0.1-4.6-0.3-6.9c-0.1-1.4-0.7-2.8-1.5-4c-0.9-1.1-2.3-1.6-3.7-1.5c-1.2,0-2.3,0.3-3.3,1c-0.9,0.6-1.7,1.3-2.2,2.3v11.4
				c0,6.8,1.9,10.2,5.6,10.2C69.1,101.2,70.9,100,71.5,98.2L71.5,98.2z"/>
			<path d="M52.1,104.5c-3.2-4.2-4.8-10-4.8-17.2V61.8c0-7.8,1.4-13.8,4.2-18.1s7.8-6.4,15-6.4c6.4,0,11,1.5,13.8,4.6
				c2.8,3,4.3,7.6,4.3,13.6v1.2H71.8c0-3.3-0.3-5.6-1-7c-0.7-1.3-2-2-4.2-2c-1.3-0.1-2.5,0.4-3.4,1.3c-0.9,1.3-1.5,2.8-1.6,4.4
				c-0.4,2.9-0.5,5.8-0.5,8.8v7.3c0.9-1.4,2.2-2.4,3.7-3.1c1.9-0.8,3.9-1.1,5.9-1.1c5.3,0,9.2,1.9,11.6,5.6s3.6,8.7,3.7,15
				c0,7.9-1.5,14-4.4,18.3c-3,4.3-7.9,6.5-14.8,6.5C60.1,110.9,55.3,108.7,52.1,104.5z M71.1,97.8c0.7-2,1.1-5.1,1.1-9.4
				c0-2.3-0.1-4.7-0.3-7c-0.1-1.4-0.7-2.8-1.5-4c-0.9-1.1-2.3-1.6-3.7-1.5c-1.2,0-2.3,0.3-3.3,1c-0.9,0.6-1.7,1.4-2.2,2.3v11.4
				c0,6.8,1.9,10.2,5.6,10.2C68.7,100.8,70.5,99.6,71.1,97.8L71.1,97.8z"/>
			<path d="M51.7,104.1c-3.2-4.2-4.8-10-4.8-17.2V61.4c0-7.8,1.4-13.8,4.2-18.1s7.8-6.4,15-6.4c6.4,0,11,1.5,13.8,4.6
				s4.3,7.6,4.3,13.6v1.2H71.4c0-3.3-0.3-5.6-1-7c-0.7-1.3-2-2-4.2-2c-1.3-0.1-2.5,0.4-3.4,1.3c-0.9,1.3-1.5,2.8-1.6,4.4
				c-0.4,2.9-0.5,5.8-0.5,8.8v7.3c0.9-1.4,2.2-2.4,3.7-3c1.9-0.8,3.9-1.2,6-1.1c5.3,0,9.2,1.9,11.6,5.6s3.6,8.8,3.6,15.1
				c0,7.9-1.5,14-4.4,18.4s-7.9,6.5-14.8,6.5C59.7,110.5,54.9,108.3,51.7,104.1z M70.7,97.3c0.7-2,1.1-5.1,1.1-9.4
				c0-2.3-0.1-4.7-0.3-7c-0.1-1.4-0.7-2.8-1.5-4c-0.9-1.1-2.3-1.6-3.7-1.5c-1.2,0-2.3,0.3-3.3,1c-0.9,0.6-1.7,1.3-2.2,2.2v11.5
				c0,6.8,1.9,10.2,5.6,10.2C68.3,100.4,70.1,99.2,70.7,97.3L70.7,97.3z"/>
			<path d="M51.3,103.7c-3.2-4.3-4.8-10-4.8-17.2V61c0-7.8,1.4-13.8,4.2-18.1s7.8-6.4,15.1-6.4c6.4,0,11,1.5,13.8,4.6
				c2.8,3,4.3,7.6,4.3,13.6V56L71,55.9c0-3.3-0.3-5.6-1-6.9c-0.7-1.3-2-2-4.2-2c-1.3-0.1-2.5,0.4-3.4,1.3c-0.9,1.3-1.5,2.8-1.6,4.4
				c-0.4,2.9-0.5,5.8-0.5,8.8v7.3c0.9-1.4,2.2-2.4,3.7-3c1.9-0.8,3.9-1.1,5.9-1.1c5.3,0,9.2,1.9,11.6,5.6S85,79,85,85.3
				c0,7.9-1.5,14-4.4,18.4c-3,4.3-7.9,6.5-14.8,6.5C59.3,110.1,54.4,107.9,51.3,103.7z M70.3,96.9c0.7-2,1.1-5.1,1.1-9.4
				c0-2.3-0.1-4.6-0.3-6.9c-0.1-1.4-0.6-2.8-1.5-4c-0.9-1.1-2.3-1.7-3.7-1.6c-1.2,0-2.3,0.3-3.3,1c-0.9,0.6-1.7,1.3-2.2,2.2v11.4
				c0,6.8,1.9,10.2,5.6,10.2C67.9,100,69.7,98.8,70.3,96.9L70.3,96.9z"/>
			<path d="M50.9,103.2c-3.2-4.3-4.8-10-4.8-17.2V60.6c0-7.8,1.4-13.8,4.2-18.1s7.8-6.4,15-6.4c6.4,0,11,1.5,13.8,4.6
				s4.3,7.6,4.4,13.6v1.2H70.6c0-3.3-0.3-5.6-1-7c-0.7-1.3-2-2-4.2-2c-1.3-0.1-2.5,0.4-3.4,1.3c-0.9,1.3-1.5,2.8-1.6,4.4
				c-0.4,2.9-0.5,5.8-0.4,8.8v7.3c0.9-1.4,2.2-2.4,3.7-3c1.9-0.8,3.9-1.1,5.9-1.1c5.3,0,9.2,1.9,11.6,5.6s3.6,8.7,3.6,15
				c0,7.9-1.5,14-4.4,18.4c-3,4.3-7.9,6.5-14.8,6.5C58.9,109.6,54,107.5,50.9,103.2z M69.9,96.5c0.7-2,1.1-5.1,1.1-9.4
				c0-2.3-0.1-4.7-0.3-7c-0.1-1.4-0.6-2.8-1.5-4c-0.9-1.1-2.3-1.6-3.7-1.5c-1.2,0-2.3,0.3-3.3,1c-0.9,0.6-1.7,1.3-2.2,2.3v11.4
				c0,6.8,1.9,10.2,5.6,10.2C67.5,99.6,69.3,98.4,69.9,96.5L69.9,96.5z"/>
			<path d="M50.5,102.8c-3.2-4.3-4.8-10-4.8-17.2V60.2c0-7.8,1.4-13.8,4.2-18.1c2.8-4.3,7.9-6.4,15.1-6.4c6.4,0,11,1.5,13.8,4.5
				c2.8,3,4.3,7.6,4.3,13.6v1.2H70.2c0-3.3-0.3-5.7-1-7c-0.7-1.3-2-2-4.2-2c-1.3-0.1-2.5,0.4-3.4,1.3c-0.9,1.3-1.5,2.8-1.6,4.4
				c-0.4,2.9-0.5,5.8-0.5,8.8v7.3c0.9-1.4,2.2-2.4,3.7-3c1.9-0.8,3.9-1.1,5.9-1.1c5.3,0,9.2,1.9,11.6,5.6s3.6,8.8,3.6,15.1
				c0,7.9-1.5,14-4.4,18.3c-2.9,4.3-7.9,6.5-14.8,6.5C58.5,109.2,53.6,107.1,50.5,102.8z M69.4,96.1c0.7-2,1.1-5.1,1.1-9.4
				c0-2.3-0.1-4.7-0.3-7c-0.1-1.4-0.6-2.8-1.5-4c-0.9-1.1-2.3-1.6-3.7-1.5c-1.2,0-2.3,0.3-3.3,1c-0.9,0.6-1.7,1.3-2.2,2.2v11.4
				c0,6.8,1.9,10.2,5.6,10.2C67.1,99.2,68.9,98,69.4,96.1L69.4,96.1z"/>
			<path d="M50,102.4c-3.2-4.3-4.7-10-4.7-17.2V59.8c0-7.8,1.4-13.8,4.2-18.1c2.8-4.3,7.8-6.4,15-6.4c6.4,0,11,1.5,13.8,4.5
				s4.3,7.6,4.3,13.6v1.2H69.8c0-3.3-0.3-5.6-1-7s-2-2-4.2-2c-1.3-0.1-2.5,0.4-3.4,1.3c-0.9,1.3-1.5,2.8-1.6,4.4
				c-0.4,2.9-0.5,5.8-0.5,8.8v7.3c0.9-1.4,2.2-2.4,3.7-3c1.9-0.8,3.9-1.1,5.9-1.1c5.3,0,9.2,1.9,11.6,5.6s3.6,8.7,3.6,15
				c0,7.9-1.5,14-4.4,18.3c-2.9,4.3-7.9,6.5-14.8,6.5C58.1,108.8,53.2,106.7,50,102.4z M69,95.7c0.7-2,1.1-5.1,1.1-9.4
				c0-2.3-0.1-4.7-0.3-7c-0.1-1.4-0.6-2.8-1.5-4c-0.9-1.1-2.3-1.6-3.7-1.5c-1.2,0-2.3,0.3-3.3,1c-0.9,0.6-1.7,1.3-2.2,2.2v11.4
				c0,6.8,1.9,10.2,5.6,10.2C66.6,98.8,68.4,97.6,69,95.7z"/>
			<path d="M49.6,102c-3.2-4.3-4.8-10-4.8-17.2V59.3c0-7.8,1.4-13.8,4.2-18.1c2.8-4.3,7.8-6.4,15-6.4c6.4,0,11,1.5,13.8,4.5
				s4.3,7.6,4.3,13.7v1.2H69.4c0-3.3-0.3-5.6-1-7s-2-2-4.2-2c-1.3-0.1-2.5,0.4-3.4,1.3c-0.9,1.3-1.5,2.8-1.6,4.4
				c-0.4,2.9-0.5,5.8-0.5,8.8v7.3c0.9-1.4,2.2-2.4,3.7-3c1.9-0.8,3.9-1.1,5.9-1.1c5.3,0,9.2,1.9,11.6,5.6s3.6,8.7,3.6,15.1
				c0,7.9-1.5,14-4.4,18.3s-7.9,6.5-14.8,6.5C57.7,108.4,52.8,106.3,49.6,102z M68.6,95.3c0.7-2,1.1-5.1,1.1-9.4
				c0-2.3-0.1-4.6-0.3-6.9c-0.1-1.4-0.6-2.8-1.5-4c-0.9-1.1-2.3-1.6-3.7-1.5c-1.2,0-2.3,0.3-3.3,1c-0.9,0.6-1.7,1.3-2.2,2.2v11.4
				c0,6.8,1.9,10.2,5.6,10.2C66.3,98.4,68,97.2,68.6,95.3L68.6,95.3z"/>
			<path d="M49.2,101.6c-3.2-4.3-4.8-10-4.8-17.2V58.9c0-7.8,1.4-13.8,4.2-18.1s7.9-6.4,15-6.4c6.4,0,11,1.5,13.8,4.5
				s4.3,7.6,4.3,13.6v1.2l-12.9,0c0-3.3-0.3-5.6-1-7s-2-2-4.2-2c-1.3-0.1-2.5,0.4-3.4,1.3c-0.9,1.3-1.5,2.8-1.6,4.4
				c-0.4,2.9-0.5,5.8-0.5,8.8v7.3c0.9-1.4,2.2-2.4,3.7-3c1.9-0.8,3.9-1.1,5.9-1.1c5.3,0,9.2,1.9,11.6,5.6s3.5,8.7,3.5,15
				c0,7.9-1.5,14-4.4,18.3c-3,4.3-7.9,6.5-14.7,6.4C57.3,108,52.4,105.9,49.2,101.6z M68.2,94.9c0.7-2,1.1-5.1,1.1-9.4
				c0-2.3-0.1-4.7-0.3-7c-0.1-1.4-0.6-2.8-1.5-4c-0.9-1-2.3-1.6-3.7-1.5c-1.2,0-2.3,0.3-3.3,1c-0.9,0.6-1.7,1.3-2.2,2.2v11.4
				c0,6.8,1.9,10.2,5.6,10.2C65.9,98,67.6,96.8,68.2,94.9L68.2,94.9z"/>
			<path d="M48.8,101.2C45.6,96.9,44,91.2,44,84V58.5c0-7.8,1.4-13.8,4.2-18.1s7.8-6.4,15-6.4c6.4,0,11,1.5,13.8,4.5
				s4.3,7.6,4.3,13.7v1.2H68.5c0-3.3-0.3-5.6-1-7s-2-2-4.2-2c-1.3-0.1-2.5,0.4-3.4,1.3c-0.9,1.3-1.5,2.8-1.6,4.4
				c-0.3,2.9-0.5,5.8-0.4,8.8v7.3c0.9-1.4,2.2-2.4,3.7-3c1.9-0.8,3.9-1.1,5.9-1.1c5.3,0,9.2,1.9,11.6,5.6s3.6,8.7,3.6,15
				c0,7.9-1.5,14-4.4,18.3c-3,4.3-7.9,6.5-14.8,6.5C56.9,107.6,52,105.5,48.8,101.2z M67.8,94.5c0.7-2,1.1-5.1,1.1-9.4
				c0-2.3-0.1-4.7-0.3-7c-0.1-1.4-0.7-2.8-1.5-4c-0.9-1.1-2.3-1.6-3.7-1.5c-1.2,0-2.3,0.3-3.3,1c-0.9,0.6-1.7,1.3-2.2,2.2v11.4
				c0,6.8,1.9,10.2,5.6,10.2C65.5,97.6,67.2,96.3,67.8,94.5L67.8,94.5z"/>
			<path d="M48.4,100.8c-3.2-4.3-4.8-10-4.8-17.2V58.1c0-7.8,1.4-13.8,4.2-18.1c2.8-4.3,7.8-6.4,15-6.4c6.4,0,11,1.5,13.8,4.5
				c2.8,3,4.3,7.6,4.3,13.6v1.2H68.1c0-3.3-0.3-5.6-1-7c-0.7-1.3-2-2-4.1-2c-1.3-0.1-2.5,0.4-3.4,1.3c-0.9,1.3-1.5,2.8-1.6,4.4
				c-0.4,2.9-0.5,5.8-0.5,8.8v7.3c0.9-1.4,2.2-2.4,3.7-3c1.9-0.8,3.9-1.1,5.9-1.1c5.3,0,9.2,1.9,11.6,5.6c2.4,3.7,3.6,8.8,3.6,15.1
				c0,7.9-1.5,14-4.4,18.3s-7.9,6.5-14.8,6.4C56.5,107.2,51.6,105,48.4,100.8z M67.4,94.1c0.7-2,1.1-5.1,1.1-9.4
				c0-2.3-0.1-4.7-0.3-7c-0.1-1.4-0.7-2.8-1.5-4c-0.9-1.1-2.3-1.6-3.7-1.5c-1.2,0-2.3,0.3-3.3,1c-0.9,0.6-1.7,1.3-2.2,2.2v11.4
				c0,6.8,1.9,10.2,5.6,10.2C65,97.1,66.8,95.9,67.4,94.1L67.4,94.1z"/>
		</g>
		<path class="st1" d="M64.2,107.3L64.2,107.3c-7,0-12.2-2.3-15.6-6.9l0,0c-3.3-4.4-5-10.5-5-17.9V57c0-8,1.5-14.3,4.4-18.7
			s8.4-6.9,15.9-6.9H64c6.7,0,11.6,1.7,14.7,4.9s4.6,8.1,4.7,14.4v2.4l-15.3,0V52c0-3.9-0.5-5.6-0.9-6.4c-0.2-0.3-0.7-1.3-3.1-1.3
			l0,0c-0.9-0.1-1.8,0.2-2.5,0.9c-0.8,1.1-1.3,2.5-1.4,3.9c-0.4,2.8-0.5,5.7-0.5,8.6v4.3c0.6-0.5,1.3-0.8,2-1.2
			c2-0.8,4.2-1.3,6.4-1.2c5.7,0,9.9,2.1,12.5,6.1c2.5,3.9,3.8,9.2,3.8,15.7c0,8.1-1.6,14.5-4.6,19S71.4,107.3,64.2,107.3z M50.4,99
			c3,4,7.5,5.9,13.7,5.9h0.1c6.5,0,11-2,13.7-6s4.2-9.9,4.2-17.6c0-6.1-1.1-10.9-3.4-14.4s-5.6-5-10.6-5.1l0,0c-1.8,0-3.7,0.3-5.4,1
			c-1.3,0.5-2.4,1.4-3.1,2.6l-2.2,3.7V57.5c-0.1-3,0.1-6,0.5-8.9c0.2-1.8,0.8-3.5,1.9-5c1.1-1.2,2.6-1.8,4.2-1.7l0,0
			c2.6,0,4.4,0.9,5.2,2.7c0.8,2,1.1,4.1,1.1,6.3H81v-0.1c0-5.7-1.4-10.1-4-12.8s-7-4.2-13-4.2h-0.1c-6.8,0-11.3,1.9-14,5.8
			s-4,9.9-4,17.4v25.5C45.9,89.4,47.4,95,50.4,99L50.4,99z M64.2,97.1L64.2,97.1c-4.5,0-6.8-3.8-6.8-11.4V74l0.2-0.3
			c0.6-1.1,1.5-2,2.6-2.6c1.2-0.8,2.5-1.2,3.9-1.2l0,0c1.8-0.1,3.5,0.6,4.6,2c1,1.3,1.6,2.9,1.8,4.6c0.2,2.4,0.3,4.7,0.3,7.1
			c0,4.5-0.4,7.7-1.2,9.8l0,0C68.8,95.7,66.6,97.3,64.2,97.1L64.2,97.1z M59.8,74.7v11.1c0,9,3.3,9,4.4,9l0,0
			c1.4,0.1,2.8-0.8,3.2-2.2c0.7-1.8,1-4.9,1-9c0-2.3-0.1-4.5-0.3-6.8c-0.1-1.2-0.5-2.4-1.3-3.4c-0.7-0.8-1.7-1.2-2.8-1.1l0,0
			c-0.9,0-1.8,0.3-2.6,0.8C60.8,73.5,60.2,74,59.8,74.7z"/>
		<path class="st1" d="M64.8,106.7L64.8,106.7c-7,0-12.2-2.3-15.6-6.9l0,0c-3.3-4.4-5-10.5-5-17.9V56.5c0-8,1.5-14.3,4.4-18.7
			s8.4-6.9,15.9-6.9h0.1c6.7,0,11.6,1.7,14.7,4.9s4.6,8.1,4.7,14.4v2.4H68.6v-1.2c0-3.9-0.5-5.6-0.9-6.4c-0.2-0.3-0.7-1.3-3.1-1.3
			l0,0c-0.9-0.1-1.8,0.3-2.5,0.9c-0.8,1.1-1.3,2.5-1.4,3.8c-0.4,2.8-0.5,5.7-0.5,8.6v4.3c0.6-0.5,1.3-0.8,2-1.2
			c2-0.8,4.2-1.3,6.4-1.2c5.7,0,9.9,2.1,12.5,6.2c2.5,3.9,3.7,9.2,3.7,15.7c0,8.1-1.6,14.5-4.6,19S72,106.7,64.8,106.7z M51,98.4
			c3,4,7.5,5.9,13.7,5.9h0.1c6.5,0,11-1.9,13.7-5.9s4.2-10.1,4.2-17.7c0-6.1-1.1-10.9-3.4-14.4s-5.6-5-10.6-5.1h-0.1
			c-1.8,0-3.7,0.3-5.4,1c-1.3,0.5-2.4,1.4-3.1,2.6L58,68.5V56.9c-0.1-3,0.1-6,0.5-8.9c0.2-1.8,0.8-3.5,1.9-5
			c1.1-1.2,2.7-1.8,4.3-1.7c2.6,0,4.4,0.9,5.2,2.7c0.8,2,1.2,4.1,1.1,6.3h10.6v0c-0.1-5.7-1.4-10.1-4-12.8s-6.9-4.2-13-4.2
			c-6.8-0.1-11.4,1.9-14.1,5.8s-4,9.9-4,17.4V82C46.5,88.9,48,94.5,51,98.4L51,98.4z M64.8,96.6L64.8,96.6c-4.5,0-6.8-3.8-6.8-11.4
			V73.4l0.2-0.3c0.6-1.1,1.5-2,2.6-2.6c1.2-0.8,2.5-1.2,3.9-1.2l0,0c1.8-0.1,3.5,0.6,4.6,2c1,1.3,1.6,2.9,1.7,4.6
			c0.2,2.4,0.3,4.7,0.3,7.1c0,4.5-0.4,7.7-1.2,9.8l0,0C69.4,95.1,67.2,96.7,64.8,96.6z M60.3,74.1v11.1c0,9,3.3,9,4.4,9l0,0
			c1.5,0.1,2.8-0.8,3.2-2.2c0.7-1.8,1-4.9,1-9c0-2.3-0.1-4.5-0.3-6.8c-0.1-1.2-0.5-2.4-1.3-3.4c-0.7-0.8-1.7-1.2-2.8-1.1l0,0
			c-0.9,0-1.8,0.3-2.6,0.8C61.4,72.9,60.8,73.5,60.3,74.1z"/>
		<path class="st1" d="M65.3,106.1L65.3,106.1c-7,0-12.2-2.3-15.6-6.9l0,0c-3.3-4.4-5-10.5-5-17.9V55.9c0-8,1.5-14.3,4.4-18.7
			s8.4-6.9,15.9-6.9h0.1c6.7,0,11.6,1.7,14.7,4.9s4.6,8.1,4.7,14.4V52H69.2v-1.2c0-3.9-0.5-5.6-0.9-6.4C68.2,44,67.7,43,65.2,43l0,0
			c-0.9-0.1-1.8,0.3-2.5,0.9c-0.8,1.1-1.3,2.5-1.4,3.8c-0.4,2.8-0.5,5.7-0.5,8.6v4.3c0.6-0.5,1.3-0.8,2-1.2c2-0.9,4.2-1.3,6.4-1.2
			c5.7,0,9.9,2.1,12.5,6.2c2.5,3.9,3.8,9.2,3.8,15.7c0,8.1-1.6,14.5-4.6,19S72.6,106.1,65.3,106.1z M51.6,97.8c3,4,7.5,5.9,13.7,5.9
			h0.1c6.5,0,11-2,13.7-6s4.2-10.1,4.2-17.7c0-6.1-1.1-10.9-3.4-14.4s-5.6-5-10.6-5.1c-1.9-0.1-3.7,0.3-5.4,1
			c-1.3,0.5-2.4,1.4-3.1,2.6l-2.2,3.7V56.3c-0.1-3,0.1-6,0.5-8.9c0.2-1.8,0.8-3.5,1.9-5c1.1-1.2,2.6-1.8,4.2-1.7
			c2.6,0,4.3,0.9,5.2,2.7c0.8,2,1.1,4.1,1.1,6.3h10.6v-0.1c0-5.7-1.4-10.1-4-12.8s-6.9-4.2-13-4.2H65c-6.8,0-11.3,1.9-14,5.8
			s-4,10-4,17.5v25.5C47,88.3,48.5,93.8,51.6,97.8L51.6,97.8z M65.4,96L65.4,96c-4.5,0-6.8-3.8-6.8-11.4V72.9l0.2-0.3
			c0.6-1,1.5-1.9,2.6-2.6c1.1-0.8,2.5-1.3,3.9-1.2c1.8-0.1,3.5,0.6,4.6,2c1,1.3,1.6,2.9,1.8,4.6c0.2,2.4,0.4,4.7,0.3,7.1
			c0,4.5-0.4,7.7-1.2,9.8l0,0C70,94.6,67.8,96.1,65.4,96z M60.9,73.5v11.1c0,9,3.3,9,4.4,9l0,0c1.4,0.1,2.8-0.8,3.2-2.2
			c0.7-1.8,1-4.9,1-9c0-2.3-0.1-4.5-0.3-6.8c-0.1-1.2-0.5-2.4-1.2-3.4c-0.7-0.8-1.7-1.2-2.8-1.1l0,0c-0.9,0-1.8,0.3-2.6,0.8
			C62,72.3,61.4,72.9,60.9,73.5z"/>
		<path class="st1" d="M65.9,105.6L65.9,105.6c-7,0-12.2-2.3-15.6-6.9l0,0c-3.3-4.4-5-10.5-5-17.9V55.3c0-8,1.5-14.3,4.4-18.7
			s8.4-6.9,15.9-6.9h0.1c6.7,0,11.6,1.7,14.7,4.9S85,42.7,85.1,49v2.4H69.8v-1.2c0-3.9-0.5-5.6-0.9-6.4c-0.2-0.3-0.7-1.3-3.1-1.3
			l0,0c-0.9-0.1-1.8,0.3-2.5,0.9c-0.8,1.1-1.3,2.5-1.4,3.8c-0.4,2.8-0.5,5.7-0.5,8.6V60c0.6-0.5,1.3-0.8,2-1.2
			c2-0.9,4.2-1.3,6.4-1.2c5.7,0,9.9,2.1,12.5,6.2c2.5,3.9,3.8,9.2,3.8,15.7c0,8.1-1.6,14.5-4.6,19S73.2,105.6,65.9,105.6z
			 M52.2,97.3c3,4,7.5,5.9,13.7,5.9h0.1c6.5,0,11-2,13.7-6s4.2-10.1,4.2-17.7c0-6.1-1.1-10.9-3.4-14.4S74.8,60,69.9,60
			c-1.9-0.1-3.7,0.3-5.4,1c-1.3,0.5-2.4,1.4-3.1,2.6l-2.2,3.7V55.8c-0.1-3,0.1-6,0.5-9c0.2-1.8,0.8-3.5,1.9-5
			c1.1-1.2,2.6-1.8,4.2-1.7c2.6,0,4.3,0.9,5.2,2.7c0.8,2,1.1,4.1,1.1,6.3h10.6v0c-0.1-5.7-1.4-10.1-4-12.8s-7-4.2-13-4.2h-0.1
			c-6.8,0-11.3,1.9-14,5.8s-4,9.9-4,17.4v25.5C47.6,87.7,49.2,93.2,52.2,97.3L52.2,97.3z M66,95.4L66,95.4c-4.5,0-6.8-3.8-6.8-11.4
			V72.3l0.2-0.3c0.6-1.1,1.5-2,2.6-2.6c1.2-0.8,2.5-1.2,3.9-1.2l0,0c1.8-0.1,3.5,0.6,4.6,2c1,1.3,1.6,2.9,1.8,4.6
			c0.2,2.4,0.3,4.7,0.3,7.1c0,4.5-0.4,7.7-1.2,9.8l0,0C70.6,94,68.4,95.5,66,95.4z M61.5,72.9V84c0,9,3.3,9,4.4,9l0,0
			c1.4,0.1,2.8-0.8,3.2-2.2c0.7-1.8,1-4.9,1-9c0-2.3-0.1-4.5-0.3-6.8c-0.1-1.2-0.5-2.4-1.3-3.4c-0.7-0.8-1.7-1.2-2.8-1.1l0,0
			c-0.9,0-1.8,0.3-2.6,0.8C62.5,71.7,62,72.3,61.5,72.9z"/>
		<path class="st1" d="M66.5,105L66.5,105c-7,0-12.2-2.3-15.6-6.9l0,0c-3.3-4.4-5-10.5-5-17.9V54.7c0-8,1.5-14.3,4.4-18.7
			s8.4-6.9,15.9-6.9h0.1C73,29.1,78,30.7,81,34s4.6,8.1,4.7,14.4v2.4l-15.3-0.1v-1.2c0-3.9-0.5-5.6-0.9-6.4
			c-0.2-0.3-0.7-1.3-3.1-1.3l0,0c-0.9-0.1-1.8,0.3-2.5,0.9c-0.8,1.1-1.3,2.5-1.4,3.8c-0.4,2.8-0.5,5.7-0.5,8.6v4.3
			c0.6-0.5,1.3-0.8,2-1.2c2-0.9,4.2-1.3,6.4-1.2c5.7,0,9.9,2.1,12.5,6.2c2.5,3.9,3.8,9.2,3.8,15.7c0,8.1-1.6,14.5-4.6,19
			S73.8,105,66.5,105z M52.8,96.7c3,4,7.5,5.9,13.7,5.9h0.1c6.5,0,11-1.9,13.7-6s4.2-10,4.2-17.6c0-6.1-1.1-10.9-3.4-14.4
			s-5.6-5.1-10.6-5.1c-1.9-0.1-3.7,0.3-5.4,1C63.8,61,62.7,61.9,62,63l-2.2,3.7V55.2c-0.1-3,0.1-6,0.5-9c0.2-1.8,0.8-3.5,1.9-5
			c1.1-1.2,2.6-1.8,4.2-1.7c2.6,0,4.3,0.9,5.2,2.7c0.8,2,1.1,4.1,1.1,6.3h10.6v-0.1c-0.1-5.7-1.4-10.1-4-12.8s-7-4.2-13-4.2h-0.1
			c-6.8,0-11.3,1.9-14,5.8s-4,9.9-4,17.4v25.5C48.2,87,49.7,92.6,52.8,96.7L52.8,96.7z M66.5,94.8L66.5,94.8
			c-4.5,0-6.7-3.8-6.7-11.4V71.7l0.2-0.3c0.6-1.1,1.5-2,2.6-2.6c1.2-0.8,2.5-1.2,3.9-1.2l0,0c1.8-0.1,3.5,0.6,4.6,2
			c1,1.3,1.6,2.9,1.8,4.6c0.2,2.4,0.3,4.7,0.3,7.1c0,4.5-0.4,7.7-1.2,9.8l0,0C71.2,93.4,69,94.9,66.5,94.8z M62.1,72.3v11.1
			c0,9,3.3,9,4.4,9l0,0c1.4,0.1,2.8-0.8,3.2-2.2c0.7-1.8,1-4.9,1-9c0-2.3-0.1-4.5-0.3-6.8c-0.1-1.2-0.5-2.4-1.2-3.4
			c-0.7-0.8-1.7-1.2-2.8-1.1l0,0c-0.9,0-1.8,0.3-2.6,0.8C63.2,71.2,62.6,71.7,62.1,72.3z"/>
		<path class="st1" d="M67.1,104.4H67c-6.9,0-12.1-2.3-15.5-6.9l0,0c-3.3-4.4-5-10.5-5-17.9V54.1c0-8,1.5-14.3,4.4-18.7
			s8.4-6.9,15.9-6.9h0.1c6.7,0,11.6,1.7,14.7,4.9s4.6,8.1,4.7,14.4v2.4L71,50.2V49c0-3.9-0.5-5.6-0.9-6.4c-0.2-0.3-0.7-1.3-3.1-1.3
			l0,0c-0.9-0.1-1.8,0.3-2.5,0.9c-0.8,1.1-1.3,2.5-1.4,3.9c-0.4,2.8-0.5,5.7-0.5,8.6v4.3c0.6-0.5,1.3-0.8,2-1.1
			c2-0.9,4.2-1.3,6.4-1.2c5.7,0,9.9,2.1,12.5,6.2c2.5,3.9,3.8,9.2,3.8,15.7c0,8.1-1.6,14.5-4.6,19S74.3,104.4,67.1,104.4z
			 M53.3,96.1c3,4,7.5,5.9,13.7,5.9h0.1c6.5,0,11-1.9,13.7-6s4.2-10,4.2-17.6c0-6.1-1.1-10.9-3.4-14.4s-5.7-5.1-10.6-5.1
			c-1.9-0.1-3.7,0.3-5.4,1c-1.3,0.5-2.4,1.4-3.1,2.6l-2.2,3.7V54.6c-0.1-3,0.1-6,0.5-9c0.2-1.8,0.8-3.5,1.9-5
			c1.1-1.2,2.6-1.8,4.2-1.7c2.6,0,4.3,0.9,5.2,2.7c0.8,2,1.1,4.1,1.1,6.3h10.6v-0.1c-0.1-5.7-1.4-10.1-4-12.8s-6.9-4.2-12.9-4.2
			h-0.1c-6.8,0-11.3,1.9-14,5.8s-4,9.9-4,17.4v25.5C48.8,86.5,50.4,92,53.3,96.1L53.3,96.1z M67.1,94.2L67.1,94.2
			c-4.5,0-6.8-3.8-6.8-11.4V71.1l0.2-0.3c0.6-1.1,1.5-2,2.6-2.7c1.1-0.8,2.5-1.2,3.9-1.2l0,0c1.8-0.1,3.5,0.6,4.6,2
			c1,1.3,1.6,2.9,1.8,4.6c0.2,2.4,0.3,4.7,0.3,7.1c0,4.5-0.4,7.7-1.2,9.8l0,0C71.7,92.8,69.5,94.3,67.1,94.2z M62.7,71.7v11.1
			c0,9,3.3,9,4.4,9l0,0c1.4,0.1,2.8-0.8,3.2-2.2c0.7-1.8,1-4.9,1-9c0-2.3-0.1-4.5-0.3-6.8c-0.1-1.2-0.5-2.4-1.3-3.4
			C69,69.6,68,69.2,67,69.3l0,0c-0.9,0-1.8,0.3-2.6,0.8C63.7,70.6,63.2,71.1,62.7,71.7z"/>
		<path class="st1" d="M67.7,103.8L67.7,103.8c-7,0-12.2-2.3-15.6-6.9l0,0c-3.3-4.4-5-10.5-5-17.9V53.5c0-8,1.5-14.3,4.4-18.7
			s8.4-6.9,15.9-6.9h0.1c6.7,0,11.6,1.7,14.7,4.9s4.6,8.1,4.7,14.4v2.4l-15.3,0v-1.2c0-3.9-0.5-5.6-0.8-6.4
			c-0.2-0.3-0.7-1.3-3.1-1.3l0,0c-0.9-0.1-1.8,0.3-2.4,0.9c-0.8,1.1-1.3,2.5-1.4,3.8c-0.4,2.8-0.5,5.7-0.5,8.6v4.3
			c0.6-0.5,1.3-0.8,2-1.2c2-0.8,4.2-1.2,6.4-1.1c5.7,0,9.9,2.1,12.5,6.2C86.7,66,88,71.3,88,77.8c0,8.1-1.6,14.5-4.6,19
			S74.9,103.8,67.7,103.8z M53.9,95.5c3,4,7.5,5.9,13.7,5.9h0.1c6.5,0,11-2,13.7-6s4.2-10.1,4.2-17.7c0-6.1-1.1-10.9-3.4-14.4
			s-5.6-5.1-10.6-5.1c-1.9-0.1-3.7,0.3-5.4,1c-1.3,0.5-2.4,1.4-3.1,2.6l-2.2,3.7V54c-0.1-3,0.1-6,0.5-9c0.2-1.8,0.8-3.5,1.9-5
			c1.1-1.2,2.6-1.8,4.2-1.7c2.6,0,4.3,0.9,5.2,2.7c0.8,2,1.1,4.1,1.1,6.3h10.6v-0.1c-0.1-5.7-1.4-10.1-4-12.8s-7-4.2-13-4.2
			C60.7,30.1,56,32,53.4,36s-4,10-4,17.5V79C49.4,85.9,50.9,91.4,53.9,95.5L53.9,95.5z M67.7,93.6L67.7,93.6
			c-4.5,0-6.8-3.8-6.8-11.4V70.5l0.2-0.3c0.6-1.1,1.5-2,2.6-2.7c1.2-0.8,2.5-1.2,3.9-1.2l0,0c1.8-0.1,3.5,0.6,4.6,2
			c1,1.3,1.6,2.9,1.8,4.6c0.2,2.4,0.3,4.7,0.3,7.1c0,4.5-0.4,7.7-1.2,9.8l0,0C72.4,92.2,70.2,93.8,67.7,93.6z M63.3,71.2v11.1
			c0,9,3.3,9,4.4,9l0,0c1.4,0.1,2.8-0.8,3.2-2.2c0.7-1.8,1-4.9,1-9c0-2.3-0.1-4.5-0.3-6.8c-0.1-1.2-0.5-2.4-1.3-3.4
			c-0.7-0.8-1.7-1.2-2.8-1.1l0,0c-0.9,0-1.8,0.3-2.6,0.8C64.3,70,63.7,70.5,63.3,71.2z"/>
		<path class="st1" d="M68.3,103.2L68.3,103.2c-7,0-12.2-2.3-15.6-6.9l0,0c-3.3-4.4-5-10.5-5-17.9V52.9c0-8,1.5-14.3,4.4-18.7
			s8.4-6.9,15.9-6.9h0.1c6.7,0,11.6,1.7,14.7,4.9s4.6,8.1,4.7,14.4v2.4L72.2,49v-1.1c0-3.9-0.5-5.6-0.8-6.4
			c-0.2-0.3-0.7-1.3-3.1-1.3l0,0c-0.9-0.1-1.8,0.3-2.4,0.9c-0.8,1.1-1.3,2.5-1.4,3.8c-0.4,2.8-0.5,5.7-0.5,8.6v4.3
			c0.6-0.5,1.3-0.8,2-1.2c2-0.8,4.2-1.2,6.4-1.2c5.7,0,9.9,2.1,12.5,6.2c2.5,3.9,3.8,9.2,3.8,15.7c0,8.1-1.6,14.5-4.6,19
			S75.5,103.2,68.3,103.2z M54.5,94.9c3,4,7.5,5.9,13.7,5.9h0.1c6.5,0,11-1.9,13.7-5.9s4.2-10.1,4.2-17.7c0-6-1.2-10.9-3.4-14.4
			s-5.6-5-10.6-5.1c-1.9-0.1-3.7,0.3-5.4,1c-1.3,0.5-2.4,1.4-3.1,2.6L61.5,65V53.4c-0.1-3,0.1-6,0.5-8.9c0.2-1.8,0.8-3.5,1.9-5
			c1.1-1.2,2.6-1.8,4.2-1.7c2.6,0,4.3,0.9,5.2,2.7c0.8,2,1.1,4.1,1.1,6.3h10.6v-0.1c-0.1-5.7-1.4-10.1-4-12.8s-7-4.2-13-4.2H68
			c-6.8,0-11.3,1.9-14,5.8s-4,9.9-4,17.4v25.5C50,85.3,51.5,90.9,54.5,94.9L54.5,94.9z M68.3,93L68.3,93c-4.5,0-6.8-3.8-6.8-11.4
			V69.9l0.2-0.3c0.6-1.1,1.5-2,2.5-2.7c1.2-0.8,2.5-1.2,3.9-1.2l0,0c1.8-0.1,3.5,0.6,4.6,2c1,1.4,1.6,2.9,1.8,4.6
			c0.2,2.4,0.3,4.7,0.3,7.1c0,4.5-0.4,7.7-1.2,9.8l0,0C72.9,91.6,70.7,93.1,68.3,93z M63.9,70.6v11.1c0,9,3.3,9,4.4,9l0,0
			c1.4,0.1,2.8-0.8,3.2-2.2c0.7-1.8,1-4.9,1-9c0-2.3-0.1-4.5-0.3-6.8c-0.1-1.2-0.5-2.4-1.2-3.4c-0.7-0.8-1.7-1.2-2.8-1.1l0,0
			c-0.9,0-1.8,0.3-2.6,0.8C65,69.4,64.4,69.9,63.9,70.6z"/>
		<path class="st1" d="M68.9,102.6L68.9,102.6c-7,0-12.2-2.3-15.6-6.9l0,0c-3.3-4.4-5-10.5-5-17.9V52.3c0-8,1.5-14.3,4.5-18.7
			s8.4-6.9,15.9-6.9h0.1c6.7,0,11.6,1.7,14.7,4.9S88,39.7,88,46.1v2.4H72.7v-1.2c0-3.9-0.5-5.6-0.8-6.4c-0.2-0.3-0.7-1.3-3.1-1.3
			l0,0c-0.9-0.1-1.8,0.3-2.4,0.9c-0.8,1.1-1.3,2.5-1.4,3.8c-0.4,2.8-0.5,5.7-0.5,8.6v4.3c0.6-0.5,1.3-0.8,2-1.2
			c2-0.8,4.2-1.2,6.4-1.2c5.7,0,9.9,2.1,12.5,6.2c2.5,3.9,3.8,9.2,3.8,15.7c0,8.1-1.6,14.5-4.6,19S76.1,102.6,68.9,102.6z
			 M55.1,94.3c3,4,7.5,5.9,13.7,6h0.1c6.5,0,11-2,13.7-6s4.2-10.1,4.2-17.7c0-6-1.2-10.9-3.4-14.4s-5.6-5-10.6-5.1
			c-1.9-0.1-3.7,0.3-5.4,1c-1.3,0.5-2.4,1.4-3.1,2.6l-2.2,3.7V52.8c-0.1-3,0.1-6,0.5-8.9c0.2-1.8,0.8-3.5,1.9-5
			c1.1-1.2,2.6-1.8,4.2-1.7c2.6,0,4.3,0.9,5.2,2.7c0.8,2,1.1,4.1,1.1,6.3h10.6V46c-0.1-5.7-1.4-10.1-4-12.8s-7-4.2-13-4.2h-0.1
			c-6.8,0-11.3,1.9-14,5.8s-4,9.9-4,17.4v25.5C50.5,84.7,52,90.3,55.1,94.3L55.1,94.3z M68.9,92.4L68.9,92.4
			c-4.5,0-6.8-3.8-6.8-11.4V69.3l0.2-0.3c0.6-1.1,1.5-2,2.6-2.7c1.1-0.8,2.5-1.3,3.9-1.2c1.8-0.1,3.5,0.6,4.6,2
			c1,1.4,1.6,2.9,1.8,4.6c0.2,2.4,0.3,4.7,0.3,7.1c0,4.5-0.4,7.7-1.2,9.8l0,0C73.5,91.1,71.3,92.6,68.9,92.4z M64.5,70v11.1
			c0,9,3.3,9,4.4,9l0,0c1.4,0.1,2.8-0.8,3.2-2.2c0.7-1.8,1-4.9,1-9c0-2.3-0.1-4.5-0.3-6.8c-0.1-1.2-0.5-2.4-1.3-3.4
			c-0.7-0.8-1.7-1.2-2.8-1.1l0,0c-0.9,0-1.8,0.3-2.6,0.8C65.5,68.8,64.9,69.4,64.5,70z"/>
		<path class="st1" d="M69.5,102L69.5,102c-7,0-12.2-2.3-15.6-6.9l0,0c-3.3-4.4-5-10.5-5-17.9V51.8c0-8,1.5-14.3,4.5-18.7
			s8.4-6.9,15.9-6.9h0.1c6.7,0,11.6,1.7,14.7,4.9s4.6,8.1,4.7,14.4v2.5H73.4v-1.2c0-3.9-0.5-5.6-0.8-6.4c-0.2-0.3-0.7-1.3-3.1-1.3
			l0,0c-0.9-0.1-1.8,0.3-2.4,0.9c-0.8,1.1-1.3,2.5-1.4,3.8c-0.4,2.8-0.5,5.7-0.5,8.6v4.3c0.6-0.5,1.3-0.8,2-1.2
			c2-0.8,4.2-1.2,6.4-1.2c5.7,0,9.9,2.1,12.5,6.2c2.5,3.9,3.8,9.2,3.8,15.7c0,8.1-1.6,14.5-4.6,19S76.7,102,69.5,102z M55.7,93.7
			c3,4,7.5,5.9,13.7,6h0.1c6.5,0,11-2,13.7-6s4.2-10,4.2-17.7c0-6.1-1.2-10.9-3.4-14.4s-5.6-5-10.6-5.1c-1.9-0.1-3.7,0.3-5.4,1
			c-1.3,0.5-2.4,1.4-3.1,2.6l-2.2,3.7V52.2c-0.1-3,0.1-6,0.5-8.9c0.2-1.8,0.8-3.5,1.9-5c1.1-1.2,2.6-1.8,4.2-1.7l0,0
			c2.6,0,4.3,0.9,5.2,2.7c0.8,2,1.1,4.1,1.1,6.3h10.6v-0.1c0-5.7-1.4-10.1-4-12.8s-6.9-4.2-13-4.2h-0.1c-6.8,0-11.3,1.9-14,5.8
			s-4.1,9.9-4.1,17.4v25.5c0,6.9,1.5,12.4,4.5,16.5L55.7,93.7z M69.5,91.8L69.5,91.8c-4.5,0-6.8-3.8-6.8-11.4V68.7l0.2-0.3
			c0.6-1.1,1.5-2,2.6-2.7c1.2-0.8,2.5-1.2,3.9-1.2l0,0c1.8-0.1,3.5,0.6,4.6,2c1,1.4,1.6,3,1.8,4.6c0.2,2.4,0.3,4.7,0.3,7.1
			c0,4.5-0.4,7.7-1.2,9.8l0,0C74.1,90.5,71.9,92,69.5,91.8L69.5,91.8z M65.1,69.4v11.1c0,9,3.3,9,4.4,9l0,0c1.4,0.1,2.8-0.8,3.2-2.2
			c0.7-1.8,1-4.9,1-9c0-2.3-0.1-4.5-0.3-6.8c-0.1-1.2-0.5-2.4-1.2-3.5c-0.7-0.8-1.7-1.1-2.8-1l0,0c-0.9,0-1.8,0.3-2.6,0.8
			C66.1,68.2,65.5,68.8,65.1,69.4z"/>
		<path class="st1" d="M70.1,101.4L70.1,101.4c-7,0-12.2-2.3-15.6-6.9l0,0c-3.3-4.4-5-10.5-5-17.9V51.2c0-8,1.5-14.3,4.5-18.7
			s8.4-6.9,15.9-6.9h0.1c6.7,0,11.6,1.7,14.7,4.9s4.6,8.1,4.7,14.4v2.4H74v-1.2c0-3.9-0.5-5.6-0.8-6.4c-0.2-0.3-0.7-1.3-3.1-1.3l0,0
			c-0.9-0.1-1.8,0.2-2.4,0.9c-0.8,1.1-1.3,2.5-1.4,3.8c-0.4,2.8-0.5,5.7-0.5,8.6v4.3c0.6-0.5,1.3-0.8,2-1.2c2-0.8,4.1-1.2,6.3-1.2
			c5.7,0,9.9,2.1,12.5,6.2c2.5,3.9,3.8,9.2,3.8,15.7c0,8.1-1.6,14.5-4.6,19S77.3,101.4,70.1,101.4z M56.3,93.1c3,4,7.5,5.9,13.7,6
			h0.1c6.5,0,11-2,13.7-6S88,83.1,88,75.4c0-6.1-1.2-10.9-3.4-14.4S79,56,74,55.9c-1.9-0.1-3.7,0.3-5.4,1c-1.3,0.5-2.4,1.4-3.1,2.6
			l-2.2,3.7V51.6c-0.1-3,0.1-6,0.5-8.9c0.2-1.8,0.8-3.5,1.9-5c1.1-1.2,2.6-1.8,4.2-1.7l0,0c2.6,0,4.4,0.9,5.2,2.7
			c0.8,2,1.1,4.1,1.1,6.3h10.6v-0.1c0-5.7-1.4-10-4-12.8s-7-4.2-13-4.2h-0.1c-6.8,0-11.3,1.9-14,5.9s-4.1,9.9-4.1,17.4v25.5
			C51.7,83.6,53.2,89.1,56.3,93.1L56.3,93.1z M70.1,91.2L70.1,91.2c-4.5,0-6.8-3.8-6.8-11.4V68.2l0.2-0.3c0.6-1.1,1.5-2,2.5-2.6
			c1.2-0.8,2.6-1.3,4-1.2l0,0c1.8-0.1,3.5,0.6,4.6,2c1,1.3,1.6,2.9,1.8,4.6c0.2,2.4,0.3,4.7,0.3,7.1c0,4.5-0.4,7.7-1.2,9.8l0,0
			C74.7,89.9,72.5,91.4,70.1,91.2z M65.7,68.8v11.1c0,9.1,3.4,8.9,4.4,9c1.4,0.1,2.8-0.8,3.2-2.2c0.7-1.8,1-4.9,1-9
			c0-2.3-0.1-4.5-0.3-6.8c-0.1-1.2-0.5-2.4-1.3-3.4C72,66.7,71,66.3,70,66.4l0,0c-0.9,0-1.8,0.3-2.6,0.8
			C66.7,67.6,66.1,68.1,65.7,68.8z"/>
		<path class="st2" d="M55.4,93.8c-3.2-4.3-4.8-10-4.8-17.2V51.2c0-7.8,1.4-13.8,4.2-18.1s7.8-6.4,15-6.4c6.4,0,11,1.5,13.8,4.5
			s4.3,7.6,4.4,13.6v1.2H75.1c0-3.3-0.3-5.6-1-7s-2-2-4.2-2c-1.3-0.1-2.5,0.4-3.4,1.3c-0.9,1.3-1.4,2.8-1.6,4.4
			c-0.4,2.9-0.5,5.8-0.5,8.8v7.3c0.9-1.4,2.2-2.4,3.7-3c1.8-0.8,3.8-1.2,5.8-1.1c5.3,0,9.2,1.9,11.6,5.6s3.6,8.8,3.6,15.1
			c0,7.9-1.5,14-4.4,18.3c-3,4.3-7.9,6.5-14.7,6.5C63.4,100.2,58.5,98.1,55.4,93.8z M74.4,87.1c0.7-2,1.1-5.1,1.1-9.4
			c0-2.3-0.1-4.7-0.3-7c-0.1-1.4-0.6-2.8-1.5-4c-0.9-1-2.3-1.6-3.7-1.5c-1.2,0-2.3,0.3-3.3,1c-0.9,0.6-1.7,1.3-2.2,2.2v11.4
			c0,6.8,1.9,10.2,5.6,10.2C72,90.2,73.8,89,74.4,87.1L74.4,87.1z"/>
	</g>
</g>
</svg>
