<?xml version="1.0" encoding="utf-8"?>
<!-- Generator: Adobe Illustrator 25.2.0, SVG Export Plug-In . SVG Version: 6.00 Build 0)  -->
<svg version="1.1" id="Layer_1" xmlns="http://www.w3.org/2000/svg" xmlns:xlink="http://www.w3.org/1999/xlink" x="0px" y="0px"
	 viewBox="0 0 138 145" style="enable-background:new 0 0 138 145;" xml:space="preserve">
<style type="text/css">
	.st0{opacity:0.2;}
	.st1{fill:#003C3A;}
	.st2{fill:#FFFFFF;}
</style>
<g>
	<g id="Layer_1_1_">
		<g class="st0">
			<path d="M79.2,63.3H59.7V52.8l32.8,0.1v8.9l-15.1,62.7H64.1L79.2,63.3z"/>
			<path d="M78.7,62.9l-19.5-0.1V52.3l32.8,0.1v8.9L77,124.1H63.7L78.7,62.9z"/>
			<path d="M78.3,62.5l-19.5-0.1V51.9L91.7,52v9l-15.1,62.7H63.3L78.3,62.5z"/>
			<path d="M77.9,62H58.5V51.5l32.8,0.1v8.9l-15.1,62.7H62.9L77.9,62z"/>
			<path d="M77.5,61.6L58,61.6V51.1l32.8,0.1v8.9l-15.1,62.7H62.5L77.5,61.6z"/>
			<path d="M77.1,61.2l-19.5-0.1V50.7l32.8,0.1v8.9l-15.1,62.7H62.1L77.1,61.2z"/>
			<path d="M76.7,60.8l-19.5-0.1V50.3l32.8,0.1v8.9l-15.1,62.7H61.7L76.7,60.8z"/>
			<path d="M76.3,60.4l-19.5-0.1V49.9L89.7,50v9l-15.1,62.7H61.2L76.3,60.4z"/>
			<path d="M75.9,60l-19.5,0V49.5l32.8,0.1v8.9l-15.1,62.7H60.8L75.9,60z"/>
			<path d="M75.5,59.6L56,59.5V49.1l32.8,0.1v8.9l-15.1,62.7H60.4L75.5,59.6z"/>
			<path d="M75.1,59.2l-19.5,0V48.7l32.8,0.1v8.9l-15.1,62.7H60L75.1,59.2z"/>
			<path d="M74.7,58.8H55.2V48.3L88,48.4v8.9L72.9,120H59.6L74.7,58.8z"/>
			<path d="M74.2,58.4l-19.5-0.1V47.8l32.8,0.1v8.9l-15.1,62.7H59.2L74.2,58.4z"/>
			<path d="M73.8,58l-19.5-0.1V47.5l32.8,0.1v8.9l-15.1,62.7H58.8L73.8,58z"/>
			<path d="M73.4,57.5L54,57.5V47l32.8,0.1V56l-15.2,62.8H58.4L73.4,57.5z"/>
			<path d="M73,57.1l-19.5-0.1V46.6l32.8,0.1v8.9l-15.1,62.7H58L73,57.1z"/>
			<path d="M72.6,56.7l-19.5-0.1V46.2L86,46.3v8.9L70.8,118H57.6L72.6,56.7z"/>
			<path d="M72.2,56.3l-19.5-0.1V45.8l32.8,0.1v8.9l-15.1,62.7H57.2L72.2,56.3z"/>
			<path d="M71.8,55.9l-19.5-0.1V45.4l32.8,0.1v8.9L70,117.2H56.7L71.8,55.9z"/>
			<path d="M71.4,55.5l-19.5,0V45l32.8,0.1V54l-15.1,62.7H56.3L71.4,55.5z"/>
			<path d="M71,55.1L51.5,55V44.6l32.8,0.1v8.9l-15.1,62.7H55.9L71,55.1z"/>
			<path d="M70.6,54.7l-19.5,0V44.2l32.8,0.1v8.9l-15.1,62.7H55.5L70.6,54.7z"/>
			<path d="M70.2,54.3l-19.5-0.1V43.8l32.8,0.1v8.9l-15.1,62.7H55.1L70.2,54.3z"/>
			<path d="M69.7,53.9l-19.5-0.1V43.4l32.8,0.1v8.9L68,115.1H54.7L69.7,53.9z"/>
			<path d="M69.3,53.5l-19.5-0.1V43h32.8v9l-15.1,62.7H54.3L69.3,53.5z"/>
			<path d="M68.9,53H49.5V42.5l32.8,0.1v8.9l-15.1,62.7H53.9L68.9,53z"/>
			<path d="M68.5,52.6L49,52.6V42.1l32.8,0.1v8.9l-15.1,62.7H53.5L68.5,52.6z"/>
			<path d="M68.1,52.2l-19.5-0.1V41.7l32.8,0.1v8.9l-15.1,62.7H53.1L68.1,52.2z"/>
			<path d="M67.7,51.8l-19.5-0.1V41.3l32.8,0.1v8.9l-15.1,62.7H52.7L67.7,51.8z"/>
			<path d="M67.3,51.4H47.8V40.9L80.7,41v8.9l-15.1,62.7H52.2L67.3,51.4z"/>
			<path d="M66.9,51l-19.5,0V40.5l32.8,0.1v8.9l-15.1,62.7H51.8L66.9,51z"/>
		</g>
		<path class="st1" d="M67.1,112.4H51.4l15-61.3l-19.2,0V38.2l35.2,0.1v10.4L67.1,112.4z M54.4,110h10.9l14.9-61.7v-7.6l-30.5-0.1
			v8.1l19.8,0.1L54.4,110z"/>
		<path class="st1" d="M67.7,111.8H52l15-61.3H47.8V37.7L83,37.8v10.4L67.7,111.8z M55,109.4h10.9l14.9-61.6v-7.6L50.2,40v8.1
			L70,48.2L55,109.4z"/>
		<path class="st1" d="M68.3,111.2l-15.7-0.1l15-61.2l-19.2,0V37.1l35.2,0.1v10.4L68.3,111.2z M55.6,108.8h10.9l14.9-61.6v-7.6
			l-30.5-0.1v8.1l19.8,0.1L55.6,108.8z"/>
		<path class="st1" d="M68.9,110.6H53.2l15-61.2H49V36.5l35.2,0.1V47L68.9,110.6z M56.2,108.2H67l14.9-61.6v-7.6l-30.5-0.1v8.1
			L71.2,47L56.2,108.2z"/>
		<path class="st1" d="M69.4,110H53.7l15-61.2l-19.2,0V35.9L84.8,36v10.4L69.4,110z M56.7,107.6h10.9L82.5,46v-7.7L52,38.2v8.1h19.8
			L56.7,107.6z"/>
		<path class="st1" d="M70,109.4H54.3l15-61.2l-19.1-0.1V35.3l35.2,0.1v10.4L70,109.4z M57.3,107h10.9l14.9-61.6v-7.6l-30.5-0.1v8.1
			l19.8,0L57.3,107z"/>
		<path class="st1" d="M70.6,108.8H54.9L70,47.6l-19.2-0.1V34.7L86,34.8v10.4L70.6,108.8z M57.9,106.4h10.9l14.9-61.7v-7.6
			l-30.5-0.1v8.1L73,45.2L57.9,106.4z"/>
		<path class="st1" d="M71.2,108.2H55.5l15-61.2l-19.2-0.1V34.1l35.2,0.1v10.4L71.2,108.2z M58.5,105.9h10.9l14.9-61.7v-7.6
			l-30.5-0.1v8.1l19.8,0.1L58.5,105.9z"/>
		<path class="st1" d="M71.8,107.6H56.1l15-61.2L52,46.3V33.5l35.2,0.1V44L71.8,107.6z M59.1,105.3H70l14.9-61.7V36l-30.5-0.1V44
			l19.8,0.1L59.1,105.3z"/>
		<path class="st1" d="M72.4,107.1H56.7l15-61.2l-19.1-0.1V33l35.2,0.1v10.4L72.4,107.1z M59.7,104.7h10.9L85.4,43v-7.6L55,35.3v8.1
			l19.8,0.1L59.7,104.7z"/>
		<path class="st1" d="M73,106.5H57.3l15-61.3l-19.2-0.1V32.4l35.2,0.1v10.4L73,106.5z M60.3,104.1h10.9L86,42.4v-7.6l-30.5-0.1v8.1
			l19.8,0.1L60.3,104.1z"/>
		<path class="st2" d="M73.8,44H54.4V33.5l32.8,0.1v8.9l-15.1,62.7H58.8L73.8,44z"/>
	</g>
</g>
</svg>
