<?xml version="1.0" encoding="utf-8"?>
<!-- Generator: Adobe Illustrator 25.2.0, SVG Export Plug-In . SVG Version: 6.00 Build 0)  -->
<svg version="1.1" id="Layer_1" xmlns="http://www.w3.org/2000/svg" xmlns:xlink="http://www.w3.org/1999/xlink" x="0px" y="0px"
	 viewBox="0 0 138 145" style="enable-background:new 0 0 138 145;" xml:space="preserve">
<style type="text/css">
	.st0{fill:#FBB040;}
</style>
<path class="st0" d="M37.5,84.5c-3.2,0-6.2-1.2-8.5-3.4c-2.6-2.3-4.1-5.6-4.1-9c-0.1-6.5-0.1-12.9,0-19.4C25,46,30.4,40.6,37.2,40.4
	c12.8-0.1,25.7-0.1,38.5,0c6.7,0.1,12.1,5.5,12.2,12.2c0.1,6.6,0.1,13.1,0,19.7c-0.2,6.7-5.6,12-12.3,12.2c-6.7,0.1-13.5,0-20.2,0
	c-0.6,0-1.1,0.2-1.5,0.7c-3.5,3.6-7.1,7.1-10.6,10.7c-1.1,1.1-2.3,1.7-3.8,1c-1.4-0.6-2.2-2-2-3.4c0-2.6,0-5.2,0-7.9L37.5,84.5z
	 M43.8,86.3c0.4-0.4,0.6-0.6,0.8-0.8c2-2,4-4,6-6c0.8-0.9,2-1.4,3.2-1.3c7,0,14,0,21,0c4.2,0,6.8-2.6,6.8-6.8V53.5
	c0-4.2-2.5-6.8-6.8-6.8H53.7c-5.4,0-10.8,0-16.1,0c-3.4-0.1-6.2,2.5-6.3,5.9c0,0,0,0.1,0,0.1c-0.1,6.5-0.1,13,0,19.5
	c0,2.9,2.1,5.4,5,5.8c1.3,0.2,2.7,0.2,4,0.2c2.3,0,3.5,1.3,3.5,3.5L43.8,86.3z"/>
<path class="st0" d="M52.2,91.3c1.2-1.2,2.3-2.3,3.4-3.4c0.6-0.5,1.5-0.4,1.9,0.2c0,0,0,0,0,0c1.2,1.8,3.3,2.8,5.4,2.7
	c7.1,0,14.2,0,21.3,0c1.1-0.1,2.3,0.4,3.1,1.2c2.2,2.2,4.4,4.5,6.8,6.8c0-0.4,0.1-0.6,0.1-0.8c0-1.4,0-2.8,0-4.1
	c0-1.7,1.4-3.1,3.1-3.1c1.1,0,2.2,0,3.3,0c3.4,0,6.1-2.7,6.2-6.1c0.1-6.4,0.1-12.8,0-19.2c0-3.4-2.7-6.2-6.1-6.2c0,0-0.1,0-0.1,0
	c-3.1,0-6.2,0-9.4,0V53h1.5c2.6,0,5.2,0,7.9,0c6.9,0,12.6,5.7,12.6,12.6c0,6.2,0,12.4,0,18.6c0.2,6.9-5.3,12.7-12.2,12.9l-0.4,0.1v1
	c0,2.7,0,5.4,0,8.1c0.1,1.8-1.2,3.3-2.9,3.4c-1,0.1-2-0.3-2.6-1.1c-3.6-3.6-7.2-7.2-10.8-10.8c-0.4-0.5-1-0.7-1.6-0.7
	c-6.6,0-13.2,0-19.8,0c-3.9,0-7.6-1.8-10-4.9C52.6,91.9,52.4,91.6,52.2,91.3z"/>
</svg>
