<?xml version="1.0" encoding="utf-8"?>
<!-- Generator: Adobe Illustrator 25.2.0, SVG Export Plug-In . SVG Version: 6.00 Build 0)  -->
<svg version="1.1" id="Layer_1" xmlns="http://www.w3.org/2000/svg" xmlns:xlink="http://www.w3.org/1999/xlink" x="0px" y="0px"
	 viewBox="0 0 138 145" style="enable-background:new 0 0 138 145;" xml:space="preserve">
<style type="text/css">
	.st0{fill:#FBB040;}
</style>
<path class="st0" d="M97.6,37.5c1.1,0.2,2.2,0.6,3.2,1c4,1.7,6.6,5.7,6.5,10.1c0.1,6.6,0,13.2,0,19.8c0,4.6,0,9.1,0,13.6
	c0.1,1.5-1.1,2.8-2.6,2.9c-0.5,0-1.1-0.1-1.5-0.4c-0.8-0.5-1.3-1.3-1.3-2.2c0-0.3,0-0.6,0-0.8V48.8c0.2-2.6-1.5-5-4.1-5.6
	C97.2,43,96.6,43,96,43H48.4c-3-0.2-5.7,2.1-5.9,5.2c0,0.2,0,0.5,0,0.7v47.4c-0.2,3,2.1,5.7,5.1,5.9c0.3,0,0.5,0,0.8,0
	c10.9,0,21.8,0,32.8,0c0.9-0.1,1.7,0.2,2.4,0.9c1,1.1,1,2.8-0.1,3.9c-0.4,0.4-1,0.7-1.6,0.7c-0.2,0-0.4,0-0.5,0
	c-11.1,0-22.2,0-33.3,0c-4.7,0-9-3-10.5-7.4c-0.3-0.7-0.4-1.5-0.6-2.3V47.2c0.1-0.1,0.1-0.2,0.1-0.3c0.5-3.7,2.8-6.8,6.2-8.3
	c1.1-0.4,2.3-0.8,3.4-1.1H97.6z"/>
<path class="st0" d="M107.3,99.7c-0.2,4.5-4,8.1-8.6,7.9c-1.9-0.1-3.7-0.8-5.2-2.1c-0.2-0.2-0.4-0.4-0.7-0.6
	c-4.8-4.8-9.6-9.6-14.3-14.4c-0.5-0.6-0.9-1.3-1.2-2c-1-3.4-1.9-6.8-2.9-10.3c-0.5-1.8,0.2-3.3,1.8-3.7c0.6-0.1,1.2-0.1,1.8,0.1
	c3.4,1,6.8,2,10.2,3.1c0.6,0.2,1.2,0.5,1.7,1c4.9,4.9,9.8,9.8,14.7,14.7C106.5,95.1,107.4,97.4,107.3,99.7z M92.7,96.9l3.9-3.9
	c-2.3-2.3-4.8-4.6-7-7c-1.8-2.2-4.3-3.7-7.2-4.3c-0.4-0.1-0.9-0.2-1.3-0.4c0.5,1.8,1,3.6,1.5,5.3c0.1,0.2,0.2,0.4,0.3,0.5
	C86.2,90.4,89.4,93.6,92.7,96.9z M100.6,97.1l-3.9,3.8c1.3,1.5,3,1.7,4.3,0.5S102.1,98.5,100.6,97.1z"/>
<path class="st0" d="M72.2,55.7c-6.1,0-12.2,0-18.3,0c-1.2,0.1-2.4-0.6-2.8-1.7c-0.6-1.4,0-3,1.4-3.6c0.3-0.1,0.5-0.2,0.8-0.2
	c0.2,0,0.4,0,0.6,0h36.6c1.3-0.1,2.5,0.6,2.9,1.8c0.5,1.4-0.2,3-1.6,3.5c-0.3,0.1-0.5,0.1-0.8,0.2c-1,0-1.9,0-2.9,0L72.2,55.7z"/>
<path class="st0" d="M72.2,66.7H53.8c-1.1,0.1-2.2-0.5-2.7-1.6c-0.6-1.4-0.1-3,1.3-3.6c0.3-0.1,0.6-0.2,0.9-0.2c0.2,0,0.4,0,0.5,0
	h36.8c1.2-0.1,2.4,0.6,2.8,1.7c0.5,1.4-0.2,3-1.6,3.5c-0.3,0.1-0.5,0.2-0.8,0.2c-0.7,0-1.3,0-2,0L72.2,66.7z"/>
<path class="st0" d="M59.8,77.6c-2.1,0-4.2,0-6.2,0c-1.5,0-2.7-1.2-2.7-2.7c0-1.1,0.6-2,1.6-2.5c0.4-0.2,0.9-0.3,1.3-0.3
	c4.1,0,8.2,0,12.3,0c1.5-0.1,2.8,1,3,2.5s-1,2.8-2.5,3c-0.2,0-0.3,0-0.5,0C63.9,77.7,61.9,77.7,59.8,77.6L59.8,77.6z"/>
</svg>
