<?xml version="1.0" encoding="utf-8"?>
<!-- Generator: Adobe Illustrator 25.2.0, SVG Export Plug-In . SVG Version: 6.00 Build 0)  -->
<svg version="1.1" id="Layer_1" xmlns="http://www.w3.org/2000/svg" xmlns:xlink="http://www.w3.org/1999/xlink" x="0px" y="0px"
	 viewBox="0 0 138 145" style="enable-background:new 0 0 138 145;" xml:space="preserve">
<style type="text/css">
	.st0{fill:#003C3A;}
</style>
<g>
	<g id="Layer_1_1_">
		
			<image style="overflow:visible;opacity:0.75;enable-background:new    ;" width="99" height="99" xlink:href="A47D5CB.png"  transform="matrix(1 0 0 1 19.53 23)">
		</image>
		<path class="st0" d="M71.2,29.2c1.3,0.2,2.6,0.4,3.9,0.6c12.5,2.5,22.1,12.5,24,25.1c1.5,8.5-0.8,17.1-6.2,23.8
			c-2.1,2.6-4.1,5.2-5.1,8.5c-0.3,1-0.5,2-0.8,3h-7.9v-1c0-7,0-13.9,0-20.9c0-0.7-0.1-1.4-0.4-2.1c-2.4-5-4.9-10-7.3-15
			c-0.7-1.3-2.3-1.8-3.6-1.1c-0.5,0.3-0.9,0.7-1.1,1.1c-2.4,5-4.9,9.9-7.3,14.9c-0.3,0.7-0.5,1.5-0.5,2.3c0,6.9,0,13.9,0,20.8v1
			c-2.5,0-5,0-7.5,0c-0.2,0-0.4-0.3-0.4-0.4c-0.8-3.9-2.6-7.6-5.3-10.5c-5.6-6.5-8.1-15.1-6.8-23.6C40.6,44,47.1,35.8,58,31.2
			c2.6-1,5.3-1.7,8-1.9c0.3,0,0.5-0.1,0.8-0.1H71.2z"/>
		<path class="st0" d="M25.7,61.7c0.6-1.3,2-2.1,3.4-1.9c1.4,0.1,2.7,0,4.1,0c1.4-0.1,2.6,1,2.7,2.4s-1,2.6-2.4,2.7
			c-0.1,0-0.2,0-0.3,0c-1.4,0-2.7-0.1-4.1,0c-1.4,0.2-2.8-0.5-3.4-1.8V61.7z"/>
		<path class="st0" d="M51.2,95.4h35.4c0.5,4.1-0.5,7.5-4.3,9.3c-1.1,0.5-2.3,0.8-3.5,0.8c-6.6,0.1-13.2,0-19.8,0
			c-4.2,0.1-7.7-3.2-7.9-7.4c0-0.2,0-0.3,0-0.5C51.2,96.9,51.2,96.2,51.2,95.4z"/>
		<path class="st0" d="M74,90.2H64V71.4c3.3,1.1,6.8,1.1,10.1,0L74,90.2z"/>
		<path class="st0" d="M56.9,110.6h24.2c-0.9,2.9-3.5,5-6.5,5.2c-3.7,0.1-7.4,0.1-11.2,0C60.4,115.5,57.8,113.5,56.9,110.6z"/>
		<path class="st0" d="M35.3,48.6c0.1,1-0.5,2-1.4,2.5c-0.8,0.5-1.9,0.4-2.6-0.2c-1.4-1.3-2.8-2.7-4.1-4.1c-0.8-1.1-0.6-2.7,0.5-3.5
			c0.9-0.7,2.2-0.7,3.1,0c1.4,1.3,2.7,2.6,4,4C34.9,47.7,35.1,48.1,35.3,48.6z"/>
		<path class="st0" d="M111.4,45.7c-0.2,0.5-0.5,1-0.8,1.5c-1.1,1.2-2.3,2.3-3.5,3.5c-0.9,1-2.5,1.1-3.6,0.2c-1-0.9-1.1-2.5-0.2-3.6
			c0-0.1,0.1-0.1,0.1-0.1c1.2-1.2,2.4-2.4,3.6-3.6c0.7-0.8,1.9-1,2.9-0.5C111,43.5,111.5,44.6,111.4,45.7z"/>
		<path class="st0" d="M35.3,76.1c-0.2,0.5-0.5,1.1-0.8,1.5c-1.1,1.2-2.3,2.4-3.4,3.5c-1,1-2.6,1-3.6,0c-1-1-1-2.6,0-3.6
			c1.1-1.2,2.3-2.4,3.6-3.5c0.7-0.8,1.9-1,2.8-0.5C34.8,74,35.4,75,35.3,76.1z"/>
		<path class="st0" d="M105.6,73.2c0.5,0.2,1.1,0.5,1.5,0.9c1.2,1.1,2.3,2.2,3.4,3.4c1,1,1,2.6,0,3.6c-1,1-2.6,1-3.6,0l0,0
			c-1.2-1.2-2.4-2.3-3.5-3.5c-0.8-0.7-1-1.9-0.5-2.8C103.5,73.7,104.5,73.1,105.6,73.2z"/>
		<path class="st0" d="M107.3,59.8c0.8,0,1.7,0,2.5,0c1.4,0,2.5,1.1,2.5,2.5c0,1.4-1.1,2.5-2.4,2.5c-1.8,0.1-3.6,0.1-5.3,0
			c-1.4-0.1-2.4-1.2-2.4-2.6c0-1.3,1.1-2.4,2.4-2.5C105.5,59.8,106.4,59.8,107.3,59.8z"/>
		<path class="st0" d="M69,57.9l4.2,8.3c-2.7,1.1-5.7,1.1-8.4,0L69,57.9z"/>
	</g>
</g>
</svg>
