<?xml version="1.0" encoding="utf-8"?>
<!-- Generator: Adobe Illustrator 25.2.0, SVG Export Plug-In . SVG Version: 6.00 Build 0)  -->
<svg version="1.1" id="Layer_1" xmlns="http://www.w3.org/2000/svg" xmlns:xlink="http://www.w3.org/1999/xlink" x="0px" y="0px"
	 viewBox="0 0 138 145" style="enable-background:new 0 0 138 145;" xml:space="preserve">
<style type="text/css">
	.st0{fill:#FBB040;}
</style>
<path class="st0" d="M52.4,115c-0.6-0.6-1.4-1-1.8-1.7c-0.6-1.3,0-2.8,1.3-3.3c0.3-0.2,0.7-0.2,1.1-0.2c1.5,0,2.9,0,4.4,0v-6h-1.1
	c-6.2,0-12.3,0-18.5,0c-3.6,0.2-6.8-2.4-7.3-6c-0.1-0.5-0.1-1-0.1-1.5c0-13.8,0-27.5,0-41.3c0-4.5,3-7.5,7.5-7.5c13.7,0,27.3,0,41,0
	c0.6,0,1.3-0.2,1.7-0.6l24-19.7c2.1-2,5.3-2.4,7.9-1c2.6,1.2,4.2,3.8,4,6.7c-0.1,1.7-0.7,3.3-1.9,4.5c-3.5,4.3-7,8.5-10.5,12.8
	c-0.4,0.5-0.7,1.1-0.7,1.8c0,14.8,0,29.6,0,44.4c0.2,3.4-2.1,6.4-5.3,7.2c-0.8,0.2-1.5,0.3-2.3,0.2c-6,0-12.1,0-18.1,0h-1.1v6
	c1.4,0,2.9,0,4.3,0c1.4,0,2.6,1.2,2.6,2.6c0,0.8-0.4,1.5-1,2c-0.3,0.2-0.7,0.4-1,0.6L52.4,115z M83.3,69.1v1.2
	c0.2,5.5-3.7,10.2-9.1,11.1c-1.8,0.2-3.6,0.3-5.4,0.3c-2.5,0.1-4.9,0.5-6.9,2c-1,0.7-2.4,0.6-3.3-0.3c-0.9-0.9-1-2.3-0.3-3.4
	c0.9-1.2,1.5-2.6,1.7-4.1c0.2-2,0.2-4,0.3-6c0-5.5,4-10.3,9.5-11c1-0.1,2.1-0.2,3.2-0.2c-0.1-2.1,0.4-4.2,1.5-6h-0.7H38
	c-1.6,0-2.2,0.6-2.2,2.2v34.2h62.6V57.4c-0.4,0.5-0.6,0.8-0.9,1.1c-1.8,2.2-3.7,4.5-5.5,6.7c-1.4,1.7-3.4,2.9-5.5,3.5
	C85.4,68.9,84.4,69,83.3,69.1z M35.8,94.5v1.3c0,2.3,0.5,2.7,2.7,2.7h57.2c0.4,0,0.8,0,1.1,0c0.8-0.1,1.4-0.7,1.5-1.5
	c0-0.8,0-1.6,0-2.4L35.8,94.5z M95,53.2l0.5-0.5l10.8-13.3l4.6-5.6c0.5-0.6,0.7-1.4,0.3-2.1c-0.3-0.7-1-1.1-1.7-1
	c-0.6,0.1-1.1,0.3-1.5,0.7c-4.4,3.6-8.8,7.2-13.2,10.8l-6,4.9l5.6,5.5C94.5,52.8,94.7,53,95,53.2z M65.4,76.6
	c2.2-0.1,4.4-0.1,6.6-0.2c1.7,0,3.3-0.7,4.4-1.9c2.3-2.7,2.1-6.7-0.6-9c-2.1-1.8-5-2.1-7.4-0.7c-1.9,1.1-3,3.1-2.9,5.2
	C65.5,72.2,65.4,74.4,65.4,76.6z M91.6,57.5l-7-7c-1.6,1.3-3.3,2.5-4.8,4c-2.1,2.2-2,5.7,0.3,7.8c2.1,2,5.4,2,7.5,0
	C89,60.7,90.3,59,91.6,57.5z M71.4,109.7v-5.9h-8.7v5.9H71.4z"/>
</svg>
