<?xml version="1.0" encoding="utf-8"?>
<!-- Generator: Adobe Illustrator 25.2.0, SVG Export Plug-In . SVG Version: 6.00 Build 0)  -->
<svg version="1.1" id="Layer_1" xmlns="http://www.w3.org/2000/svg" xmlns:xlink="http://www.w3.org/1999/xlink" x="0px" y="0px"
	 viewBox="0 0 138 145" style="enable-background:new 0 0 138 145;" xml:space="preserve">
<style type="text/css">
	.st0{fill:#003C3A;}
</style>
<g>
	<g id="Layer_1_1_">
		
			<image style="overflow:visible;opacity:0.75;enable-background:new    ;" width="91" height="107" xlink:href="EA4D42D.png"  transform="matrix(1 0 0 1 23.55 18)">
		</image>
		<path class="st0" d="M52.5,24.6h2c2.5,1,4.9,2,7.4,2.9c2.1,0.8,4.4,0.9,6.5,0.3c2.8-0.8,5.7-1.6,8.6-2.3c1.7-0.4,3.4-0.6,5.1-0.6
			c1.2-0.1,1.6,0.4,1.7,1.7c0,0.7,0,1.3-0.2,2c-1.4,6-4.5,11.5-8.9,15.9c-0.2,0.2-0.5,0.4-0.7,0.5c1.9,1.1,3.8,2,5.5,3.2
			c6.1,4.1,11.5,9.2,15.9,15.1c5.2,6.5,9.1,14.1,11.4,22.1c1.3,4.5,1.6,9.3,0.7,14c-1.4,6.8-5.6,11.5-11.7,14.6s-12.6,4.1-19.2,4.5
			c-6.3,0.4-12.5,0.2-18.8-0.6c-5.7-0.5-11.3-2.2-16.3-4.9c-5.7-3.3-9.5-8-10.9-14.5c-0.9-5.1-0.6-10.3,0.9-15.2
			c2.7-9.1,7.4-17.6,13.7-24.8c3.9-4.8,8.7-8.9,14-12.1l1.3-0.7c-0.4-0.3-0.8-0.6-1.1-0.8c-4.8-3.6-8.1-8.9-9.4-14.7
			C49.5,27.2,50.1,26,52.5,24.6z M71,98.1c2.3-0.2,4.5-0.9,6.4-2.3c4.4-3.3,4.8-10.7-1-13.7c-1.1-0.5-2.3-1-3.4-1.3
			c-2-0.6-2-0.6-2-2.8v-6.4c2.1,0,4,1.3,4.7,3.2c0.3,0.7,0.7,1.2,1.3,1.7c0.8,0.5,1.8,0.4,2.5-0.3c0.8-0.6,1.1-1.7,0.7-2.7
			c-0.9-2.9-3.1-5.2-6-6.1c-1-0.3-2-0.6-3.2-0.9c0-0.7,0-1.4,0-2.2c0.1-1.3-0.8-2.4-2.1-2.6c-1.3-0.1-2.4,0.8-2.6,2.1
			c0,0.2,0,0.4,0,0.5c0,0.7,0,1.5,0,2.2l-1,0.2c-1.8,0.4-3.5,1.2-4.9,2.3c-3.8,3.1-4.2,9.9,1,12.7c1.3,0.7,2.7,1.2,4.2,1.7
			c0.6,0.2,0.8,0.4,0.8,1.1c0,2.5,0,5,0,7.4c0,0.3,0,0.5-0.1,0.8c-2-0.4-3.7-1.9-4.4-3.9c-0.2-0.6-0.5-1.1-1-1.6
			c-0.8-0.6-1.9-0.7-2.6-0.1c-0.9,0.5-1.2,1.6-1,2.5c0.9,3.4,3.4,6.2,6.8,7.3c0.7,0.3,1.7,0.3,2.1,0.8s0.1,1.5,0.1,2.3
			c-0.1,1.3,0.9,2.4,2.2,2.5c1.3,0.1,2.4-0.9,2.5-2.2c0-0.1,0-0.2,0-0.3C71,99.6,71,98.9,71,98.1z"/>
		<path class="st0" d="M71,93.4v-8.5c1.3,0.5,2.6,1.1,3.9,1.8c1.7,1.1,1.6,3.9-0.1,5.3C73.7,92.8,72.4,93.3,71,93.4z"/>
		<path class="st0" d="M66.3,71.6v7.5c-1.3-0.3-2.5-0.9-3.5-1.8c-0.8-1.1-0.8-2.7,0.1-3.8C63.7,72.4,64.9,71.8,66.3,71.6z"/>
	</g>
</g>
</svg>
