<?xml version="1.0" encoding="utf-8"?>
<!-- Generator: Adobe Illustrator 25.2.0, SVG Export Plug-In . SVG Version: 6.00 Build 0)  -->
<svg version="1.1" id="Layer_1" xmlns="http://www.w3.org/2000/svg" xmlns:xlink="http://www.w3.org/1999/xlink" x="0px" y="0px"
	 viewBox="0 0 138 145" style="enable-background:new 0 0 138 145;" xml:space="preserve">
<style type="text/css">
	.st0{fill:#003C3A;}
</style>
<g>
	<g id="Layer_1_1_">
		
			<image style="overflow:visible;opacity:0.75;enable-background:new    ;" width="107" height="105" xlink:href="98F9767D.png"  transform="matrix(1 0 0 1 15.57 19)">
		</image>
		<path class="st0" d="M69,25.3c2.2,0,4.3,0.7,6,2c1.8,1.4,3.7,2.7,5.5,4.1c1.8,1.4,4,2.2,6.3,2.2c2.3,0.1,4.7,0.2,7,0.4
			c4.4,0.3,8,3.5,8.9,7.7c0.6,2.4,1.1,4.8,1.7,7.2c0.4,1.8,1.4,3.5,2.8,4.8c1.7,1.6,3.5,3.2,5.2,4.9c3.5,3,4.4,8.1,2.1,12.1
			c-0.8,1.6-1.6,3.3-2.5,4.8c-1.6,2.7-2.2,6-1.5,9.1c0.3,1.8,0.5,3.7,0.7,5.5c0.5,4.2-1.7,8.2-5.6,9.9c-2.3,1.1-4.6,2-6.9,3
			c-2,0.8-3.7,2.2-4.8,4c-1.2,1.9-2.5,3.8-3.7,5.7c-2.4,4-7.2,5.8-11.6,4.2c-2.3-0.7-4.6-1.4-7-2.1c-1.7-0.5-3.6-0.5-5.4,0
			c-2.8,0.8-5.5,1.8-8.3,2.4c-3.7,0.9-7.6-0.7-9.7-3.9c-1.5-2-2.8-4.1-4.1-6.2c-1.2-1.9-2.9-3.3-4.9-4.1c-2.1-0.8-4.2-1.8-6.2-2.7
			c-4.3-1.7-6.8-6.2-6-10.7c0.3-2.3,0.6-4.6,0.8-6.8c0.2-2-0.1-4-1-5.8c-1.1-2.1-2.1-4.2-3.2-6.2c-2.3-4-1.3-9.1,2.2-12.1
			c1.6-1.6,3.3-3.1,5-4.7c1.6-1.5,2.7-3.4,3.1-5.5c0.5-2.2,1-4.5,1.6-6.7c0.9-4.4,4.8-7.7,9.3-7.8c2.4-0.1,4.8-0.2,7.3-0.4
			c1.9-0.1,3.6-0.8,5.1-2c1.9-1.4,3.7-2.8,5.6-4.2C64.6,26,66.8,25.3,69,25.3z M100.8,71.4c0-17.6-14.3-31.7-31.9-31.7
			c-17.6,0-31.7,14.3-31.7,31.9c0,17.5,14.3,31.7,31.8,31.7C86.6,103.2,100.8,89,100.8,71.4z"/>
		<path class="st0" d="M97.7,71.5c-0.1,15.8-12.9,28.6-28.8,28.6C53.1,100,40.3,87.1,40.3,71.3c0.1-15.8,12.9-28.6,28.7-28.6
			C84.9,42.7,97.7,55.6,97.7,71.5z M65.1,73.9c-2-2.1-4.2-4.2-6.3-6.3c-1.5-1.8-4.2-2.1-6-0.5s-2.1,4.2-0.5,6
			c0.2,0.2,0.3,0.4,0.5,0.5c3.1,3.2,6.3,6.3,9.5,9.5c1.6,1.6,4.2,1.7,5.8,0.1c0,0,0.1-0.1,0.1-0.1c5.7-5.8,11.5-11.5,17.1-17.4
			c0.6-0.8,1-1.7,1.1-2.7c0.1-1.7-0.8-3.3-2.4-4c-1.6-0.8-3.5-0.4-4.8,0.8c-2.1,2-4.1,4.2-6.2,6.2C70.5,68.6,67.8,71.2,65.1,73.9z"
			/>
	</g>
</g>
</svg>
