<?xml version="1.0" encoding="utf-8"?>
<!-- Generator: Adobe Illustrator 25.2.0, SVG Export Plug-In . SVG Version: 6.00 Build 0)  -->
<svg version="1.1" id="Layer_1" xmlns="http://www.w3.org/2000/svg" xmlns:xlink="http://www.w3.org/1999/xlink" x="0px" y="0px"
	 viewBox="0 0 500 452.7" style="enable-background:new 0 0 500 452.7;" xml:space="preserve">
<style type="text/css">
	.st0{fill:#E0E0E0;}
	.st1{fill:#FFFFFF;}
	.st2{fill:#EBEBEB;}
	.st3{fill:#F5F5F5;}
	.st4{fill:#263238;}
	.st5{fill:#003C3A;}
	.st6{fill:#FAAF40;}
	.st7{opacity:0.3;}
</style>
<g id="Background_Complete">
	<path class="st0" d="M51.4,280.7l6,2.9c0,0,2.4-5,7.7-2.6c2.1,0.9,3.4,3,3.2,5.3c-0.1,1.9-1.1,3.7-2.7,4.7c-1.8,1.2-4.8,1.7-8.5-1
		l-4.2,8.8l6,2.8l1.5-3.2c5.7,0.9,11.3-2.1,13.7-7.4c4.2-8.8-2.8-14.6-6.1-16.2C65.4,273.6,56.3,270.1,51.4,280.7z"/>
	
		<rect x="50.4" y="302" transform="matrix(0.4286 -0.9035 0.9035 0.4286 -245.2988 222.7644)" class="st0" width="6.2" height="6.7"/>
	<path class="st0" d="M109.7,378.2l6.8,1.9c0,0,1.6-5.7,7.6-4.1c2.4,0.6,4.1,2.6,4.3,5c0.2,2-0.5,4-2,5.4c-1.7,1.6-4.7,2.6-9,0.5
		l-2.8,10l6.7,1.9l1-3.6c0,0,10.1,0.2,13-10.1c2.8-9.9-5.4-14.7-9.2-15.8C123.1,368.3,113,366.2,109.7,378.2z"/>
	
		<rect x="113" y="400" transform="matrix(0.2721 -0.9623 0.9623 0.2721 -303.6928 405.6144)" class="st0" width="6.6" height="7.1"/>
	<path class="st1" d="M394.3,164.1l6.5,0.1c8.5,9.5,23,10.3,32.5,1.8c9.5-8.5,10.3-23,1.8-32.5s-23-10.3-32.5-1.8
		c-7.1,6.4-9.6,16.5-6.1,25.4l0,0L394.3,164.1z"/>
	<path class="st0" d="M394.3,164.1c0-0.1,0.1-0.3,0.1-0.4c0.1-0.3,0.2-0.8,0.4-1.3c0.4-1.2,0.9-3,1.6-5.2c0-0.1,0.1-0.1,0.1-0.1
		c0,0,0,0,0,0c0,0,0,0,0.1,0l0,0l-0.2,0.1c-3.4-8.7-1.2-18.6,5.5-25.1c9.3-8.9,24-8.6,32.9,0.7c1.1,1.1,2,2.3,2.9,3.6
		c2.1,3.2,3.3,6.9,3.5,10.7c0.8,10.5-5.6,20.3-15.5,23.7c-5.1,1.8-10.6,1.7-15.7-0.1c-3.6-1.3-6.8-3.5-9.3-6.4h0.1l-4.9-0.1
		l-1.2-0.1L394.3,164.1l1.7,0h4.8c0,0,0,0,0.1,0c8.5,9.4,23,10.1,32.4,1.7c0,0,0.1-0.1,0.1-0.1c2.5-2.3,4.4-5,5.7-8.1
		c1.3-3.3,1.9-6.9,1.6-10.4c-0.9-11.3-9.9-20.2-21.2-21c-9.3-0.6-18.1,4.5-22.1,12.9c-1.1,2.2-1.8,4.6-2.1,7
		c-0.5,3.7,0,7.6,1.3,11.1c0,0,0,0.1,0,0.1c0,0,0,0,0,0c0,0-0.1,0-0.1,0l0,0h0.2l-1.7,5.1c-0.2,0.6-0.3,1-0.5,1.3
		S394.3,164.1,394.3,164.1z"/>
	<path class="st0" d="M410.4,145.8h4.1c0-1.9,1.5-3.5,3.4-3.5c0,0,0.1,0,0.1,0c1.4,0,2.7,0.8,3.2,2.1c0.4,1.1,0.3,2.3-0.3,3.3
		c-0.7,1.1-2.2,2.2-5,1.7v6h4v-2.2c3.4-1,5.7-4.1,5.6-7.7c0-5.9-5.4-7.3-7.6-7.3C416.2,138.1,410.3,138.6,410.4,145.8z"/>
	<rect x="415.9" y="156.9" class="st0" width="4.1" height="3.8"/>
	<path class="st0" d="M140.6,40.8h19.1c0,0,0-16,16.7-16.3c6.6-0.3,12.6,3.7,15,9.9c2,5.1,1.5,10.8-1.4,15.5
		c-3.2,5.3-10.3,10.2-23.2,7.9v28h18.9V75.6c0,0,26.5-6.8,26.5-36c0-27.9-25-34.4-35.8-34.4C168.2,5.2,140.3,7.2,140.6,40.8z"/>
	<rect x="166.7" y="93.1" class="st0" width="19.2" height="17.9"/>
	<path class="st2" d="M123.6,107.4l-15-4c0,0-3.4,12.6-16.5,9.3c-5.2-1.2-9.1-5.6-9.7-10.9c-0.5-4.4,1.1-8.8,4.3-11.9
		c3.7-3.5,10.3-5.8,19.9-1.4l5.9-22l-14.8-4l-2.1,8c0,0-22.3-0.2-28.4,22.8c-5.9,22,12.5,32.3,20.9,34.6
		C94.5,129.7,116.8,134,123.6,107.4z"/>
	<rect x="101.1" y="44" transform="matrix(0.258 -0.9662 0.9662 0.258 30.436 143.1484)" class="st2" width="14.6" height="15.6"/>
	<path class="st2" d="M413.2,276.1l12.5,1.3c0,0,1.1-10.5,12-9.5c4.3,0.3,8,3.3,9.1,7.5c1,3.5,0.2,7.2-2,10
		c-2.5,3.3-7.5,5.9-15.7,3.5l-2,18.3l12.4,1.3l0.7-6.7c0,0,17.8-2.6,19.9-21.7c2-18.3-14-24.3-21-25
		C433.8,254.7,415.4,254,413.2,276.1z"/>
	
		<rect x="426.4" y="312.3" transform="matrix(0.1071 -0.9942 0.9942 0.1071 69.2173 714.2123)" class="st2" width="11.8" height="12.6"/>
	<path class="st3" d="M49.2,351l13.1-1.4c0,0-1.2-11,10.2-12.5c4.5-0.6,8.9,1.6,11,5.7c1.8,3.3,1.9,7.3,0.2,10.7
		c-1.8,3.9-6.3,7.8-15.4,7.2l2.1,19.3l13-1.4l-0.8-7c0,0,17.7-6.7,15.5-26.7c-2.1-19.2-19.8-21.8-27.1-21
		C65.5,324.4,46.5,327.8,49.2,351z"/>
	
		<rect x="71.6" y="384.2" transform="matrix(0.9942 -0.1071 0.1071 0.9942 -41.3709 10.6303)" class="st3" width="13.2" height="12.4"/>
	<path class="st3" d="M231.7,55.3l11.5-3.4c0,0-2.8-9.7,7.2-12.8c3.9-1.3,8.3,0,10.8,3.3c2.1,2.7,2.8,6.3,1.9,9.6
		c-1,3.8-4.5,8-12.6,8.9l4.9,16.9l11.4-3.3l-1.8-6.2c0,0,14.8-8.8,9.6-26.5C269.8,25,253.5,25.5,247,27.4
		C242.1,28.9,225.6,35,231.7,55.3z"/>
	<rect x="258" y="80.4" transform="matrix(0.96 -0.2802 0.2802 0.96 -13.5205 77.4279)" class="st3" width="12.1" height="11.3"/>
	<path class="st3" d="M437.8,222.9l9.3-2.7c0,0-2.3-7.8,5.8-10.3c3.2-1.1,6.7,0,8.7,2.7c1.7,2.2,2.3,5.1,1.5,7.8
		c-0.8,3.1-3.6,6.4-10.2,7.2l4,13.7l9.2-2.7l-1.5-5c0,0,12-7.1,7.8-21.4c-4-13.6-17.1-13.2-22.4-11.7
		C446.2,201.6,432.9,206.5,437.8,222.9z"/>
	<rect x="459.1" y="243.2" transform="matrix(0.96 -0.2802 0.2802 0.96 -50.8189 139.9074)" class="st3" width="9.8" height="9.1"/>
</g>
<g id="Floor">
	<path class="st4" d="M468.3,447.7c0,0.1-97.7,0.3-218.3,0.3s-218.3-0.1-218.3-0.3s97.7-0.3,218.3-0.3S468.3,447.6,468.3,447.7z"/>
</g>
<g id="Speech_Bubble">
	<circle class="st1" cx="373.5" cy="83.1" r="39.1"/>
	<path class="st4" d="M412.6,83.1c0,0,0-0.2-0.1-0.6s-0.1-1.1-0.1-1.9c0-0.4,0-0.9-0.1-1.4s-0.2-1-0.2-1.6s-0.2-1.2-0.3-1.9
		s-0.3-1.4-0.5-2.1c-0.9-3.7-2.3-7.2-4.3-10.4c-2.6-4.3-5.9-8-9.9-11l-1.7-1.2c-0.6-0.4-1.2-0.8-1.8-1.1s-1.2-0.8-1.9-1.1l-2-1
		l-1-0.5l-1.1-0.4l-2.2-0.8c-0.8-0.2-1.5-0.4-2.3-0.6c-0.8-0.2-1.6-0.4-2.4-0.5c-1.6-0.3-3.3-0.5-4.9-0.6c-0.8,0-1.7-0.1-2.5-0.1
		l-2.6,0.1c-0.4,0-0.9,0-1.3,0.1l-1.3,0.2c-0.9,0.1-1.7,0.2-2.6,0.4c-1.8,0.4-3.5,0.9-5.2,1.5c-1.7,0.6-3.4,1.4-5.1,2.2
		c-0.8,0.5-1.6,1-2.4,1.5c-0.4,0.2-0.8,0.5-1.2,0.8l-1.1,0.9c-3.2,2.3-6,5.1-8.2,8.2l-0.9,1.2l-0.8,1.3l-0.8,1.3
		c-0.3,0.4-0.5,0.9-0.7,1.3l-1.4,2.8l-1.1,2.9c-1.3,4-2,8.1-2,12.3c0,4.2,0.7,8.3,2,12.3c0.4,1,0.7,1.9,1,2.9
		c0.5,0.9,0.9,1.8,1.3,2.8l0.3,0.7l0.4,0.6l0.8,1.3l0.8,1.3l0.9,1.2c1.2,1.6,2.4,3.1,3.8,4.5c1.4,1.3,2.9,2.6,4.4,3.8l1.1,0.8
		c0.4,0.3,0.8,0.5,1.2,0.8c0.8,0.5,1.6,1,2.4,1.4c1.6,0.9,3.3,1.6,5.1,2.2c1.7,0.6,3.4,1.1,5.2,1.5c0.9,0.2,1.8,0.3,2.6,0.4l1.3,0.2
		c0.4,0,0.9,0,1.3,0.1l2.6,0.1c0.9,0,1.7-0.1,2.5-0.1c1.7-0.1,3.3-0.3,4.9-0.6c0.8-0.1,1.6-0.3,2.4-0.5c0.8-0.2,1.5-0.4,2.3-0.6
		l2.2-0.8l1.1-0.4l1-0.5l2-1c0.7-0.3,1.3-0.7,1.9-1.1s1.2-0.7,1.8-1.1l1.7-1.2c4-3,7.4-6.8,10-11.1c2-3.2,3.4-6.7,4.3-10.4
		c0.2-0.8,0.4-1.4,0.5-2.1s0.2-1.3,0.3-1.9s0.2-1.1,0.2-1.6s0.1-1,0.1-1.4c0-0.8,0.1-1.4,0.1-1.9C412.6,83.3,412.6,83.1,412.6,83.1
		c0,0,0,0.2,0,0.6s0,1.1-0.1,1.9c0,0.4,0,0.9-0.1,1.4s-0.1,1-0.2,1.6s-0.2,1.2-0.3,1.9s-0.3,1.4-0.5,2.2c-0.9,3.7-2.3,7.2-4.3,10.5
		c-2.6,4.3-5.9,8.1-9.9,11.2c-0.6,0.4-1.1,0.8-1.7,1.3s-1.2,0.8-1.8,1.2s-1.2,0.8-1.9,1.1l-2,1l-1,0.5l-1.1,0.4l-2.2,0.8
		c-0.8,0.2-1.5,0.4-2.3,0.6c-0.8,0.2-1.6,0.4-2.4,0.5c-1.7,0.3-3.3,0.5-5,0.6c-0.9,0-1.7,0.1-2.6,0.1l-2.6-0.1c-0.4,0-0.9,0-1.3-0.1
		L368,122c-0.9-0.2-1.8-0.2-2.6-0.4c-1.8-0.4-3.5-0.9-5.2-1.5c-1.8-0.6-3.5-1.4-5.1-2.2c-0.8-0.4-1.6-1-2.5-1.5
		c-0.4-0.3-0.8-0.5-1.2-0.8l-1.2-0.9c-1.6-1.2-3.1-2.4-4.5-3.8c-1.4-1.4-2.7-3-3.9-4.6l-0.9-1.2l-0.8-1.3l-0.8-1.3l-0.4-0.7
		l-0.3-0.7c-0.5-0.9-0.9-1.8-1.3-2.8s-0.7-2-1.1-2.9c-1.3-4-2-8.2-2-12.4c0-4.2,0.7-8.4,2-12.4c0.4-1,0.7-2,1.1-2.9l1.3-2.7
		c0.2-0.5,0.5-0.9,0.7-1.3l0.8-1.3l0.8-1.3l0.9-1.2c1.2-1.6,2.5-3.1,3.9-4.6c1.4-1.4,2.9-2.6,4.5-3.8l1.2-0.9
		c0.4-0.3,0.8-0.5,1.2-0.8c0.8-0.5,1.6-1,2.5-1.5c1.7-0.9,3.4-1.6,5.1-2.2c1.7-0.6,3.5-1.1,5.2-1.5c0.9-0.2,1.8-0.3,2.6-0.4l1.3-0.2
		c0.4-0.1,0.9-0.1,1.3-0.1l2.6-0.1c0.9,0,1.7,0.1,2.6,0.1c1.7,0.1,3.3,0.3,5,0.6c0.8,0.1,1.6,0.3,2.4,0.5c0.8,0.2,1.6,0.4,2.3,0.6
		l2.2,0.8l1.1,0.4l1,0.5l2,1c0.7,0.3,1.3,0.8,1.9,1.1s1.2,0.7,1.8,1.1l1.7,1.3c4,3,7.4,6.8,10,11.1c2,3.3,3.4,6.8,4.3,10.5
		c0.2,0.8,0.4,1.5,0.5,2.2s0.2,1.3,0.3,1.9s0.2,1.1,0.2,1.6s0,1,0.1,1.4c0,0.8,0,1.4,0.1,1.9S412.6,83.1,412.6,83.1z"/>
	<path class="st5" d="M359.6,76.4h7.4c0,0,0-6.2,6.5-6.3c2.6-0.1,4.9,1.4,5.8,3.8c0.8,2,0.6,4.2-0.5,6c-1.3,2.1-4,4-9,3.1v10.9h7.4
		v-4c0,0,10.3-2.7,10.3-14c0-10.9-9.8-13.4-13.9-13.4C370.3,62.5,359.4,63.3,359.6,76.4z"/>
	<rect x="369.7" y="96.7" class="st5" width="7.5" height="7"/>
	<circle class="st1" cx="355.1" cy="129.2" r="6.1"/>
	<path class="st4" d="M361.2,129.2c0,0,0-0.6-0.3-1.5c-0.4-1.3-1.2-2.4-2.2-3.2c-2.6-2-6.3-1.4-8.3,1.2c-2,2.6-1.4,6.3,1.2,8.3
		c2.1,1.6,5,1.6,7.1,0c1.1-0.8,1.9-1.9,2.2-3.2C361.1,129.7,361.1,129.2,361.2,129.2s0,0.1,0,0.4c0,0.4,0,0.8-0.1,1.1
		c-0.3,1.4-1.1,2.6-2.2,3.5c-2.7,2.2-6.7,1.7-8.8-1c-0.1-0.1-0.1-0.1-0.2-0.2c-1.7-2.2-1.7-5.3,0-7.5c2.1-2.8,6-3.4,8.8-1.4
		c0.1,0,0.1,0.1,0.2,0.1c1.1,0.9,1.9,2.1,2.2,3.5c0.1,0.4,0.1,0.7,0.1,1.1C361.2,129.1,361.2,129.2,361.2,129.2z"/>
</g>
<g id="Character">
	<path class="st4" d="M363,265.5c10.3,34.6,12.5,71,6.4,106.6c-0.8,4.4,1.2,8.9,5.8,10.1c4,1.1,9.4-1.4,10.1-5.8
		c6.7-38.4,4.5-77.9-6.4-115.4C375.9,251,360,255.3,363,265.5L363,265.5z"/>
	<path class="st6" d="M406.2,223.6c-4.7-16.1-17.6-29.2-33-33.5c3.1-11.5-1.8-24.8-7.9-34.9c-6.3-10.1-16.6-17.1-28.3-19.2
		c-11.6-1.9-18.8-0.9-30,2.7c-6.7-12.8-19.6-19.8-33.4-21.5s-28.6,6.1-34.2,19.5c-2-14.1-17.9-22.5-31.1-19.3s-23.1,14.9-29.3,27.5
		l176.6,190c15.6,6.2,35-0.2,44.4-14.9s7.9-36.1-3.3-49.2C407.2,258.2,410.9,239.7,406.2,223.6z"/>
	
		<rect x="203.4" y="395.2" transform="matrix(0.1071 -0.9942 0.9942 0.1071 -177.2876 605.9479)" class="st4" width="90.6" height="12.9"/>
	
		<rect x="275.5" y="356.4" transform="matrix(0.9942 -0.1071 0.1071 0.9942 -41.4095 32.5179)" class="st4" width="12.9" height="90.6"/>
	<path class="st6" d="M117.7,169.1c5.3-14.7,14.9-25.9,29.7-32s31.6-6.2,47.5-3.4c6.5,1.1,13.2,2.9,18.2,7.2s7.8,11.8,4.9,17.7
		c22-12.4,49.9-4.7,62.3,17.4c3.7,6.6,5.8,14.1,5.9,21.7c14.3-1.1,29.3,2,40.7,10.8s18.4,23.7,15.8,37.8c9.4-0.8,18.3,5.2,23.3,13.2
		c5,8,6.6,17.6,7.3,26.9c0.4,5.8,0.5,11.7-1.5,17.2c-0.9,2.7-2.3,5.2-3,7.9c-0.7,3.3-0.3,6.8-0.2,10.2c0.8,26.6-20.1,48.8-46.7,49.6
		c-6.4,0.2-12.7-0.9-18.7-3.2c-16.4,16.9-45.8,19-64.4,4.6c-12.1,4.1-25,7-37.6,5.4c-6.5-0.8-12.8-3-18.4-6.5
		c-5.1-3.2-8-9.4-12.7-12.3s-10.4-0.4-15.9-0.4c-6.4-0.1-12.8-1.7-18.5-4.6c-10.9-5.9-18.9-16.1-21.9-28.2c-0.6-2.4-1-5-2.6-6.9
		c-1.4-1.8-3.5-2.9-5.4-4c-23.2-13.5-31-43.2-17.5-66.4c1.4-2.5,3.1-4.8,5-7c0,0-9.2-23.7-0.6-45S117.7,169.1,117.7,169.1z"/>
	<g class="st7">
		<path d="M400,303.2c-7.4,11.3-20.3,17.9-33.9,17.2c-8.1,25.2-35.1,39.2-60.4,31.1c-0.9-0.3-1.8-0.6-2.6-0.9
			c-16.4,16.9-45.8,19-64.4,4.6c-12.1,4.1-25,7-37.6,5.4c-6.5-0.8-12.8-3-18.4-6.5c-5.1-3.2-8-9.4-12.7-12.3s-10.4-0.4-15.9-0.4
			c-6.4-0.1-12.8-1.7-18.5-4.6c-10.9-5.9-18.9-16.1-21.9-28.1c-0.6-2.4-1-5-2.6-6.9c-1.4-1.8-3.5-2.9-5.4-4
			c-12.1-7.2-20.6-19.2-23.2-33c-1,5.5-1.1,11.2-0.2,16.8c2.5,14.1,11.1,26.5,23.4,33.8c2,1.1,4.1,2.2,5.4,4c1.5,2,2,4.5,2.6,6.9
			c3,12.1,10.9,22.3,21.9,28.2c5.7,3,12.1,4.6,18.5,4.6c5.5,0.1,11-2.6,15.9,0.4s7.7,9.1,12.7,12.3c5.6,3.5,11.9,5.7,18.4,6.5
			c12.7,1.6,25.5-1.3,37.6-5.4c18.6,14.4,48,12.3,64.4-4.6c24.7,9.6,52.5-2.8,62.1-27.5c0.3-0.9,0.6-1.7,0.9-2.6
			c13.5,0.7,26.4-5.9,33.9-17.2c5.7-8.9,7.4-20.4,5.3-30.9C404.4,294.5,402.6,299.1,400,303.2z"/>
	</g>
	<path class="st4" d="M186.6,274.1c-0.1-0.2-0.3-0.3-0.4-0.5c-0.2-0.4-0.6-0.9-1.1-1.6c-3.4-4.7-7.8-8.5-13-11
		c-7.6-3.9-16.3-4.7-24.4-2.3c-3.3,0.9-6.5,2.4-9.4,4.2c-2,1.2-3.8,2.7-5.5,4.3c-0.6,0.5-1,1-1.3,1.3c-0.1,0.2-0.3,0.3-0.5,0.5
		c0.1-0.2,0.3-0.4,0.4-0.5c0.3-0.3,0.7-0.8,1.3-1.4c1.6-1.7,3.4-3.2,5.4-4.4c2.9-1.9,6.1-3.4,9.4-4.4c11.8-3.4,24.5-0.2,33.2,8.3
		c1.7,1.6,3.2,3.4,4.5,5.4c0.5,0.7,0.8,1.2,1,1.6C186.4,273.7,186.5,273.9,186.6,274.1z"/>
	<path class="st4" d="M200.5,333.3c0-0.1,0-0.2,0-0.4c0-0.3,0-0.6,0.1-1s0.1-1,0.1-1.7s0.2-1.4,0.4-2.3c0.4-2.1,1-4.1,1.7-6.1
		c3.5-9.6,10.4-17.6,19.3-22.6c3.8-2.1,7.9-3.5,12.2-4.1c4.6-0.7,9.3-0.6,13.8,0.2c8.9,1.6,17,6,23.2,12.6c5,5.4,8.2,12.2,9.1,19.5
		c0.6,4.9-0.1,9.9-2,14.5c-0.7,1.7-1.6,3.2-2.7,4.7c0-0.1,0.1-0.2,0.2-0.3c0.1-0.2,0.3-0.5,0.5-0.9c3.2-5.4,4.4-11.7,3.6-17.9
		c-1-7.2-4.2-14-9.1-19.3c-6.1-6.5-14.2-10.9-23-12.4c-4.5-0.8-9.1-0.9-13.7-0.2c-4.2,0.6-8.3,2-12.1,4c-6.4,3.5-11.7,8.6-15.5,14.8
		c-1.5,2.4-2.7,4.9-3.7,7.5c-0.7,2-1.3,4-1.7,6.1c-0.1,0.9-0.3,1.6-0.4,2.3l-0.2,1.7l-0.1,1C200.6,333,200.6,333.2,200.5,333.3z"/>
	<path class="st4" d="M330.2,344.8c-0.1,0.1-0.3,0.2-0.4,0.2c-0.4,0.2-0.9,0.4-1.3,0.6c-1.6,0.6-3.3,1.1-5.1,1.3
		c-2.6,0.3-5.2,0.2-7.8-0.4c-6.4-1.3-11.8-5.4-14.8-11.2c-1.2-2.3-2-4.8-2.4-7.4c-0.3-1.7-0.3-3.5-0.1-5.2c0-0.5,0.1-0.9,0.2-1.4
		c0-0.2,0.1-0.3,0.1-0.5c-0.2,2.4-0.2,4.7,0.2,7.1c0.4,2.5,1.3,5,2.5,7.2c2.9,5.6,8.2,9.7,14.5,11c2.5,0.6,5.1,0.7,7.6,0.5
		C325.7,346.2,328,345.6,330.2,344.8z"/>
	<path class="st4" d="M178.4,151.3c0-0.4,0-0.9,0.1-1.3c0.2-1.2,0.4-2.3,0.8-3.5c0.5-1.7,1-3.4,1.7-5c1.6-4,3.9-7.7,6.6-11
		c1.1-1.4,2.3-2.6,3.6-3.8c0.9-0.8,1.8-1.6,2.7-2.3c0.3-0.3,0.7-0.5,1.1-0.7c0.1,0.1-1.4,1.2-3.5,3.3c-1.2,1.2-2.4,2.5-3.5,3.9
		c-2.7,3.3-4.9,7-6.5,10.9c-0.7,1.6-1.3,3.2-1.8,4.9C178.8,149.5,178.4,151.3,178.4,151.3z"/>
	<path class="st4" d="M139.3,166.6c0,0.1-1.8-0.4-4.7-0.7c-1.7-0.2-3.4-0.2-5.2-0.1c-2.1,0.1-4.2,0.4-6.3,0.9c-2.1,0.5-4.1,1.2-6,2
		c-1.6,0.7-3.1,1.5-4.6,2.4c-2.5,1.6-3.8,2.9-3.9,2.8c0.3-0.3,0.6-0.6,0.9-0.9c0.4-0.4,0.8-0.7,1.2-1c0.5-0.4,1-0.8,1.6-1.2
		c1.4-1,3-1.8,4.6-2.6c3.9-1.8,8.1-2.8,12.4-2.9c1.7-0.1,3.5,0,5.2,0.3c0.7,0.1,1.4,0.2,2,0.3c0.5,0.1,1,0.2,1.5,0.4
		C138.5,166.3,138.9,166.4,139.3,166.6z"/>
	<path class="st4" d="M139.3,249.6c0,0-0.1,0.1-0.4,0.4s-0.7,0.6-1.2,0.9c-1.5,1.1-3.1,2-4.9,2.8c-11.7,5.3-25.4,2.6-34.2-6.8
		c-1.3-1.4-2.4-2.9-3.4-4.4c-0.3-0.4-0.5-0.9-0.8-1.3c-0.1-0.1-0.2-0.3-0.2-0.5c0,0,0.4,0.6,1.2,1.7c2.6,3.8,6,7,10,9.4
		c5.8,3.5,12.7,4.9,19.4,3.9c2.7-0.4,5.4-1.1,7.9-2.2c1.7-0.7,3.3-1.6,4.9-2.6C138.7,250,139.2,249.5,139.3,249.6z"/>
	<path class="st4" d="M114.8,296.4c0.1,0-0.7,1.8-1.5,4.7c-0.5,1.7-0.8,3.5-1.1,5.3c-0.3,2.2-0.4,4.4-0.4,6.5
		c0.1,2.2,0.3,4.4,0.7,6.5c0.3,1.8,0.8,3.5,1.3,5.2c0.9,2.9,1.8,4.6,1.7,4.6c-0.3-0.4-0.5-0.8-0.7-1.2c-0.2-0.5-0.5-0.9-0.7-1.4
		c-0.2-0.6-0.5-1.2-0.8-1.9c-0.6-1.7-1.1-3.5-1.4-5.2c-0.4-2.2-0.7-4.4-0.7-6.6c0-2.2,0.1-4.4,0.4-6.6c0.3-1.8,0.7-3.6,1.2-5.3
		c0.2-0.8,0.5-1.4,0.7-2c0.2-0.5,0.4-1,0.6-1.5C114.3,297.2,114.5,296.8,114.8,296.4z"/>
	<path class="st4" d="M179.6,368.5c-0.2-0.2-0.3-0.3-0.4-0.5c-0.3-0.4-0.7-0.9-1.1-1.6c-1.4-2-2.6-4-3.7-6.1
		c-1.7-3.1-3.1-6.4-4.1-9.8c-0.6-2-1.1-4-1.4-6.1c-0.3-2.2-0.5-4.5-0.5-6.7c0.1-7.9,1.9-15.7,5.2-22.8c1-2.2,2.2-4.2,3.5-6.2
		c0.4-0.7,0.9-1.2,1.1-1.6c0.1-0.2,0.3-0.4,0.4-0.5c-0.1,0.2-0.2,0.4-0.3,0.6c-0.2,0.4-0.6,0.9-1,1.6c-1.2,2-2.3,4.1-3.3,6.3
		c-3.2,7.1-4.9,14.8-5,22.7c0,2.2,0.1,4.4,0.4,6.6c0.3,2,0.8,4,1.4,6c1,3.4,2.4,6.6,4,9.7c1.4,2.7,2.7,4.7,3.6,6.1l1.1,1.6
		C179.5,368,179.5,368.2,179.6,368.5z"/>
	<path class="st4" d="M169.5,326.1c-0.3,0.2-0.7,0.3-1.1,0.4c-1.1,0.2-2.2,0.2-3.3-0.1c-1.6-0.4-3.1-1-4.5-1.8
		c-1.7-0.9-3.4-2.1-4.8-3.4c-2.7-2.4-4.8-5.3-6.3-8.6c-0.4-1-0.8-2-1.1-3c-0.1-0.4-0.2-0.8-0.2-1.2c0.1,0,0.5,1.6,1.7,4
		c1.6,3.2,3.7,6,6.3,8.4c1.4,1.3,3,2.4,4.7,3.4c1.4,0.8,2.8,1.4,4.3,1.8C166.6,326.5,168.1,326.5,169.5,326.1z"/>
	<path class="st4" d="M241.9,374.3c-0.3-0.1-0.6-0.3-0.9-0.5c-0.8-0.5-1.6-1-2.4-1.5c-2.5-1.8-4.8-4-6.7-6.4c-2-2.4-3.6-5.1-4.9-7.9
		c-0.4-0.9-0.7-1.7-1-2.6c-0.1-0.3-0.2-0.7-0.3-1c0.1,0,0.6,1.3,1.6,3.4c2.7,5.5,6.6,10.3,11.5,14.1
		C240.8,373.5,242,374.2,241.9,374.3z"/>
	<path class="st4" d="M309,343.2c0.1,0.3,0.1,0.7,0.1,1.1c0,0.7,0,1.7,0,2.9c0,3.2-0.3,6.4-1,9.5c-0.9,4.1-2.7,7.9-5.3,11.2
		c-0.2,0.3-0.4,0.6-0.7,0.8c-0.1-0.1,0.8-1.3,2.1-3.3c1.6-2.7,2.8-5.7,3.5-8.8c0.6-3.1,1-6.2,1.1-9.4
		C308.8,345.8,308.9,344.5,309,343.2z"/>
	<path class="st4" d="M351.4,291.5c0.2,0,0.3,0.1,0.5,0.2c0.3,0.2,0.7,0.4,1.3,0.7c1.5,1,3,2.2,4.2,3.5c1.9,2,3.5,4.2,4.7,6.7
		c0.7,1.4,1.3,2.9,1.9,4.5c0.5,1.6,1,3.3,1.3,5c1.1,5.9,1.5,12,1.2,18c-0.1,2.3-0.2,4.2-0.3,5.5c0,0.6-0.1,1.1-0.1,1.5
		c0,0.2,0,0.3-0.1,0.5c0-0.2,0-0.3,0-0.5c0-0.4,0-0.9,0-1.5c0-1.4,0.1-3.2,0.1-5.5c0.2-6-0.3-12-1.4-17.9c-0.4-1.7-0.8-3.3-1.3-4.9
		c-0.5-1.5-1.1-3-1.8-4.4c-1.2-2.4-2.7-4.6-4.5-6.6c-1.2-1.3-2.6-2.5-4.1-3.5C352,291.9,351.4,291.5,351.4,291.5z"/>
	<path class="st4" d="M339.7,302.5c0.3-0.3,0.6-0.6,1-0.9c0.7-0.5,1.7-1.3,2.8-2.3c3-2.6,5.8-5.6,8.4-8.7c2.5-3.2,4.7-6.5,6.6-10.1
		c0.7-1.4,1.3-2.5,1.6-3.3c0.2-0.4,0.4-0.8,0.6-1.2c-0.1,0.4-0.2,0.9-0.4,1.3c-0.3,0.8-0.8,2-1.5,3.4c-3.6,7.3-8.8,13.7-15.1,18.9
		c-1.2,1-2.2,1.7-2.9,2.2C340.5,302.1,340.1,302.3,339.7,302.5z"/>
	<path class="st4" d="M333.7,166c0,0,0.1,0.1,0.2,0.4s0.3,0.6,0.5,1.1c0.6,1.4,1.1,2.9,1.4,4.4c2.5,10-0.3,20.7-7.3,28.2
		c-1,1.1-2.2,2.2-3.4,3.1c-0.4,0.3-0.8,0.6-1,0.7c-0.1,0.1-0.2,0.2-0.4,0.2c0.4-0.4,0.8-0.8,1.2-1.2c1.1-1,2.2-2.1,3.2-3.2
		c6.8-7.6,9.5-18,7.3-27.9c-0.3-1.5-0.7-2.9-1.3-4.4C334,167,333.8,166.5,333.7,166z"/>
	<path class="st4" d="M351.4,175.8c0,0.1-1,0.1-2.6,0.3c-4.1,0.6-7.9,2.5-10.8,5.5c-1.1,1.1-1.7,2-1.7,1.9c0.4-0.8,0.9-1.5,1.5-2.2
		c1.4-1.6,3.1-2.9,5-3.9c1.9-1,3.9-1.6,6-1.8C349.6,175.6,350.5,175.7,351.4,175.8z"/>
	<path class="st4" d="M383.6,284.7c0-0.2,0.1-0.5,0.2-0.7c0.1-0.5,0.4-1.1,0.6-2c1.8-6.1,2.3-12.6,1.6-19c-0.8-7-3.3-13.8-7.3-19.6
		c-1.3-1.8-2.7-3.6-4.2-5.2c-2.6-2.8-5.6-5.2-8.8-7.2c-2.2-1.4-4.5-2.5-6.9-3.4c-0.8-0.4-1.5-0.5-2-0.7c-0.2-0.1-0.5-0.2-0.7-0.3
		c0.2,0,0.5,0.1,0.7,0.2c0.5,0.1,1.1,0.3,2,0.6c2.4,0.9,4.8,2,7,3.3c3.3,2,6.3,4.4,9,7.2c1.5,1.7,3,3.4,4.3,5.3
		c1.4,2,2.6,4.1,3.6,6.4c1.9,4.3,3.2,8.9,3.7,13.6c0.5,3.8,0.4,7.7-0.1,11.5c-0.3,2.6-0.9,5.1-1.7,7.5c-0.3,0.9-0.5,1.5-0.7,2
		C383.9,284.2,383.8,284.4,383.6,284.7z"/>
	<path class="st4" d="M383.6,220.6c-0.1,0.9-0.3,1.7-0.6,2.5c-0.7,2-1.7,3.8-2.9,5.5c-1.2,1.7-2.7,3.2-4.3,4.4
		c-0.7,0.6-1.4,1-2.2,1.3c2.3-1.8,4.3-3.8,6.1-6.1C381.3,225.9,382.6,223.3,383.6,220.6z"/>
	<path class="st4" d="M278.5,138.7c0.2,0.3,0.3,0.7,0.4,1c0.1,0.4,0.3,0.8,0.4,1.2c0.1,0.5,0.3,1.1,0.4,1.7c0.3,1.5,0.4,3,0.5,4.5
		c0,1.8-0.1,3.7-0.4,5.5c-0.3,1.8-0.8,3.6-1.5,5.3c-0.5,1.4-1.2,2.8-1.9,4.1c-0.3,0.6-0.6,1-0.9,1.5c-0.2,0.3-0.5,0.7-0.8,1
		c-0.2,0.3-0.5,0.6-0.7,0.9c-0.1-0.1,0.9-1.3,2.1-3.6c0.7-1.3,1.3-2.7,1.8-4.1c0.6-1.7,1.1-3.5,1.4-5.3c0.3-1.8,0.5-3.6,0.5-5.4
		c0-1.5-0.1-3-0.3-4.4C278.9,140.2,278.4,138.8,278.5,138.7z"/>
	<g class="st7">
		<path d="M279.8,317.1c0.9-2.2,1.2-5.5-1-6.4c-1.5-0.7-3.2,0.3-4.6,1.2c-4.3,2.9-5.6,4.8-9.9,7.6c-3.1,2-7.6,4.1-10.9,2.6
			c-3.7-1.7-3.7-6.9-5.9-10.3c-0.6-1.2-1.7-1.9-3-2c-1.5,0.2-2.8,1.2-3.2,2.6c-0.1,1.5,0,2.9,0.2,4.3c0.2,3.2,0.1,6.4-0.2,9.6
			c-0.2,0.9-0.3,1.7-0.4,2.6c-3.6-0.2-7.2-0.3-10.5-0.5c-0.8-0.2-1.6,0.1-2.3,0.6c-0.4,0.6-0.6,1.2-0.6,1.9
			c-0.2,1.2-0.3,2.3-0.3,3.5c-16.7,0.1-32.4-0.9-47.2-9c-15.9-8.7-23.5-22.8-23.5-42.5c0,0,0.1-5.9-8.4-6
			c-9.3-0.1-9.2,10.2-9.2,10.2c-1.7,21.3,12.4,41.6,30.8,52.4c18,10.5,39.5,13.3,60.4,13.4c0.4,0.5,1,1,1.6,1.3
			c1.3,0.6,2.8,0.8,4.2,0.5c3.8-0.4,7.6-1.4,11.1-2.9c1.4,1.1,3,1.8,4.8,2c4.2,0.9,8.6,1.1,12.9,0.5c2.9-0.4,7.5-2.2,8.4-5
			c0.1-0.9,0.4-1.8,0.7-2.6v-0.1c0.3-0.4,0.7-0.7,1-1.1l0.5-0.5c2-2,2.5-8,0.4-9.9c0.3-0.4,0.6-0.8,0.9-1.3l-0.7,0.7
			c2.4-3.6,2-6.7-1.2-9.8l0.1-0.2l-0.1,0.2l0,0C277.2,321.5,278.3,320.9,279.8,317.1z"/>
	</g>
	<path class="st4" d="M156.6,278.2c0,19.7,7.6,33.8,23.5,42.5s32.9,9.1,51,8.9c0.3,6.2,0.5,12.4,0.8,18.6c-21.4,0-43.5-2.6-62-13.4
		s-32.6-31.1-30.8-52.4c0,0-0.1-10.4,9.2-10.2C156.6,272.3,156.6,278.2,156.6,278.2z"/>
	<path class="st1" d="M278.8,305.9c-1.5-0.6-3.2,0.3-4.6,1.2c-4.3,2.9-5.6,4.8-9.9,7.6c-3.1,2-7.6,4.1-10.9,2.6
		c-3.7-1.7-3.7-6.9-5.9-10.3c-0.6-1.2-1.7-1.9-3-2c-1.5,0.1-2.8,1.2-3.2,2.6c-0.1,1.4,0,2.9,0.2,4.3c0.2,3.2,0.1,6.4-0.2,9.6
		c-0.4,3.3-1.1,9.3,0.8,12c0.8,4,2.2,7.9,4,11.6c0.5,1.1-1.1,0.2-0.1,1s2.1,2.5,6,3.1c4.2,0.9,8.6,1,12.9,0.5c2.9-0.4,7.5-2.2,8.4-5
		c0.1-0.9,0.4-1.8,0.7-2.6c0.4-0.6,0.9-1.2,1.5-1.7c2-2,2.5-8.3,0.2-10c2.8-3.8,2.5-7.1-0.9-10.3c2.5-3.5,3.5-4,5-7.8
		C280.7,310,281,306.8,278.8,305.9z"/>
	<path class="st1" d="M250.1,327c-0.7,0.6-1.2-1.7-2.1-1.9c-5.4-1.2-12.1-1.1-17.6-1.4c-0.8-0.2-1.7,0.1-2.3,0.6
		c-0.4,0.6-0.6,1.2-0.6,1.9c-0.7,5.5-0.6,11,0.5,16.5c0.6,2.8,1.6,5.7,3.8,6.9c1.3,0.6,2.8,0.8,4.2,0.5c8.2-0.9,15.9-4.4,22-10
		L250.1,327z"/>
	<path class="st4" d="M246,346.6c-0.2-0.2-0.5-0.5-0.6-0.8c-0.2-0.3-0.5-0.7-0.6-1c-0.3-0.5-0.5-0.9-0.7-1.4
		c-1.3-2.8-2.2-5.8-2.7-8.8c-0.6-3-0.8-6.1-0.6-9.2c0-0.5,0.1-1.1,0.2-1.6c0-0.4,0.1-0.8,0.2-1.2c0-0.3,0.1-0.7,0.3-1
		c0.1,0-0.2,1.5-0.3,3.8c-0.1,3,0.2,6.1,0.7,9.1c0.5,3,1.4,5.9,2.6,8.8C245.2,345.3,246.1,346.5,246,346.6z"/>
	<path class="st4" d="M271.8,334.4c-0.1-0.1,1.2-1,2.5-2.5s2.2-2.7,2.4-2.6c-0.4,1.2-1.1,2.2-2,3
		C273.9,333.2,272.9,333.9,271.8,334.4z"/>
	<path class="st4" d="M271,344.6c-0.1-0.1,1.2-1,2.5-2.5s2.2-2.7,2.4-2.6C274.9,341.7,273.2,343.5,271,344.6L271,344.6z"/>
	<path class="st4" d="M270,325.1c-0.1-0.1,1.2-1,2.5-2.5s2.2-2.7,2.4-2.6c-0.4,1.2-1.1,2.2-2,3C272.1,323.9,271.1,324.6,270,325.1z"
		/>
	<path class="st4" d="M228.3,226.7c-0.3,2.3-8.4,3-17.4,6.2c-9,3-15.9,7.3-17.6,5.6c-0.8-0.8,0.1-3.1,2.7-5.8
		c7-6.9,16.8-10.3,26.6-9C226.3,224.3,228.4,225.6,228.3,226.7z"/>
	<path class="st4" d="M314.7,189.4c-1.8,1.8-8.4-0.2-16.5-0.5c-8-0.5-14.9,0.9-16.4-1c-0.7-0.9,0.4-2.8,3.5-4.4
		c4.2-2.1,8.8-3,13.5-2.7c4.6,0.2,9.1,1.5,13,4C314.6,186.6,315.5,188.6,314.7,189.4z"/>
	<path class="st1" d="M316.6,224.2c13.1,5.1,19.4,20.6,13.9,34.4s-20.5,21-33.6,15.9S277.6,254,283,240.1S303.5,219.1,316.6,224.2z"
		/>
	<path class="st4" d="M317.1,223c13.1,5.1,20,19,15.3,31s-19.1,17.5-32.2,12.4s-20-19-15.3-31S303.9,217.9,317.1,223z"/>
	<path class="st1" d="M237.4,242c10.7,9.2,11.4,25.8,1.7,37.1s-26.3,13-37,3.8s-11.4-25.8-1.7-37.1S226.7,232.8,237.4,242z"/>
	<path class="st4" d="M238.2,241c10.7,9.2,12.5,24.6,4.1,34.3s-23.9,10.2-34.5,1s-12.5-24.5-4.1-34.3S227.6,231.8,238.2,241z"/>
	<g class="st7">
		<path d="M264.2,281.6c-2.9,2-2.6,4.8-2.6,8.3c0,1.5,0.5,3,1.5,4.2c1,1.4,2.5,2.2,4.2,2.2c2.8-0.1,5.2-2.5,6.4-5
			c1.8-3.7,2.3-7.9,2.5-12C272.8,278.9,267.1,279.6,264.2,281.6z"/>
	</g>
	<path class="st4" d="M273.8,291.3c0,0,0,0.1-0.2,0.4c-0.2,0.3-0.4,0.7-0.6,1c-0.9,1.1-1.9,2.2-3.1,3c-0.8,0.6-1.8,0.9-2.8,1
		c-1.2,0.1-2.4-0.2-3.3-1c-1-0.8-1.7-2-2-3.2c-0.3-1.3-0.4-2.7-0.3-4c0-1.4,0.3-2.7,0.7-4c0.5-1.2,1.3-2.2,2.4-3
		c1.7-1.3,3.8-2,5.9-2.2c1.4-0.2,2.8-0.2,4.3-0.2c0.5,0,1,0,1.6,0.1c-0.5,0.1-1,0.1-1.6,0.1c-1.4,0-2.8,0.1-4.2,0.3
		c-2.1,0.3-4,1-5.7,2.3c-1,0.7-1.7,1.7-2.2,2.8c-0.4,1.2-0.7,2.5-0.7,3.8c-0.1,1.3,0,2.6,0.3,3.9c0.3,1.2,0.9,2.2,1.8,3
		c0.8,0.7,1.9,1,3,0.9c0.9-0.1,1.9-0.4,2.6-0.9c1.2-0.8,2.2-1.7,3.1-2.8C273.5,291.7,273.7,291.3,273.8,291.3z"/>
	<path class="st4" d="M229.3,432.4c-8.5-1.6-17.2-1.5-25.7,0.4c-4.3,1-8.7,2.4-12.2,5s-6.4,5.5-6.1,9.9l65.1,0.1
		C250.4,439.9,237.8,433.9,229.3,432.4z"/>
	<path class="st4" d="M301.2,432.1c8.5-1.6,17.2-1.5,25.7,0.4c4.3,1,8.7,2.4,12.2,5s6.2,5.7,5.9,10.2l-64.8-0.2
		C280.2,439.6,292.8,433.6,301.2,432.1z"/>
	<path class="st4" d="M205.2,152.1c0,0.1-0.8-0.3-2.2-0.9c-2-0.8-4-1.3-6.1-1.7c-3.1-0.5-6.3-0.6-9.4-0.1c-7.7,1-14.7,5-19.4,11.2
		c-1.9,2.5-3.5,5.2-4.6,8.2c-0.8,2-1.3,4-1.6,6.1c-0.2,1.5-0.3,2.3-0.3,2.3c0-0.2,0-0.4,0-0.6c0-0.6,0.1-1.2,0.1-1.7
		c0.3-2.1,0.8-4.2,1.5-6.2c1.1-3,2.6-5.8,4.6-8.3c4.8-6.3,11.9-10.4,19.7-11.3c3.2-0.4,6.4-0.3,9.5,0.2c2.1,0.4,4.2,1,6.1,1.9
		c0.5,0.2,1.1,0.5,1.6,0.8C204.8,151.9,205,152,205.2,152.1z"/>
	<g class="st7">
		<path d="M267.1,183.6c1.8-12.9-7.2-24.9-20.2-26.7c-2.1-0.3-4.2-0.3-6.4,0c0-7,0-14.1-0.1-21.1c-0.1-10.5,5.4,1.1,5.5,16.3
			c8.2-0.4,15.9,3.9,19.9,11C273,175.3,267.1,183.6,267.1,183.6z"/>
	</g>
	<path class="st4" d="M248.9,214c0-0.3,0-0.6,0-0.9c0-0.3,0.1-0.6,0.1-1c0.1-0.5,0.1-0.9,0.1-1.4c0.1-3-0.3-6-1.2-8.9
		c-0.3-1-0.6-1.9-1-2.8c-0.4-1-0.9-1.9-1.4-2.9c-0.5-1-1.1-2-1.8-2.9c-0.3-0.5-0.7-1-1-1.5l-1.2-1.4c-1.7-2-3.7-3.8-5.9-5.2
		c-2.3-1.6-4.9-2.8-7.6-3.6c-2.7-0.7-5.5-1.1-8.4-1c-2.6,0.1-5.2,0.5-7.7,1.3l-1.8,0.6c-0.6,0.2-1.1,0.5-1.7,0.7
		c-1.1,0.4-2.1,1.1-3.1,1.5s-1.9,1.1-2.7,1.8s-1.6,1.2-2.3,1.9c-2.3,2-4.2,4.3-5.8,6.9c-0.3,0.4-0.5,0.8-0.7,1.2
		c-0.2,0.4-0.3,0.7-0.5,0.9c-0.1,0.3-0.3,0.5-0.4,0.8c0.1-0.3,0.2-0.5,0.3-0.8l0.4-0.9c0.2-0.4,0.4-0.9,0.7-1.3
		c1.5-2.7,3.4-5,5.7-7.1c0.7-0.7,1.5-1.3,2.3-1.9c0.8-0.6,1.8-1.2,2.7-1.8s2-1.1,3.1-1.6c0.6-0.2,1.1-0.5,1.7-0.7l1.8-0.6
		c2.5-0.8,5.2-1.3,7.9-1.4c5.8-0.3,11.5,1.3,16.3,4.6c2.2,1.5,4.2,3.3,5.9,5.3l1.2,1.5c0.4,0.5,0.7,1,1,1.5c0.7,1,1.2,2,1.8,3
		s1,2,1.3,3c0.4,0.9,0.7,1.9,1,2.9c0.8,2.9,1.2,6,1,9c0,0.5,0,1-0.1,1.4c0,0.4-0.1,0.7-0.1,1C249,213.4,248.9,213.7,248.9,214z"/>
	<path class="st4" d="M155.3,244.6c-0.2,0-0.4,0-0.5-0.1c-0.3-0.1-0.9-0.2-1.5-0.4c-1.8-0.6-3.6-1.4-5.2-2.4
		c-2.5-1.5-4.6-3.4-6.5-5.6c-4.6-5.4-6.6-12.6-5.4-19.7c0.4-2.8,1.3-5.6,2.7-8.1c0.9-1.7,2-3.3,3.3-4.7c0.4-0.5,0.9-0.9,1.1-1.1
		c0.1-0.1,0.3-0.3,0.4-0.4c-0.4,0.6-0.9,1.1-1.3,1.6c-1.2,1.5-2.2,3.1-3.1,4.8c-1.3,2.5-2.1,5.2-2.5,8c-1.1,6.9,0.9,13.9,5.3,19.3
		c1.8,2.2,3.9,4.1,6.3,5.6c1.6,1,3.3,1.9,5.1,2.5C154.6,244.4,155.3,244.6,155.3,244.6z"/>
	<path class="st4" d="M118.6,207.8c1,0,1.9,0.1,2.8,0.3c2.3,0.5,4.5,1.2,6.6,2.2c2.1,1,4,2.3,5.8,3.8c0.8,0.6,1.4,1.2,2,2
		c-0.1,0.1-0.9-0.7-2.2-1.8c-3.6-2.8-7.8-4.9-12.2-6C119.7,208.1,118.6,207.9,118.6,207.8z"/>
	<path class="st4" d="M264.5,192.8c0,0.1-1.1-0.2-2.9-0.6c-2.3-0.4-4.7-0.5-7-0.2c-2.3,0.3-4.6,0.9-6.8,1.9
		c-1.6,0.8-2.6,1.4-2.6,1.3s0.2-0.2,0.6-0.5c0.6-0.4,1.2-0.8,1.9-1.1c2.1-1.1,4.5-1.8,6.9-2.1c2.4-0.3,4.8-0.2,7.2,0.4
		c0.7,0.2,1.4,0.4,2.1,0.6C264.1,192.5,264.3,192.6,264.5,192.8z"/>
	<g class="st7">
		<path d="M256.6,187.5c-3.9-0.7-7.8,0-11.3,1.9c-5.9-9.7-16.8-15.2-28.1-14.1c-11,1.2-19.7,9.7-23.1,20.2
			c5.6-10.5,15.4-14.7,25.7-15s20.8,5.4,25.3,14.6c6.5-3.6,14.2-4.4,21.3-1.9C264,190.2,260.5,188.2,256.6,187.5z"/>
	</g>
	<g class="st7">
		<path d="M146.6,199.8c-6.1,0.4-11.6,3.8-14.8,8.9c-4.1-1.8-8.7-2.2-13-0.9c6.8,0.7,13.1,4,17.6,9.2
			C136.1,209.8,140.1,203.1,146.6,199.8z"/>
	</g>
	<g class="st7">
		<path d="M387.1,243.5c-5.8-9.8-18.4-17-29.7-16.6h-0.3c9,3.4,19.1,10.5,24.5,21.5c4.3,9.1,5.8,19.2,4.2,29.2
			C391.7,267.8,392.9,253.3,387.1,243.5z"/>
	</g>
	<path class="st1" d="M390.4,389.1c0.1-0.8,0.2-1.6,0.2-2.5c0.2-2.4,0.1-4.8-0.4-7.2c-0.4-1.6-1-3.2-2-4.6c1.4-3.1,2.3-6.5,2.7-9.9
		c0.2-1.3,0.1-2.6-0.4-3.8c-1-2-3.7-3-6.2-3.5c-4.9-1-9.9-1.3-14.8-0.6c-0.6,0-1.2,0.2-1.7,0.5c-0.5,0.5-0.7,1.3-0.6,2
		c0.3,3.6,0.3,7.2,0.2,10.8c-2.5,0.9-4.8,2.4-6.7,4.3l-0.1,0.1c-2.3,2.1-4.8,4-7.4,5.8c-1.5,1-2.4,2-2.5,3.2
		c-0.1,1.1,0.5,2.2,1.4,2.7c3,2,9.9-3,9.9-3c-0.7,2.3-1.7,4.4-3,6.5c-3.1,4.6-0.7,0.8-5.4,7.8c-0.5,0.7-2,2.6-1.4,4.5
		s2.1,2.3,4.1,1.5c3.4-1.3,7.9-6,10.8-8.4c-0.8,1-4.8,6.7-5.5,7.8c-0.9,1.5-1.9,2.7-1.4,3.9s2.2,1.7,3.5,1.6c1.1-0.2,2-0.7,2.7-1.5
		c2.5-2.5,4.9-5.1,7.1-7.9c-0.9,2-3,6.1-3.6,8.2c-0.2,0.8-0.8,2.5-0.4,3.3c0.6,1.2,2.4,1.3,3.7,0.8c1.7-0.7,4-3.4,5-4.9
		c0.9-1.6,1.7-3.2,2.3-4.9c-0.1,0.7-0.3,1.3-0.6,1.9c-0.5,1.1-0.9,2.3-1.2,3.6c0,0.8-0.9,3.7,0.4,4.5c1.7,1.1,3.1-0.7,3.5-1.2
		c2.9-3.6,4.6-8.6,5.7-12C389.5,395.4,390.1,392.2,390.4,389.1z"/>
	<path class="st4" d="M390.4,389.1c0,0,0,0.2-0.1,0.7l-0.2,1.9c-0.3,2.5-0.9,4.9-1.7,7.3c-0.5,1.5-1.1,3.2-1.9,5.1
		c-0.8,2-1.8,3.9-3,5.7c-0.6,1.1-1.5,1.9-2.7,2.4c-0.7,0.2-1.4,0-1.9-0.5c-0.4-0.6-0.6-1.3-0.5-2c0-0.7,0.1-1.3,0.2-2
		c0-0.2,0-0.3,0-0.5c0-0.2,0-0.4,0.1-0.5c0.1-0.3,0.2-0.7,0.3-1c0.2-0.7,0.5-1.3,0.8-2c0.3-0.6,0.5-1.3,0.6-2l0.4,0.1
		c-0.7,2.1-1.7,4.1-3,5.9c-0.7,0.9-1.5,1.8-2.4,2.6c-0.4,0.4-0.9,0.8-1.4,1.1c-0.5,0.3-1.2,0.5-1.8,0.6c-0.7,0.1-1.3,0-1.9-0.3
		c-0.3-0.2-0.6-0.4-0.8-0.7c-0.2-0.3-0.3-0.6-0.3-1c0-0.6,0.2-1.3,0.4-1.9c0.2-0.6,0.3-1.2,0.6-1.8c0.9-2.4,2.2-4.7,3.3-7.2l0.4,0.2
		c-1.5,1.9-3.1,3.8-4.9,5.7c-0.9,1-1.8,1.9-2.8,2.7c-0.5,0.5-1.1,0.8-1.8,1c-0.7,0.2-1.4,0.2-2.1,0c-0.7-0.1-1.4-0.5-1.9-1
		c-0.5-0.6-0.6-1.4-0.3-2.1c0.3-0.7,0.6-1.3,1-1.9c0.4-0.6,0.8-1.1,1.1-1.7l4.8-6.9l0.4,0.4c-2.7,2.2-5.2,4.8-8.2,7
		c-0.8,0.5-1.6,1-2.4,1.4c-0.9,0.4-1.9,0.6-2.9,0.4c-0.5-0.1-1-0.4-1.3-0.9c-0.3-0.4-0.5-0.9-0.6-1.4c-0.2-1,0-2,0.4-2.9
		c3.2-5.5,7.7-10,9.4-15.8l0.4,0.3c-1.3,0.9-2.7,1.7-4.1,2.4c-1.4,0.7-3,1.1-4.6,1.1c-0.8-0.1-1.6-0.5-2.2-1.2
		c-0.6-0.6-0.8-1.5-0.8-2.3c0.1-0.8,0.5-1.6,1.1-2.1c0.5-0.5,1.1-1,1.8-1.4c2.4-1.6,4.7-3.4,6.9-5.4c2-2.1,4.4-3.6,7.1-4.6l-0.1,0.2
		c0.2-2.7,0.2-5.3,0-8c0-0.6-0.1-1.3-0.1-1.9c-0.1-0.7-0.1-1.3,0-2c0.1-0.4,0.2-0.7,0.5-0.9c0.3-0.2,0.6-0.4,0.9-0.5
		c0.6-0.1,1.2-0.2,1.9-0.3c4.6-0.5,9.3-0.2,13.9,0.8c2.1,0.5,4.2,1.1,5.7,2.6c0.7,0.8,1.1,1.7,1.2,2.7c0.1,0.9,0,1.9-0.1,2.8
		c-0.4,3.2-1.3,6.4-2.7,9.3v-0.1c0.7,0.9,1.2,1.9,1.6,3c0.3,0.9,0.6,1.9,0.7,2.9c0.2,1.5,0.3,3.1,0.1,4.6c0,0.9-0.1,1.9-0.2,2.8
		C390.5,388.7,390.4,389,390.4,389.1c0-0.1,0-0.4,0.1-1s0.1-1.6,0.1-2.8c0.1-1.5,0-3.1-0.2-4.6c-0.2-1-0.4-1.9-0.7-2.8
		c-0.4-1.1-0.9-2-1.5-3c0,0,0-0.1,0-0.1c1.3-2.9,2.2-6.1,2.6-9.2c0.1-0.9,0.2-1.8,0.1-2.7c-0.1-0.9-0.5-1.8-1.1-2.5
		c-1.3-1.4-3.4-2-5.5-2.5c-4.5-0.9-9.2-1.2-13.8-0.7c-0.6,0-1.2,0.1-1.8,0.3c-0.6,0.1-1,0.6-1.1,1.1c-0.1,0.6-0.1,1.2,0,1.9
		c0,0.6,0.1,1.3,0.1,2c0.2,2.7,0.2,5.4,0,8.1c0,0.1-0.1,0.2-0.1,0.2c-2.6,1-5,2.5-6.9,4.5c-2.2,2-4.5,3.8-7,5.4
		c-0.6,0.4-1.2,0.9-1.7,1.4c-0.5,0.5-0.8,1.1-0.9,1.8c-0.1,0.7,0.2,1.4,0.6,1.9c0.5,0.6,1.1,0.9,1.8,1c1.5,0,3-0.3,4.4-1
		c1.4-0.7,2.8-1.4,4.1-2.4l0,0c0.1-0.1,0.3,0,0.3,0.1c0,0,0,0,0,0c0,0.1,0,0.2,0,0.2c-0.5,1.4-1.1,2.9-1.7,4.2
		c-0.7,1.4-1.5,2.7-2.4,4c-0.4,0.6-0.9,1.3-1.4,1.9l-1.3,1.9l-1.3,2c-0.5,0.6-0.9,1.3-1.2,2c-0.4,0.8-0.6,1.7-0.4,2.5
		c0.1,0.8,0.7,1.5,1.5,1.8c0.9,0.1,1.7,0,2.5-0.4c0.8-0.4,1.6-0.8,2.3-1.3c3-2.1,5.4-4.7,8.2-6.9c0.1-0.1,0.2-0.1,0.3,0c0,0,0,0,0,0
		c0.1,0.1,0.1,0.2,0,0.3l0,0l-4.8,6.8c-0.4,0.6-0.8,1.1-1.1,1.7c-0.4,0.5-0.7,1.1-0.9,1.7c-0.2,0.6-0.1,1.2,0.2,1.7
		c0.4,0.4,1,0.7,1.6,0.8c0.6,0.1,1.2,0.1,1.8,0c0.6-0.2,1.1-0.5,1.6-0.9c1-0.8,1.9-1.7,2.7-2.7c1.7-1.9,3.3-3.8,4.9-5.7
		c0.1-0.1,0.2-0.1,0.3,0c0.1,0.1,0.1,0.2,0.1,0.3c-1.1,2.5-2.4,4.8-3.3,7.1c-0.2,0.6-0.4,1.2-0.6,1.8c-0.2,0.6-0.3,1.2-0.3,1.8
		c0,0.6,0.3,1.1,0.8,1.3c0.5,0.2,1.1,0.3,1.7,0.3c1.2-0.2,2.2-0.7,3-1.6c0.8-0.8,1.6-1.6,2.3-2.5c1.3-1.8,2.3-3.7,3-5.8
		c0-0.1,0.2-0.1,0.3-0.1c0.1,0,0.1,0.1,0.1,0.2c-0.1,0.7-0.4,1.4-0.6,2.1c-0.3,0.6-0.5,1.3-0.8,1.9c-0.1,0.3-0.2,0.7-0.3,1
		c0,0.2-0.1,0.3-0.1,0.5c0,0.2,0,0.3-0.1,0.5c-0.1,0.7-0.2,1.3-0.2,2c-0.1,0.6,0.1,1.2,0.4,1.7c0.4,0.4,1,0.5,1.6,0.4
		c1.1-0.5,2-1.3,2.5-2.3c1.2-1.8,2.2-3.6,3.1-5.6c0.8-1.8,1.4-3.5,1.9-5c0.8-2.4,1.4-4.8,1.8-7.2l0.3-1.9
		C390.3,389.3,390.4,389.1,390.4,389.1z"/>
	<path class="st4" d="M388.3,375c-0.1,0.1-1-0.8-2.7-1.9c-2.2-1.5-4.7-2.5-7.3-3c-2.6-0.4-5.3-0.4-7.9,0c-2,0.3-3.3,0.7-3.3,0.6
		c0.3-0.1,0.5-0.2,0.8-0.3c0.8-0.2,1.6-0.5,2.4-0.6c2.7-0.5,5.4-0.6,8.1-0.1c3.5,0.7,6.7,2.4,9.3,4.8
		C388.1,374.7,388.3,374.9,388.3,375z"/>
</g>
</svg>
